<svg width="48" height="48" viewBox="0 0 48 48" fill="none" xmlns="http://www.w3.org/2000/svg">
<g id="admin">
<g id="Group">
<g id="Group_2">
<path id="Vector" d="M38.2983 19.693L39.3703 18.7922L41.0944 19.5382L41.1718 20.9363L42.1606 21.9566L43.5556 22.0772L44.2472 23.8239L43.3134 24.8673L43.2911 26.288L44.1919 27.3601L43.4459 29.0843L42.0479 29.1622L41.0277 30.1512L40.9065 31.5462L39.16 32.2378L38.1166 31.3038L36.696 31.282L35.624 32.1828L33.8999 31.4369L33.8225 30.0387L32.8337 29.0185L31.4387 28.8978L30.7471 27.1512L31.6809 26.1078L31.7031 24.6871L30.8024 23.615L31.5483 21.8908L32.9464 21.8129L33.9666 20.8239L34.0878 19.4289L35.8343 18.7373L36.8777 19.6712L38.2983 19.693Z" stroke="white" stroke-width="1.5" stroke-linecap="round" stroke-linejoin="round"/>
<path id="Vector_2" d="M36.603 27.5542C37.7444 28.0481 39.0701 27.5235 39.5639 26.3817C40.0578 25.2401 39.5329 23.9145 38.3915 23.4206C37.2499 22.9268 35.9242 23.4514 35.4303 24.5931C34.9365 25.7346 35.4615 27.0602 36.603 27.5542Z" stroke="white" stroke-width="1.5" stroke-linecap="round"/>
</g>
<g id="Group_3">
<path id="Vector_3" d="M35.7931 7.79422L36.7476 8.27149V9.70329L35.7931 10.1806L35.3787 11.1811L35.7161 12.1934L34.7037 13.2058L33.6912 12.8684L32.6908 13.2829L32.2135 14.2374H30.7817L30.3044 13.2829L29.3039 12.8684L28.2915 13.2058L27.279 12.1934L27.6165 11.1811L27.2021 10.1806L26.2476 9.70329V8.27149L27.2021 7.79422L27.6165 6.79372L27.279 5.78133L28.2915 4.76893L29.3039 5.1063L30.3044 4.69175L30.7817 3.7373H32.2135L32.6908 4.69175L33.6912 5.1063L34.7037 4.76893L35.7161 5.78133L35.3787 6.79372L35.7931 7.79422Z" stroke="white" stroke-width="1.5" stroke-linecap="round" stroke-linejoin="round"/>
<path id="Vector_4" d="M31.4634 10.4873C30.6349 10.4873 29.9634 9.81575 29.9634 8.98732C29.9634 8.15888 30.6349 7.4873 31.4634 7.4873C32.2918 7.4873 32.9634 8.15888 32.9634 8.98732C32.9634 9.81575 32.2918 10.4873 31.4634 10.4873Z" fill="white"/>
</g>
<g id="Group_4">
<path id="Vector_5" d="M21.7505 37.4795V42.7295" stroke="white" stroke-width="1.5"/>
<path id="Vector_6" d="M9.75016 32.2414L12.0002 36.7374L15.0002 33.7401M15.0002 33.7401L12.0002 30.7427L6.37514 32.9961C5.00379 33.4796 3.66875 34.497 3.75012 35.9934V38.2414V42.7375H26.2503V38.2414V35.9934C26.2503 34.4948 24.9966 33.4796 23.6253 32.9961L18.0002 30.7427L15.0002 33.7401ZM15.0002 33.7401L18.0002 36.7374L20.2502 32.2414" stroke="white" stroke-width="1.5" stroke-linecap="round" stroke-linejoin="round"/>
<path id="Vector_7" d="M8.25 37.4821V42.7321M12 27.7373V30.7373M18.0001 27.7373V30.7373" stroke="white" stroke-width="1.5"/>
<path id="Vector_8" d="M16.5001 17.2373C14.25 18.7373 12 18.7373 9.75002 18.7373V20.2373H9.00001C8.17158 20.2373 7.49999 20.9089 7.5 21.7373C7.49999 22.5658 8.31071 23.5278 9.00001 23.9874C10.5 26.9874 12.5586 29.1812 15.0001 29.2374" stroke="white" stroke-width="1.5" stroke-linecap="round" stroke-linejoin="round"/>
<path id="Vector_9" d="M16.5 17.2373C18 18.7373 18.75 18.7373 20.25 18.7373V20.2373H21C21.8285 20.2373 22.5001 20.9089 22.5001 21.7373C22.5001 22.5658 21.6893 23.5278 21 23.9874C19.5 26.9874 17.4415 29.1812 15 29.2374" stroke="white" stroke-width="1.5" stroke-linecap="round" stroke-linejoin="round"/>
<path id="Vector_10" d="M22.5001 21.7375V16.4599C22.5001 14.3794 21.5712 12.6927 19.5001 12.6927C18.0001 10.4325 15.0524 9.79451 11.7345 11.2434C9.21579 12.3432 7.5 14.559 7.5 18.3436V21.7375" stroke="white" stroke-width="1.5" stroke-linejoin="round"/>
<g id="Group_5">
<path id="Vector_11" d="M12.75 35.9873L15 38.2373L17.25 35.9873" stroke="white" stroke-width="1.5" stroke-linejoin="round"/>
<path id="Vector_12" d="M12.75 42.7373L15 38.2373L17.25 42.7373" stroke="white" stroke-width="1.5"/>
</g>
</g>
</g>
</g>
</svg>
