<svg width="52" height="52" viewBox="0 0 52 52" fill="none" xmlns="http://www.w3.org/2000/svg">
<g id="admin">
<path id="Vector" d="M39.2032 47.6832H39.1983L36.1027 47.6702C35.8032 47.6688 35.5147 47.5575 35.2919 47.3574C34.7171 46.8519 34.2735 46.2146 33.9992 45.5L33.7863 45.3765C33.0287 45.49 32.2549 45.4175 31.5316 45.1653C31.2482 45.07 31.0096 44.874 30.8613 44.6144L29.3257 41.9258C29.1775 41.6668 29.1295 41.3623 29.1908 41.0703C29.3402 40.3187 29.6704 39.6148 30.1528 39.0195L30.1536 38.7757C29.6764 38.1763 29.3523 37.4697 29.2095 36.7169C29.1503 36.424 29.2006 36.1196 29.3508 35.8613L30.9108 33.1866C31.0613 32.9286 31.3013 32.7349 31.5852 32.6422C32.3111 32.397 33.0855 32.3312 33.8424 32.4504L34.0544 32.3286C34.3344 31.6159 34.784 30.9823 35.3642 30.4826C35.5868 30.2857 35.8738 30.177 36.171 30.1771H36.1758L39.2723 30.1901C39.5711 30.1911 39.8591 30.3018 40.0815 30.5013C40.6576 31.0062 41.1019 31.644 41.3759 32.3594L41.5871 32.4838C42.3449 32.3697 43.1191 32.4422 43.8426 32.695C44.1257 32.7905 44.3639 32.9865 44.5121 33.2459L46.0485 35.9336C46.197 36.1932 46.245 36.4982 46.1834 36.7908C46.0333 37.5416 45.7029 38.2445 45.2206 38.8391V39.0853C45.697 39.6846 46.021 40.3906 46.1647 41.1426C46.2243 41.4357 46.174 41.7405 46.0234 41.9989L44.4633 44.6737C44.3124 44.9319 44.0718 45.1256 43.7873 45.2181C43.0621 45.4624 42.2886 45.5279 41.5327 45.409L41.3198 45.5309C41.0394 46.2438 40.5896 46.8777 40.0092 47.3777C39.7868 47.5744 39.5001 47.683 39.2032 47.6832ZM36.63 45.2351L38.6905 45.2432C38.7921 45.1255 38.8831 44.999 38.9627 44.8654C38.9468 44.6367 38.9957 44.4082 39.1038 44.206C39.2118 44.0037 39.3747 43.8361 39.5737 43.7223L40.8583 42.9869C41.0577 42.8728 41.2853 42.8173 41.5148 42.8268C41.7443 42.8363 41.9665 42.9104 42.1558 43.0406C42.3113 43.0431 42.4666 43.0289 42.619 42.9983L43.6565 41.2189C43.6047 41.0719 43.5406 40.9295 43.4648 40.7932C43.2585 40.6927 43.0847 40.5359 42.9635 40.341C42.8424 40.1461 42.7787 39.9209 42.7799 39.6914L42.7864 38.2111C42.7873 37.9816 42.853 37.7571 42.9759 37.5634C43.0988 37.3696 43.2739 37.2145 43.481 37.1158C43.5576 36.9806 43.6229 36.8393 43.676 36.6933L42.6523 34.9042C42.4993 34.8772 42.3445 34.8614 42.1892 34.8571C41.999 34.9853 41.7766 35.0573 41.5474 35.0649C41.3182 35.0726 41.0915 35.0154 40.8932 34.9001L39.6143 34.1543C39.416 34.0387 39.2544 33.8695 39.148 33.6661C39.0417 33.4627 38.9949 33.2334 39.0131 33.0046C38.9347 32.8704 38.845 32.7432 38.745 32.6243L36.6845 32.6162C36.5831 32.7338 36.4921 32.86 36.4123 32.9932C36.4286 33.2223 36.3799 33.4513 36.2718 33.654C36.1637 33.8567 36.0006 34.0247 35.8013 34.1388L34.5151 34.8733C34.3157 34.9869 34.0884 35.0419 33.8592 35.0321C33.63 35.0223 33.4081 34.9482 33.2192 34.8181C33.064 34.8233 32.9094 34.8379 32.756 34.8619L31.7185 36.6413C31.77 36.7884 31.8339 36.9308 31.9094 37.0671C32.1158 37.1673 32.2897 37.3239 32.411 37.5187C32.5324 37.7134 32.5962 37.9385 32.5952 38.168L32.5887 39.6484C32.5876 39.8777 32.5218 40.102 32.3989 40.2956C32.276 40.4892 32.101 40.6442 31.894 40.7428C31.817 40.8784 31.7518 41.0203 31.699 41.1669L32.7211 42.9544C32.8736 42.9849 33.0287 43.0009 33.1842 43.0024C33.3745 42.8741 33.5971 42.802 33.8264 42.7944C34.0558 42.7868 34.2826 42.8439 34.481 42.9593L35.7599 43.7052C35.9582 43.8208 36.1198 43.99 36.2262 44.1934C36.3325 44.3968 36.3793 44.6261 36.3611 44.8549C36.4394 44.9891 36.5299 45.1163 36.63 45.2351ZM37.6814 42.0916C36.8765 42.0917 36.1017 41.7854 35.5143 41.2351C34.9269 40.6847 34.571 39.9314 34.5189 39.1281C34.4667 38.3249 34.7222 37.5319 35.2335 36.9102C35.7447 36.2884 36.4735 35.8846 37.2717 35.7806C38.0699 35.6766 38.8777 35.8803 39.5312 36.3503C40.1847 36.8203 40.6348 37.5214 40.7901 38.3112C40.9455 39.101 40.7945 39.9204 40.3677 40.6029C39.9409 41.2853 39.2704 41.7798 38.4923 41.9859C38.2277 42.0559 37.9551 42.0914 37.6814 42.0916ZM37.6879 38.2062C37.6254 38.2061 37.5631 38.2143 37.5027 38.2306C37.3648 38.2674 37.2409 38.3442 37.1465 38.4513C37.0522 38.5583 36.9917 38.691 36.9726 38.8324C36.9535 38.9738 36.9766 39.1177 37.0391 39.246C37.1017 39.3743 37.2007 39.4812 37.3239 39.5533C37.4053 39.602 37.4957 39.6338 37.5897 39.6466C37.6836 39.6595 37.7793 39.6531 37.8707 39.6281C38.0087 39.5915 38.1328 39.5148 38.2273 39.4078C38.3218 39.3008 38.3825 39.1683 38.4018 39.0268C38.4211 38.8854 38.3981 38.7414 38.3357 38.613C38.2733 38.4846 38.1743 38.3775 38.0511 38.3053C37.9411 38.2403 37.8157 38.206 37.6879 38.2062ZM22.3479 24.2978C20.372 24.2977 18.4405 23.7116 16.7976 22.6137C15.1548 21.5158 13.8744 19.9553 13.1184 18.1298C12.3624 16.3042 12.1647 14.2954 12.5503 12.3575C12.936 10.4195 13.8876 8.63947 15.2849 7.24239C16.6823 5.84531 18.4625 4.89395 20.4005 4.50862C22.3385 4.12329 24.3472 4.3213 26.1727 5.07761C27.9981 5.83391 29.5583 7.11455 30.656 8.75757C31.7536 10.4006 32.3394 12.3322 32.3392 14.3081C32.3362 16.957 31.2826 19.4965 29.4095 21.3694C27.5364 23.2424 24.9968 24.295 22.3479 24.2978ZM22.3479 6.75513C20.8541 6.75529 19.3938 7.19842 18.1518 8.02849C16.9098 8.85856 15.9419 10.0383 15.3703 11.4185C14.7988 12.7987 14.6494 14.3173 14.941 15.7824C15.2326 17.2475 15.9521 18.5933 17.0085 19.6495C18.0649 20.7057 19.4108 21.4249 20.876 21.7162C22.3412 22.0074 23.8598 21.8577 25.2399 21.2859C26.6199 20.7141 27.7995 19.7458 28.6293 18.5037C29.4591 17.2615 29.9019 15.8012 29.9017 14.3073C29.8996 12.3047 29.103 10.3846 27.6868 8.96863C26.2707 7.55261 24.3506 6.75625 22.3479 6.75431V6.75513ZM7.00953 43.1486C6.68925 43.1491 6.38169 43.0233 6.15354 42.7985C5.9254 42.5737 5.79506 42.268 5.79078 41.9478C5.78753 41.6674 5.7526 35.0228 10.3855 30.4168C13.282 27.5356 17.3088 26.1081 22.3707 26.2202C25.6411 26.0534 28.8918 26.8177 31.7453 28.4245C31.8843 28.5058 32.0059 28.6138 32.1029 28.7423C32.2 28.8709 32.2706 29.0173 32.3106 29.1733C32.3507 29.3293 32.3595 29.4917 32.3365 29.6511C32.3134 29.8105 32.259 29.9637 32.1764 30.1019C32.0938 30.2402 31.9846 30.3607 31.8551 30.4564C31.7256 30.5522 31.5785 30.6214 31.4221 30.66C31.2658 30.6985 31.1033 30.7057 30.9441 30.6811C30.785 30.6565 30.6323 30.6007 30.4949 30.5167C28.0173 29.1415 25.2006 28.4969 22.3715 28.6577C17.971 28.5634 14.5292 29.7424 12.1193 32.1303C8.21935 35.9937 8.22747 41.8592 8.22828 41.9185C8.23154 42.2413 8.10657 42.5522 7.88082 42.783C7.65507 43.0138 7.34697 43.1456 7.02416 43.1494L7.00953 43.1486Z" fill="url(#paint0_linear_246_866)"/>
</g>
<defs>
<linearGradient id="paint0_linear_246_866" x1="5.79053" y1="11.9853" x2="50.505" y2="32.5063" gradientUnits="userSpaceOnUse">
<stop stop-color="#2F80ED"/>
<stop offset="1" stop-color="#DE19DF"/>
</linearGradient>
</defs>
</svg>
