<svg width="32" height="32" viewBox="0 0 32 32" fill="none" xmlns="http://www.w3.org/2000/svg">
<g id="architecture" clip-path="url(#clip0_246_782)">
<path id="Vector" d="M21.313 1.94312V5.81812H2.437C1.79099 5.8197 1.17189 6.0771 0.715183 6.534C0.258471 6.9909 0.00132463 7.6101 4.38937e-06 8.25611V26.6601C-0.000152038 26.6974 0.00387305 26.7347 0.0120044 26.7711C0.0404974 27.3959 0.308173 27.9857 0.7596 28.4185C1.21103 28.8513 1.81162 29.0939 2.437 29.0961H3.907V25.2231H22.78C23.4262 25.2218 24.0455 24.9645 24.5025 24.5076C24.9594 24.0507 25.2167 23.4313 25.218 22.7851V4.38112C25.2167 3.73492 24.9594 3.11558 24.5025 2.65865C24.0455 2.20172 23.4262 1.94444 22.78 1.94312H21.313ZM22.313 2.94312H22.781C23.586 2.94312 24.219 3.57612 24.219 4.38112V20.9431C23.806 20.6231 23.341 20.3481 22.781 20.3481H22.313V2.94312ZM26.656 6.78712C26.5234 6.78712 26.3962 6.83979 26.3025 6.93356C26.2087 7.02733 26.156 7.15451 26.156 7.28712V24.7231C26.156 24.8557 26.2087 24.9829 26.3025 25.0767C26.3962 25.1704 26.5234 25.2231 26.656 25.2231H31.5C31.6326 25.2231 31.7598 25.1704 31.8536 25.0767C31.9473 24.9829 32 24.8557 32 24.7231V7.28712C32 7.15451 31.9473 7.02733 31.8536 6.93356C31.7598 6.83979 31.6326 6.78712 31.5 6.78712H26.656ZM2.438 6.81812H21.313V21.3481H22.781C23.586 21.3481 24.219 21.9801 24.219 22.7851C24.219 23.5901 23.586 24.2231 22.781 24.2231H2.437C1.899 24.2231 1.404 24.4031 1 24.7011V8.25611C1 7.45112 1.632 6.81812 2.438 6.81812ZM27.156 7.78812H31V24.2231H27.156V23.2851H29.078V22.2851H27.156V21.3481H28.109V20.3481H27.156V19.4101H29.078V18.4101H27.156V17.4731H28.109V16.4731H27.156V15.5351H29.078V14.5351H27.156V13.5981H28.109V12.5981H27.156V11.6621H29.078V10.6621H27.156V9.72512H28.109V8.72512H27.156V7.78812ZM4.375 8.72512C4.2424 8.72512 4.11522 8.77779 4.02145 8.87156C3.92768 8.96533 3.875 9.09251 3.875 9.22512V21.8161C3.875 21.9487 3.92768 22.0759 4.02145 22.1697C4.11522 22.2634 4.2424 22.3161 4.375 22.3161H18.906C19.0386 22.3161 19.1658 22.2634 19.2596 22.1697C19.3533 22.0759 19.406 21.9487 19.406 21.8161V9.22512C19.406 9.09251 19.3533 8.96533 19.2596 8.87156C19.1658 8.77779 19.0386 8.72512 18.906 8.72512H8.734V9.72512H10.656V12.6151H11.656V9.72512H18.406V15.5041H15.531V11.6461H14.531V15.5041H12.61V16.5041H18.407V21.3161H17.47V17.9411C17.47 17.8085 17.4173 17.6813 17.3236 17.5876C17.2298 17.4938 17.1026 17.4411 16.97 17.4411H13.095C12.9624 17.4411 12.8352 17.4938 12.7415 17.5876C12.6477 17.6813 12.595 17.8085 12.595 17.9411V21.3161H11.657V14.6001H10.657V21.3161H4.875V17.4731H8.735V16.4731H4.875V9.72512H6.797V8.72512H4.375ZM13.594 18.4411H16.469V21.3161H13.594V18.4411ZM2.438 25.2231H2.905V28.0961H2.436C1.631 28.0961 0.999004 27.4661 0.999004 26.6601C0.999004 25.8551 1.632 25.2231 2.438 25.2231ZM18.414 26.1501L10.18 26.1801C10.1582 26.1807 10.1365 26.1827 10.115 26.1861C10.1033 26.1874 10.0916 26.189 10.08 26.1911C10.0669 26.1939 10.0539 26.1973 10.041 26.2011C10.0357 26.2024 10.0303 26.2037 10.025 26.2051C10.0193 26.207 10.0136 26.209 10.008 26.2111C9.99992 26.2142 9.99192 26.2176 9.984 26.2211C9.97488 26.2252 9.96587 26.2295 9.957 26.2341C9.94923 26.2379 9.94157 26.2419 9.934 26.2461L7.054 27.6931C6.97103 27.735 6.90139 27.7993 6.8529 27.8786C6.80442 27.9579 6.77901 28.0492 6.77953 28.1422C6.78005 28.2351 6.80648 28.3261 6.85584 28.4049C6.90521 28.4837 6.97557 28.5471 7.059 28.5881L9.973 30.0281C10.079 30.0796 10.1998 30.092 10.314 30.0631H18.426C18.4648 30.0629 18.5033 30.0582 18.541 30.0491H19.412C20.315 30.0491 21.093 29.3491 21.09 28.4551L21.086 27.7301C21.082 26.8331 20.298 26.1481 19.402 26.1501H18.416C18.4153 26.1501 18.4147 26.1501 18.414 26.1501ZM17.918 27.1501V27.1521L17.92 27.6321L10.686 27.6151L10.684 27.1781L17.918 27.1501ZM18.918 27.1501H19.402C19.798 27.1501 20.085 27.4281 20.086 27.7341L20.09 28.4591C20.091 28.7691 19.817 29.0491 19.412 29.0491H18.924L18.922 28.1601L18.918 27.1501ZM9.686 27.4901L9.688 28.0981L9.689 28.7731L8.4 28.1351L9.686 27.4901ZM10.689 28.6151L17.922 28.6331L17.924 29.0631H10.69L10.688 28.6151H10.689Z" fill="url(#paint0_linear_246_782)"/>
</g>
<defs>
<linearGradient id="paint0_linear_246_782" x1="4.24785e-08" y1="6.91825" x2="32.6244" y2="25.1892" gradientUnits="userSpaceOnUse">
<stop stop-color="#2F80ED"/>
<stop offset="1" stop-color="#DE19DF"/>
</linearGradient>
<clipPath id="clip0_246_782">
<rect width="32" height="32" fill="white"/>
</clipPath>
</defs>
</svg>
