<svg width="32" height="32" viewBox="0 0 32 32" fill="none" xmlns="http://www.w3.org/2000/svg">
<g id="assistance">
<path id="Vector" d="M28.2923 15.7407C28.2184 14.7986 27.5304 14.0884 26.6923 14.0884C25.809 14.0884 25.0904 14.8997 25.0904 15.9242L25.1492 19.6334C25.1492 19.9289 25.1365 20.1906 25.1163 20.4273C24.8259 20.1153 24.4372 19.9322 24.0273 19.9322C23.5859 19.9322 23.1629 20.1378 22.8725 20.4908L22.025 21.488C20.8189 22.9162 20.2655 24.3604 20.2297 26.1698C20.2245 26.4296 20.4311 26.6447 20.6909 26.6498C20.6942 26.6498 20.697 26.6498 20.7003 26.6498C20.9558 26.6498 21.1657 26.4451 21.1709 26.1887C21.2024 24.5887 21.673 23.3642 22.7431 22.0969L23.5944 21.095C23.8297 20.8103 24.2208 20.8047 24.4655 21.1007C24.753 21.439 24.753 22.0324 24.465 22.3713L23.4019 23.6258C23.2339 23.8244 23.2584 24.1214 23.4565 24.2889C23.6551 24.4574 23.9525 24.432 24.1196 24.2343L25.1554 23.0122C25.4062 22.7981 26.0909 21.9976 26.0909 19.6268L26.0321 15.8969C26.0321 15.4273 26.3351 15.0301 26.6928 15.0301C27.0292 15.0301 27.3201 15.3746 27.3544 15.8136C27.3963 16.3567 27.4372 16.8677 27.4763 17.3548C27.5874 18.7374 27.6833 19.9317 27.7318 21.1035C27.7422 21.3633 27.9582 21.5731 28.2212 21.5543C28.481 21.544 28.6824 21.3247 28.6721 21.0649C28.6231 19.8748 28.5266 18.672 28.4146 17.279C28.3751 16.7929 28.3342 16.2833 28.2923 15.7407ZM27.9012 26.2418C28.4099 25.3138 28.6866 24.2597 28.7012 23.1929C28.705 22.9331 28.497 22.7195 28.2372 22.7157C28.2349 22.7157 28.2325 22.7157 28.2306 22.7157C27.9737 22.7157 27.7638 22.9218 27.7601 23.1797C27.7478 24.0931 27.5111 24.9957 27.0763 25.7887L25.3676 28.8913C25.1351 29.2546 24.9582 29.6682 24.8476 30.1049H21.4321C21.3963 29.1506 21.3464 28.4371 21.281 27.9331C21.2476 27.6753 21.0114 27.4917 20.7539 27.5275C20.4961 27.5609 20.3144 27.7967 20.3483 28.0546C20.4198 28.6047 20.4721 29.4343 20.5069 30.5901C20.5149 30.8442 20.7234 31.0466 20.9775 31.0466H25.2311C25.4626 31.0466 25.6598 30.8781 25.6961 30.6489C25.7671 30.1948 25.9281 29.7623 26.1765 29.3722L27.9012 26.2418ZM9.97417 21.487L9.13229 20.4964C8.83723 20.1378 8.41464 19.9327 7.97276 19.9327C7.561 19.9327 7.17041 20.1171 6.88335 20.4273C6.86358 20.1924 6.85088 19.9331 6.85088 19.6414L6.9097 15.8969C6.9097 14.9002 6.19111 14.0889 5.30782 14.0889C4.4697 14.0889 3.7817 14.799 3.70782 15.7421C3.66641 16.2814 3.62547 16.7896 3.58641 17.2738C3.47205 18.6955 3.37323 19.9242 3.32523 21.1416C3.31535 21.4014 3.51723 21.6202 3.777 21.6301C4.04147 21.6503 4.25605 21.4386 4.26547 21.1783C4.31253 19.9802 4.41088 18.7609 4.52429 17.3491C4.56335 16.864 4.60476 16.3553 4.64617 15.8146C4.68053 15.3746 4.97088 15.0301 5.30782 15.0301C5.66594 15.0301 5.96853 15.4273 5.96853 15.9101L5.9097 19.6338C5.9097 21.9971 6.59394 22.7971 6.84476 23.0117L7.88053 24.2343C8.04758 24.432 8.345 24.4578 8.54358 24.2889C8.7417 24.1214 8.76664 23.8244 8.59817 23.6258L7.53464 22.3708C7.24711 22.0324 7.24711 21.439 7.53935 21.095C7.77464 20.8103 8.1657 20.8047 8.41041 21.1007L9.25558 22.0955C10.2546 23.2795 10.7361 24.4503 10.8179 25.8927C10.8316 26.143 11.0396 26.3364 11.2871 26.3364C11.2965 26.3364 11.305 26.336 11.3144 26.3355C11.5737 26.3209 11.7723 26.0988 11.7572 25.839C11.6645 24.1797 11.1144 22.8381 9.97417 21.487ZM11.2462 27.527C10.9855 27.4917 10.7525 27.6748 10.7191 27.9327C10.6532 28.4367 10.6038 29.1501 10.5681 30.1044H7.15253C7.04241 29.6691 6.86829 29.2602 6.64805 28.9176L4.92429 25.7896C4.489 24.9957 4.25229 24.0936 4.24005 23.1797C4.23629 22.9218 4.02641 22.7157 3.76947 22.7157C3.76758 22.7157 3.76523 22.7157 3.76288 22.7157C3.50264 22.7195 3.29511 22.9331 3.29888 23.1929C3.31347 24.2602 3.59017 25.3143 4.09935 26.2428L5.83911 29.3986C6.07206 29.7618 6.233 30.1943 6.30405 30.6484C6.34029 30.8771 6.53747 31.0461 6.769 31.0461H11.0226C11.2768 31.0461 11.4852 30.8437 11.4932 30.5896C11.5281 29.4338 11.5803 28.6042 11.6518 28.0541C11.6857 27.7962 11.5041 27.5604 11.2462 27.527ZM25.1243 8.44938H23.9864C23.7746 4.89785 21.1859 1.84702 17.6744 1.09644C17.4203 1.04044 17.1699 1.2042 17.1158 1.45832C17.0612 1.71244 17.2236 1.96232 17.4777 2.01644C20.7116 2.7082 23.0589 5.61173 23.0589 8.91996V12.6847C23.0589 12.9449 23.2692 13.1553 23.5295 13.1553H25.1243C25.8881 13.1553 26.5097 12.5336 26.5097 11.7698V9.83526C26.5097 9.07102 25.8881 8.44938 25.1243 8.44938ZM25.5685 11.7698C25.5685 12.015 25.369 12.2141 25.1243 12.2141H24.0001V9.39055H25.1243C25.3695 9.39055 25.5685 9.59008 25.5685 9.83479V11.7698Z" fill="url(#paint0_linear_111_4115)"/>
<path id="Vector_2" d="M13.598 18.2973C13.6601 18.3246 13.7246 18.3373 13.7876 18.3373C13.9688 18.3373 14.1406 18.2328 14.2187 18.0568C14.3236 17.8192 14.2159 17.5411 13.9782 17.4361C13.0422 17.0225 12.2794 16.3416 11.758 15.5081H14.1844C14.3947 16.318 15.1251 16.9199 15.9999 16.9199C17.038 16.9199 17.8822 16.0757 17.8822 15.0376C17.8822 13.9994 17.038 13.1552 15.9999 13.1552C15.1251 13.1552 14.3947 13.7571 14.1844 14.567H11.2982C11.1015 14.0277 10.9942 13.4503 10.9942 12.8559V9.94296C11.1801 9.95284 11.4088 9.96037 11.6728 9.96037C13.0267 9.96037 15.2945 9.7599 17.3293 8.63096C17.8446 8.9999 19.0752 9.71096 21.0055 9.91332V12.8559C21.0055 13.1161 21.2159 13.3265 21.4761 13.3265C21.7364 13.3265 21.9467 13.1161 21.9467 12.8559V8.74861C21.9467 5.46955 19.2789 2.80179 15.9999 2.80179C12.7208 2.80179 10.0531 5.46955 10.0531 8.74861V12.8559C10.0531 13.4136 10.1335 13.9576 10.2813 14.478C9.50859 14.2437 8.94106 13.5331 8.94106 12.6846V9.14014C8.94106 5.41261 11.7425 2.22955 15.3189 1.89402C15.5778 1.86955 15.7674 1.6399 15.7434 1.38108C15.7189 1.12273 15.4926 0.931198 15.2305 0.956609C11.3994 1.31708 8.35329 4.54532 8.02812 8.44979H6.87565C6.11188 8.44979 5.49023 9.07143 5.49023 9.8352V11.7698C5.49023 12.5336 6.11188 13.1552 6.87565 13.1552H8.04223C8.25965 14.4418 9.34765 15.4328 10.678 15.5006C11.2851 16.7208 12.302 17.7241 13.598 18.2973ZM15.9999 14.0964C16.5189 14.0964 16.9411 14.5185 16.9411 15.0376C16.9411 15.5566 16.5189 15.9787 15.9999 15.9787C15.4808 15.9787 15.0587 15.5566 15.0587 15.0376C15.0587 14.5185 15.4808 14.0964 15.9999 14.0964ZM6.43141 11.7698V9.8352C6.43141 9.59002 6.63094 9.39096 6.87565 9.39096H7.99988V12.2145H6.87565C6.63094 12.214 6.43141 12.0145 6.43141 11.7698ZM15.9999 3.74343C18.7599 3.74343 21.0055 5.98861 21.0055 8.74908V8.97355C18.8187 8.71849 17.6982 7.7279 17.6879 7.71849C17.534 7.5759 17.3044 7.55379 17.1255 7.66202C14.8328 9.05073 12.0305 9.05308 10.9947 8.99802V8.74955C10.9942 5.98908 13.2399 3.74343 15.9999 3.74343ZM20.734 14.487C20.0385 16.5048 18.1364 17.8611 15.9999 17.8611C15.7396 17.8611 15.5293 18.0714 15.5293 18.3317C15.5293 18.5919 15.7396 18.8023 15.9999 18.8023C18.5378 18.8023 20.7975 17.191 21.6234 14.7928C21.7081 14.5477 21.5773 14.2794 21.3316 14.1947C21.0884 14.11 20.8182 14.2408 20.734 14.487Z" fill="url(#paint1_linear_111_4115)"/>
</g>
<defs>
<linearGradient id="paint0_linear_111_4115" x1="3.29883" y1="6.38345" x2="32.2703" y2="18.4785" gradientUnits="userSpaceOnUse">
<stop stop-color="#2F80ED"/>
<stop offset="1" stop-color="#DE19DF"/>
</linearGradient>
<linearGradient id="paint1_linear_111_4115" x1="5.49023" y1="4.11038" x2="23.7634" y2="12.4066" gradientUnits="userSpaceOnUse">
<stop stop-color="#2F80ED"/>
<stop offset="1" stop-color="#DE19DF"/>
</linearGradient>
</defs>
</svg>
