<svg width="415" height="156" viewBox="0 0 415 156" fill="none" xmlns="http://www.w3.org/2000/svg">
<path d="M2 0.5C1.17157 0.5 0.5 1.17157 0.5 2C0.5 2.82843 1.17157 3.5 2 3.5V0.5ZM401.939 155.061C402.525 155.646 403.475 155.646 404.061 155.061L413.607 145.515C414.192 144.929 414.192 143.979 413.607 143.393C413.021 142.808 412.071 142.808 411.485 143.393L403 151.879L394.515 143.393C393.929 142.808 392.979 142.808 392.393 143.393C391.808 143.979 391.808 144.929 392.393 145.515L401.939 155.061ZM11.425 3.5C12.2534 3.5 12.925 2.82843 12.925 2C12.925 1.17157 12.2534 0.5 11.425 0.5V3.5ZM30.275 0.5C29.4466 0.5 28.775 1.17157 28.775 2C28.775 2.82843 29.4466 3.5 30.275 3.5V0.5ZM49.125 3.5C49.9534 3.5 50.625 2.82843 50.625 2C50.625 1.17157 49.9534 0.5 49.125 0.5V3.5ZM67.975 0.5C67.1466 0.5 66.475 1.17157 66.475 2C66.475 2.82843 67.1466 3.5 67.975 3.5V0.5ZM86.825 3.5C87.6534 3.5 88.325 2.82843 88.325 2C88.325 1.17157 87.6534 0.5 86.825 0.5V3.5ZM105.675 0.5C104.847 0.5 104.175 1.17157 104.175 2C104.175 2.82843 104.847 3.5 105.675 3.5V0.5ZM124.525 3.5C125.353 3.5 126.025 2.82843 126.025 2C126.025 1.17157 125.353 0.5 124.525 0.5V3.5ZM143.375 0.5C142.547 0.5 141.875 1.17157 141.875 2C141.875 2.82843 142.547 3.5 143.375 3.5V0.5ZM162.225 3.5C163.053 3.5 163.725 2.82843 163.725 2C163.725 1.17157 163.053 0.5 162.225 0.5V3.5ZM181.075 0.5C180.247 0.5 179.575 1.17157 179.575 2C179.575 2.82843 180.247 3.5 181.075 3.5V0.5ZM199.925 3.5C200.753 3.5 201.425 2.82843 201.425 2C201.425 1.17157 200.753 0.5 199.925 0.5V3.5ZM218.775 0.5C217.947 0.5 217.275 1.17157 217.275 2C217.275 2.82843 217.947 3.5 218.775 3.5V0.5ZM237.625 3.5C238.453 3.5 239.125 2.82843 239.125 2C239.125 1.17157 238.453 0.5 237.625 0.5V3.5ZM256.475 0.5C255.647 0.5 254.975 1.17157 254.975 2C254.975 2.82843 255.647 3.5 256.475 3.5V0.5ZM275.325 3.5C276.153 3.5 276.825 2.82843 276.825 2C276.825 1.17157 276.153 0.5 275.325 0.5V3.5ZM294.175 0.5C293.347 0.5 292.675 1.17157 292.675 2C292.675 2.82843 293.347 3.5 294.175 3.5V0.5ZM313.025 3.5C313.853 3.5 314.525 2.82843 314.525 2C314.525 1.17157 313.853 0.5 313.025 0.5V3.5ZM331.875 0.5C331.047 0.5 330.375 1.17157 330.375 2C330.375 2.82843 331.047 3.5 331.875 3.5V0.5ZM350.725 3.5C351.553 3.5 352.225 2.82843 352.225 2C352.225 1.17157 351.553 0.5 350.725 0.5V3.5ZM369.575 0.5C368.747 0.5 368.075 1.17157 368.075 2C368.075 2.82843 368.747 3.5 369.575 3.5V0.5ZM387.612 5.20672C388.378 5.52405 389.255 5.16095 389.572 4.39571C389.89 3.63047 389.527 2.75288 388.761 2.43554L387.612 5.20672ZM402.564 16.2385C402.247 15.4733 401.37 15.1102 400.604 15.4275C399.839 15.7448 399.476 16.6224 399.793 17.3877L402.564 16.2385ZM401.5 34C401.5 34.8284 402.172 35.5 403 35.5C403.828 35.5 404.5 34.8284 404.5 34H401.5ZM404.5 50C404.5 49.1716 403.828 48.5 403 48.5C402.172 48.5 401.5 49.1716 401.5 50H404.5ZM401.5 66C401.5 66.8284 402.172 67.5 403 67.5C403.828 67.5 404.5 66.8284 404.5 66H401.5ZM404.5 82C404.5 81.1716 403.828 80.5 403 80.5C402.172 80.5 401.5 81.1716 401.5 82H404.5ZM401.5 98C401.5 98.8284 402.172 99.5 403 99.5C403.828 99.5 404.5 98.8284 404.5 98H401.5ZM404.5 114C404.5 113.172 403.828 112.5 403 112.5C402.172 112.5 401.5 113.172 401.5 114H404.5ZM401.5 130C401.5 130.828 402.172 131.5 403 131.5C403.828 131.5 404.5 130.828 404.5 130H401.5ZM404.5 146C404.5 145.172 403.828 144.5 403 144.5C402.172 144.5 401.5 145.172 401.5 146H404.5ZM2 3.5H11.425V0.5H2V3.5ZM30.275 3.5H49.125V0.5H30.275V3.5ZM67.975 3.5H86.825V0.5H67.975V3.5ZM105.675 3.5H124.525V0.5H105.675V3.5ZM143.375 3.5H162.225V0.5H143.375V3.5ZM181.075 3.5H199.925V0.5H181.075V3.5ZM218.775 3.5H237.625V0.5H218.775V3.5ZM256.475 3.5H275.325V0.5H256.475V3.5ZM294.175 3.5H313.025V0.5H294.175V3.5ZM331.875 3.5H350.725V0.5H331.875V3.5ZM369.575 3.5H379V0.5H369.575V3.5ZM379 3.5C382.054 3.5 384.961 4.10746 387.612 5.20672L388.761 2.43554C385.753 1.18787 382.455 0.5 379 0.5V3.5ZM399.793 17.3877C400.893 20.0385 401.5 22.9464 401.5 26H404.5C404.5 22.5452 403.812 19.2472 402.564 16.2385L399.793 17.3877ZM401.5 26V34H404.5V26H401.5ZM401.5 50V66H404.5V50H401.5ZM401.5 82V98H404.5V82H401.5ZM401.5 114V130H404.5V114H401.5ZM401.5 146V154H404.5V146H401.5Z" fill="url(#paint0_linear_114_4879)"/>
<defs>
<linearGradient id="paint0_linear_114_4879" x1="2" y1="28.8781" x2="201.834" y2="288.468" gradientUnits="userSpaceOnUse">
<stop stop-color="#2F80ED"/>
<stop offset="1" stop-color="#DE19DF"/>
</linearGradient>
</defs>
</svg>
