<svg width="32" height="32" viewBox="0 0 32 32" fill="none" xmlns="http://www.w3.org/2000/svg">
<g id="cost">
<path id="Vector" d="M18.0278 28.2244H2.90283V3.53687H21.6807V16.5056" stroke="url(#paint0_linear_246_1255)" stroke-miterlimit="10" stroke-linecap="round" stroke-linejoin="round"/>
<path id="Vector_2" d="M5.15625 1.66187H23.9342V15.5369M25.9084 28.9923L23.6217 30.4166L21.335 28.9923C19.2635 27.654 18.0279 25.4554 18.0279 23.1077V17.5549L19.1382 18.0434C20.2472 18.4781 21.4991 18.4706 22.6019 18.0224L23.6217 17.5549L24.7382 18.0447C25.8477 18.4786 27.0997 18.4699 28.2021 18.0209L29.2154 17.5549V23.1078C29.2154 25.4554 27.9798 27.654 25.9084 28.9923Z" stroke="url(#paint1_linear_246_1255)" stroke-miterlimit="10" stroke-linecap="round" stroke-linejoin="round"/>
<path id="Vector_3" d="M21.2432 23.7731L22.5188 25.0487L26.2391 21.3284M16.1701 15.5369H18.2778M13.3642 15.5369H14.6445M6.21533 15.5369H11.7367M10.3017 18.4119H15.9653M6.21533 18.4119H8.52933M14.7682 21.2869H15.9653M6.21533 21.2869H13.0195M6.21533 24.1619H10.4653" stroke="url(#paint2_linear_246_1255)" stroke-miterlimit="10" stroke-linecap="round" stroke-linejoin="round"/>
<path id="Vector_4" d="M12.8349 8.83468C11.9827 8.48693 11.8382 8.29749 11.8369 8.00437C11.8356 7.73212 12.0299 7.44024 12.5796 7.43756C13.1272 7.43487 13.4726 7.63 13.6201 7.71331C13.6478 7.729 13.6787 7.73848 13.7105 7.7411C13.7423 7.74372 13.7743 7.73942 13.8042 7.72849C13.8342 7.71756 13.8615 7.70026 13.8841 7.67779C13.9068 7.65531 13.9243 7.6282 13.9354 7.59831L14.1604 6.99556C14.198 6.89468 14.1551 6.78137 14.0621 6.72737C13.7431 6.5425 13.3646 6.43381 12.9822 6.39699L12.9789 5.48012C12.9783 5.35818 12.8836 5.26799 12.7617 5.26856L12.1965 5.27131C12.0746 5.27193 11.9956 5.36299 11.9961 5.48487L11.9997 6.46493C11.1271 6.67543 10.6177 7.30837 10.6217 8.11962C10.6266 9.1195 11.4142 9.56343 12.2674 9.89318C13.0532 10.2072 13.1602 10.4997 13.1616 10.769C13.1635 11.1713 12.8164 11.4433 12.2996 11.4458C11.8815 11.4479 11.4464 11.3206 11.1071 11.0967C11.079 11.0783 11.0472 11.0665 11.0139 11.0621C10.9806 11.0578 10.9468 11.0611 10.915 11.0718C10.8832 11.0825 10.8542 11.1002 10.8303 11.1238C10.8063 11.1473 10.7881 11.1759 10.7769 11.2076L10.561 11.8194C10.5282 11.9125 10.5481 12.0161 10.6287 12.0731C10.9458 12.2973 11.4283 12.4557 11.9199 12.4974L11.9234 13.2259C11.9241 13.3478 12.0494 13.4459 12.1713 13.4454L12.7456 13.4426C12.8676 13.4419 12.9615 13.3427 12.9609 13.2208L12.9571 12.4357C13.8297 12.2162 14.3952 11.5378 14.3911 10.6992C14.3882 10.1217 14.2107 9.38787 12.8349 8.83468Z" fill="url(#paint3_linear_246_1255)"/>
</g>
<defs>
<linearGradient id="paint0_linear_246_1255" x1="2.90283" y1="7.90234" x2="24.9579" y2="16.1626" gradientUnits="userSpaceOnUse">
<stop stop-color="#2F80ED"/>
<stop offset="1" stop-color="#DE19DF"/>
</linearGradient>
<linearGradient id="paint1_linear_246_1255" x1="5.15625" y1="6.74654" x2="32.7025" y2="18.0954" gradientUnits="userSpaceOnUse">
<stop stop-color="#2F80ED"/>
<stop offset="1" stop-color="#DE19DF"/>
</linearGradient>
<linearGradient id="paint2_linear_246_1255" x1="6.21533" y1="17.2188" x2="19.1425" y2="30.6189" gradientUnits="userSpaceOnUse">
<stop stop-color="#2F80ED"/>
<stop offset="1" stop-color="#DE19DF"/>
</linearGradient>
<linearGradient id="paint3_linear_246_1255" x1="10.5459" y1="6.71446" x2="15.4337" y2="7.84625" gradientUnits="userSpaceOnUse">
<stop stop-color="#2F80ED"/>
<stop offset="1" stop-color="#DE19DF"/>
</linearGradient>
</defs>
</svg>
