<svg width="32" height="32" viewBox="0 0 32 32" fill="none" xmlns="http://www.w3.org/2000/svg">
<g id="customizable" clip-path="url(#clip0_246_411)">
<path id="Vector" d="M15.9999 9.88917C17.8789 9.88917 19.5617 10.7417 20.6834 12.0799L21.5047 11.4989C20.2007 9.90592 18.2192 8.88892 15.9999 8.88892C12.0727 8.88892 8.88867 12.0727 8.88867 15.9999C8.88867 19.9272 12.0727 23.1112 15.9999 23.1112C19.3699 23.1112 22.1907 20.7662 22.9237 17.6192L21.5244 18.6102C20.5437 20.6774 18.4364 22.1112 15.9999 22.1112C12.6302 22.1112 9.88867 19.3697 9.88867 15.9999C9.88867 12.6304 12.6302 9.88917 15.9999 9.88917Z" fill="url(#paint0_linear_246_411)"/>
<path id="Vector_2" d="M30.4198 13.3333H28.974L27.5627 14.3333H30.4198C30.734 14.3333 31 14.69 31 15.1123V16.8888C31 17.3105 30.734 17.667 30.4198 17.667H27.35L27.1785 18.4538C26.8902 19.7741 26.3683 21.0323 25.6375 22.169L25.2033 22.8465L25.7725 23.4158L27.3755 25.0187C27.4955 25.1382 27.5128 25.2975 27.5058 25.4097C27.4943 25.6108 27.395 25.8183 27.2348 25.9788L25.9795 27.2348C25.806 27.4078 25.5837 27.5072 25.3697 27.5072C25.2697 27.5072 25.1278 27.4843 25.0182 27.3745L23.4153 25.772L22.8463 25.2033L22.1688 25.6375C21.032 26.3681 19.7739 26.8899 18.4538 27.1782L17.667 27.35V30.42C17.667 30.7342 17.3105 31 16.8885 31H15.1117C14.6897 31 14.3333 30.7342 14.3333 30.42V27.35L13.5463 27.1782C12.226 26.89 10.968 26.3682 9.83125 25.6375L9.15375 25.2033L8.58475 25.7722L6.98125 27.3755C6.8725 27.4842 6.7305 27.507 6.63025 27.507C6.4165 27.507 6.19425 27.4078 6.0215 27.2355L4.7655 25.979C4.60475 25.8183 4.506 25.6108 4.49425 25.41C4.4875 25.2975 4.50475 25.1385 4.6255 25.0182L6.228 23.4158L6.79675 22.8468L6.36275 22.1693C5.63193 21.0324 5.11006 19.7741 4.82175 18.4538L4.65025 17.667H1.5805C1.26575 17.667 1 17.3105 1 16.8888V15.1125C1 14.69 1.26575 14.3335 1.5805 14.3335H4.65L4.8215 13.5465C5.10974 12.2263 5.63162 10.9683 6.3625 9.83175L6.79675 9.15425L6.22775 8.585L4.62425 6.9815C4.5155 6.87325 4.49275 6.7315 4.49275 6.6315C4.49275 6.4175 4.59175 6.19575 4.76475 6.0225L6.02075 4.766C6.1945 4.59275 6.4165 4.49325 6.6305 4.49325C6.7305 4.49325 6.8725 4.516 6.98175 4.62575L8.58425 6.22825L9.1535 6.79725L9.831 6.36275C10.9676 5.63205 12.2258 5.1105 13.546 4.82275L14.333 4.6515V1.58C14.333 1.2655 14.6895 1 15.1115 1H16.8883C17.3103 1 17.6667 1.26575 17.6667 1.58V4.65125L18.4538 4.82275C19.7739 5.1106 21.0319 5.63214 22.1685 6.36275L22.846 6.79675L23.415 6.228L25.019 4.6245C25.1275 4.51575 25.2692 4.493 25.369 4.493C25.583 4.493 25.8053 4.5925 25.9783 4.76525L27.2348 6.0225C27.395 6.18275 27.494 6.39 27.5055 6.5905C27.5125 6.703 27.495 6.862 27.3748 6.98225L26.1348 8.2225L28.5042 6.5455C28.4823 6.1115 28.293 5.66625 27.9417 5.3155L26.6855 4.05825C26.311 3.684 25.8298 3.493 25.369 3.493C24.9747 3.493 24.5955 3.633 24.311 3.918L22.708 5.5205C21.4712 4.72627 20.1027 4.15906 18.6667 3.8455V1.58C18.6667 0.7075 17.8705 0 16.8883 0H15.1115C14.129 0 13.333 0.7075 13.333 1.58V3.8455C11.8969 4.15903 10.5283 4.72625 9.2915 5.5205L7.689 3.918C7.40425 3.633 7.025 3.493 6.6305 3.493C6.16975 3.493 5.68875 3.684 5.314 4.05825L4.0575 5.31525C3.36325 6.00975 3.3 7.07275 3.918 7.68925L5.5205 9.29175C4.72612 10.5286 4.15858 11.8972 3.8445 13.3333H1.5805C0.70725 13.3333 0 14.1293 0 15.1123V16.8888C0 17.8708 0.7075 18.667 1.5805 18.667H3.84475C4.15895 20.1031 4.72648 21.4717 5.52075 22.7087L3.91825 24.3113C3.30025 24.9278 3.3635 25.9902 4.05775 26.6857L5.31425 27.9425C5.68875 28.3162 6.17 28.507 6.63025 28.507C7.025 28.507 7.4045 28.367 7.689 28.082L9.29175 26.4795C10.5287 27.2738 11.8972 27.8414 13.3333 28.1555V30.42C13.3333 31.2925 14.1292 32 15.1117 32H16.8885C17.871 32 18.667 31.2925 18.667 30.42V28.1555C20.1029 27.8413 21.4714 27.2738 22.7083 26.4795L24.3113 28.082C24.5958 28.367 24.9752 28.507 25.3697 28.507C25.8302 28.507 26.3112 28.3162 26.6857 27.9425L27.9422 26.6857C28.6365 25.9902 28.6998 24.9278 28.0823 24.311L26.4795 22.7085C27.2738 21.4716 27.8413 20.103 28.1555 18.667H30.4198C31.2927 18.667 32 17.8708 32 16.8888V15.1125C32 14.1295 31.2925 13.3333 30.4198 13.3333Z" fill="url(#paint1_linear_246_411)"/>
<path id="Vector_3" d="M17.3414 15.6585C17.3212 15.6298 17.3017 15.6006 17.2829 15.571L15.3249 12.9198C15.2001 12.743 15.0349 12.5988 14.8429 12.499C14.651 12.3993 14.4379 12.347 14.2216 12.3465C13.9351 12.3465 13.6609 12.4365 13.4281 12.6065L12.5609 13.2405C11.9589 13.6803 11.8209 14.535 12.2584 15.153C12.2826 15.1865 14.7141 18.494 15.7761 20.0015C15.8849 20.1555 16.029 20.2812 16.1964 20.3679C16.3638 20.4547 16.5496 20.5 16.7381 20.5C16.9891 20.5 17.2371 20.4188 17.4549 20.265C22.1177 16.9653 26.7792 13.6639 31.4396 10.3608C32.0411 9.92075 32.1794 9.06625 31.7474 8.455L31.1231 7.57325C30.9984 7.39654 30.8332 7.25228 30.6413 7.15254C30.4494 7.05281 30.2364 7.0005 30.0201 7C29.7372 6.9993 29.4614 7.0887 29.2326 7.25525L17.6506 15.4518C17.5519 15.5269 17.4486 15.596 17.3414 15.6585ZM29.8161 8.0675C29.9711 7.95425 30.1961 7.99375 30.3066 8.15075L30.9311 9.0325C31.0494 9.20025 31.0129 9.434 30.8554 9.54925C30.8554 9.54925 19.6054 17.5218 16.8779 19.4483C16.8291 19.4825 16.7824 19.5 16.7384 19.5C16.7101 19.4997 16.6823 19.4927 16.6572 19.4798C16.6321 19.4669 16.6103 19.4483 16.5936 19.4255C15.5259 17.91 13.0884 14.594 13.0691 14.5683C13.0121 14.488 12.9887 14.3886 13.004 14.2914C13.0193 14.1941 13.072 14.1067 13.1509 14.0478L14.0184 13.4135C14.0784 13.3698 14.1486 13.3465 14.2216 13.3465C14.3361 13.3465 14.4406 13.4015 14.5146 13.5055L16.4481 16.1218C16.5354 16.258 16.6956 16.4873 16.8551 16.6078C16.9609 16.687 17.0904 16.729 17.2301 16.729C17.5609 16.729 17.9726 16.4658 18.2441 16.2565L29.8161 8.0675Z" fill="url(#paint2_linear_246_411)"/>
</g>
<defs>
<linearGradient id="paint0_linear_246_411" x1="8.88867" y1="11.4038" x2="24.095" y2="18.7928" gradientUnits="userSpaceOnUse">
<stop stop-color="#2F80ED"/>
<stop offset="1" stop-color="#DE19DF"/>
</linearGradient>
<linearGradient id="paint1_linear_246_411" x1="4.24785e-08" y1="5.65854" x2="34.4936" y2="22.6432" gradientUnits="userSpaceOnUse">
<stop stop-color="#2F80ED"/>
<stop offset="1" stop-color="#DE19DF"/>
</linearGradient>
<linearGradient id="paint2_linear_246_411" x1="12.0024" y1="9.3872" x2="29.4839" y2="22.1374" gradientUnits="userSpaceOnUse">
<stop stop-color="#2F80ED"/>
<stop offset="1" stop-color="#DE19DF"/>
</linearGradient>
<clipPath id="clip0_246_411">
<rect width="32" height="32" fill="white"/>
</clipPath>
</defs>
</svg>
