<svg width="48" height="48" viewBox="0 0 48 48" fill="none" xmlns="http://www.w3.org/2000/svg">
<g id="dashboard" clip-path="url(#clip0_111_4403)">
<path id="Vector" d="M44.7271 0.727051H3.27251C1.89069 0.727051 0.727051 1.89069 0.727051 3.27251V35.2725C0.727051 36.6543 1.89069 37.818 3.27251 37.818H18.4725L16.4361 42.9816H15.0543C13.8907 42.9816 12.9452 43.9271 12.9452 45.0907C12.9452 46.2543 13.818 47.2725 14.9816 47.2725H33.018C34.1816 47.2725 35.1271 46.327 35.1271 45.1634C35.1271 43.9998 34.1816 43.0543 33.018 43.0543H31.6361L29.5271 37.818H44.7271C46.1089 37.818 47.2725 36.6543 47.2725 35.2725V3.27251C47.2725 1.89069 46.1089 0.727051 44.7271 0.727051ZM3.27251 2.1816H44.7271C45.3089 2.1816 45.818 2.69069 45.818 3.27251V30.9816H2.1816V3.27251C2.1816 2.69069 2.69069 2.1816 3.27251 2.1816ZM33.7452 45.1634C33.7452 45.5271 33.4543 45.818 33.0907 45.818H14.9816C14.618 45.818 14.3271 45.5271 14.3271 45.1634C14.3271 44.7998 14.618 44.5089 14.9816 44.5089C21.6725 44.5089 26.2543 44.5089 33.018 44.5089C33.3816 44.4361 33.7452 44.7271 33.7452 45.1634ZM30.0361 42.9816H17.9634L19.9998 37.818H27.9998L30.0361 42.9816ZM44.7271 36.3634C31.6361 36.3634 16.3634 36.3634 3.27251 36.3634C2.69069 36.3634 2.1816 35.8543 2.1816 35.2725V32.4361H45.818V35.2725C45.818 35.8543 45.3089 36.3634 44.7271 36.3634Z" fill="white"/>
<path id="Vector_2" d="M25.8909 33.673H21.0909C20.6546 33.673 20.3636 33.9639 20.3636 34.4002C20.3636 34.8366 20.6546 35.1275 21.0909 35.1275H25.8909C26.9091 35.1275 26.9091 33.673 25.8909 33.673ZM7.41819 29.0911H11.2727C11.7091 29.0911 12 28.8002 12 28.3639V12.2911C12 11.8548 11.7091 11.5639 11.2727 11.5639H7.41819C6.98183 11.5639 6.69092 11.8548 6.69092 12.2911V28.3639C6.69092 28.8002 6.98183 29.0911 7.41819 29.0911ZM8.14546 13.0184H10.5455V27.6366H8.14546V13.0184ZM15.8546 29.0911H19.7091C20.1455 29.0911 20.4364 28.8002 20.4364 28.3639V20.8002C20.4364 20.3639 20.1455 20.073 19.7091 20.073H15.8546C15.4182 20.073 15.1273 20.3639 15.1273 20.8002V28.3639C15.1273 28.8002 15.4182 29.0911 15.8546 29.0911ZM16.5818 21.5275H18.9818V27.6366H16.5818V21.5275ZM24.2909 29.0911H28.1455C28.5818 29.0911 28.8727 28.8002 28.8727 28.3639V17.0184C28.8727 16.5821 28.5818 16.2911 28.1455 16.2911H24.2909C23.8546 16.2911 23.5636 16.5821 23.5636 17.0184V28.3639C23.5636 28.8002 23.9273 29.0911 24.2909 29.0911ZM25.0182 17.7457H27.4182V27.6366H25.0182V17.7457ZM36.5818 23.4184H32.7273C32.2909 23.4184 32 23.7093 32 24.1457V28.3639C32 28.8002 32.2909 29.0911 32.7273 29.0911H36.5818C37.0182 29.0911 37.3091 28.8002 37.3091 28.3639V24.1457C37.3091 23.7821 37.0182 23.4184 36.5818 23.4184ZM35.8546 27.6366H33.4546V24.873H35.8546V27.6366ZM33.1636 16.8002C33.8182 16.8002 34.4727 16.7275 35.0546 16.5093L37.6727 20.2184C38.3273 21.0911 39.5636 21.3093 40.4364 20.6548C41.3091 20.0002 41.5273 18.7639 40.9455 17.8911L38.3273 14.1821C41.1636 10.3275 38.9818 4.80023 34.2546 4.00023C30.7636 3.41842 27.4182 5.74569 26.8364 9.2366C26.1818 13.2366 29.2364 16.8002 33.1636 16.8002ZM39.6364 19.4911C39.4182 19.6366 39.0546 19.6366 38.9091 19.3457L36.4364 15.8548C36.5818 15.7821 36.7273 15.7093 36.8727 15.5639C37.0182 15.4911 37.1636 15.3457 37.3091 15.2002L39.7818 18.6911C39.9273 19.0548 39.9273 19.3457 39.6364 19.4911ZM34.0364 5.45478C34.9091 5.60023 35.7091 6.0366 36.3636 6.54569L33.3091 9.60023L30.9091 5.96387C31.8546 5.45478 32.9455 5.30933 34.0364 5.45478ZM28.2909 9.52751C28.4364 8.4366 28.9455 7.56387 29.7455 6.76387L32.5818 11.1275C32.8 11.4911 33.3818 11.5639 33.6727 11.273L37.3091 7.6366C38.7636 9.89114 38.2546 12.873 36 14.4002C32.4364 17.0184 27.5636 13.8911 28.2909 9.52751Z" fill="white"/>
</g>
<defs>
<clipPath id="clip0_111_4403">
<rect width="48" height="48" fill="white"/>
</clipPath>
</defs>
</svg>
