<svg width="28" height="28" viewBox="0 0 28 28" fill="none" xmlns="http://www.w3.org/2000/svg">
<path d="M20.2299 6.36967C19.953 6.36967 19.6824 6.45178 19.4521 6.60562C19.2219 6.75945 19.0424 6.9781 18.9365 7.23392C18.8305 7.48973 18.8028 7.77123 18.8568 8.0428C18.9108 8.31437 19.0442 8.56383 19.24 8.75962C19.4358 8.95542 19.6852 9.08875 19.9568 9.14277C20.2284 9.19679 20.5099 9.16907 20.7657 9.06311C21.0215 8.95714 21.2401 8.7777 21.394 8.54747C21.5478 8.31724 21.6299 8.04657 21.6299 7.76967C21.6299 7.39837 21.4824 7.04228 21.2199 6.77973C20.9573 6.51717 20.6012 6.36967 20.2299 6.36967ZM25.5966 9.19301C25.5739 8.22502 25.3926 7.26731 25.0599 6.35801C24.7633 5.58 24.3016 4.8755 23.7066 4.29301C23.1289 3.695 22.4227 3.23621 21.6416 2.95134C20.7347 2.60853 19.7759 2.42309 18.8066 2.40301C17.5699 2.33301 17.1733 2.33301 13.9999 2.33301C10.8266 2.33301 10.4299 2.33301 9.19325 2.40301C8.22393 2.42309 7.26515 2.60853 6.35825 2.95134C5.57854 3.2391 4.87301 3.6975 4.29325 4.29301C3.69525 4.87072 3.23646 5.57685 2.95159 6.35801C2.60877 7.26491 2.42333 8.22369 2.40325 9.19301C2.33325 10.4297 2.33325 10.8263 2.33325 13.9997C2.33325 17.173 2.33325 17.5697 2.40325 18.8063C2.42333 19.7757 2.60877 20.7344 2.95159 21.6413C3.23646 22.4225 3.69525 23.1286 4.29325 23.7063C4.87301 24.3019 5.57854 24.7603 6.35825 25.048C7.26515 25.3908 8.22393 25.5763 9.19325 25.5963C10.4299 25.6663 10.8266 25.6663 13.9999 25.6663C17.1733 25.6663 17.5699 25.6663 18.8066 25.5963C19.7759 25.5763 20.7347 25.3908 21.6416 25.048C22.4227 24.7631 23.1289 24.3043 23.7066 23.7063C24.3042 23.126 24.7663 22.4209 25.0599 21.6413C25.3926 20.732 25.5739 19.7743 25.5966 18.8063C25.5966 17.5697 25.6666 17.173 25.6666 13.9997C25.6666 10.8263 25.6666 10.4297 25.5966 9.19301ZM23.4966 18.6663C23.4881 19.4069 23.354 20.1407 23.0999 20.8363C22.9136 21.3441 22.6144 21.8028 22.2249 22.178C21.8465 22.5636 21.3887 22.8622 20.8833 23.053C20.1876 23.3071 19.4538 23.4412 18.7133 23.4497C17.5466 23.508 17.1149 23.5197 14.0466 23.5197C10.9783 23.5197 10.5466 23.5197 9.37992 23.4497C8.61096 23.4641 7.84528 23.3457 7.11659 23.0997C6.63333 22.8991 6.1965 22.6013 5.83325 22.2247C5.44602 21.8499 5.15057 21.3907 4.96992 20.883C4.68508 20.1774 4.5271 19.4269 4.50325 18.6663C4.50325 17.4997 4.43325 17.068 4.43325 13.9997C4.43325 10.9313 4.43325 10.4997 4.50325 9.33301C4.50848 8.57591 4.64669 7.82561 4.91159 7.11634C5.11697 6.6239 5.43223 6.18494 5.83325 5.83301C6.1877 5.43187 6.62575 5.11329 7.11659 4.89967C7.82773 4.64306 8.57725 4.50893 9.33325 4.50301C10.4999 4.50301 10.9316 4.43301 13.9999 4.43301C17.0683 4.43301 17.4999 4.43301 18.6666 4.50301C19.4072 4.5115 20.1409 4.64563 20.8366 4.89967C21.3668 5.09644 21.8426 5.41633 22.2249 5.83301C22.6072 6.19138 22.906 6.62953 23.0999 7.11634C23.3592 7.82676 23.4934 8.57675 23.4966 9.33301C23.5549 10.4997 23.5666 10.9313 23.5666 13.9997C23.5666 17.068 23.5549 17.4997 23.4966 18.6663ZM13.9999 8.01467C12.8167 8.01698 11.6607 8.36996 10.678 9.029C9.69532 9.68804 8.93003 10.6236 8.47883 11.7174C8.02762 12.8112 7.91076 14.0142 8.14301 15.1744C8.37526 16.3346 8.94619 17.4 9.78367 18.2358C10.6212 19.0717 11.6876 19.6405 12.8483 19.8705C14.0089 20.1005 15.2117 19.9813 16.3046 19.528C17.3976 19.0746 18.3316 18.3075 18.9887 17.3235C19.6459 16.3396 19.9966 15.1829 19.9966 13.9997C19.9981 13.2123 19.844 12.4324 19.543 11.7048C19.2421 10.9772 18.8002 10.3163 18.2429 9.76007C17.6856 9.20385 17.0239 8.7633 16.2957 8.46376C15.5675 8.16422 14.7873 8.0116 13.9999 8.01467ZM13.9999 17.8847C13.2315 17.8847 12.4804 17.6568 11.8415 17.2299C11.2026 16.803 10.7047 16.1963 10.4106 15.4864C10.1166 14.7765 10.0397 13.9954 10.1896 13.2417C10.3395 12.4881 10.7095 11.7959 11.2528 11.2526C11.7961 10.7092 12.4884 10.3392 13.242 10.1893C13.9956 10.0394 14.7768 10.1164 15.4866 10.4104C16.1965 10.7044 16.8033 11.2024 17.2302 11.8413C17.6571 12.4802 17.8849 13.2313 17.8849 13.9997C17.8849 14.5099 17.7844 15.0151 17.5892 15.4864C17.394 15.9578 17.1078 16.386 16.747 16.7468C16.3863 17.1075 15.958 17.3937 15.4866 17.5889C15.0153 17.7842 14.5101 17.8847 13.9999 17.8847Z" fill="white"/>
</svg>
