<svg width="28" height="28" viewBox="0 0 28 28" fill="none" xmlns="http://www.w3.org/2000/svg">
<g id="linkedin 1">
<path id="Vector" d="M23.8812 2.33317H4.11783C3.89567 2.33009 3.67508 2.37079 3.46866 2.45297C3.26223 2.53514 3.07402 2.65718 2.91476 2.8121C2.75551 2.96702 2.62833 3.1518 2.54049 3.35588C2.45265 3.55996 2.40588 3.77935 2.40283 4.0015V23.9982C2.40588 24.2203 2.45265 24.4397 2.54049 24.6438C2.62833 24.8479 2.75551 25.0326 2.91476 25.1876C3.07402 25.3425 3.26223 25.4645 3.46866 25.5467C3.67508 25.6289 3.89567 25.6696 4.11783 25.6665H23.8812C24.1033 25.6696 24.3239 25.6289 24.5303 25.5467C24.7368 25.4645 24.925 25.3425 25.0842 25.1876C25.2435 25.0326 25.3707 24.8479 25.4585 24.6438C25.5463 24.4397 25.5931 24.2203 25.5962 23.9982V4.0015C25.5931 3.77935 25.5463 3.55996 25.4585 3.35588C25.3707 3.1518 25.2435 2.96702 25.0842 2.8121C24.925 2.65718 24.7368 2.53514 24.5303 2.45297C24.3239 2.37079 24.1033 2.33009 23.8812 2.33317ZM9.43783 21.8632H5.93783V11.3632H9.43783V21.8632ZM7.68783 9.89317C7.20514 9.89317 6.74221 9.70142 6.4009 9.36011C6.05958 9.01879 5.86783 8.55587 5.86783 8.07317C5.86783 7.59048 6.05958 7.12755 6.4009 6.78624C6.74221 6.44492 7.20514 6.25317 7.68783 6.25317C7.94414 6.2241 8.2037 6.2495 8.44952 6.3277C8.69533 6.4059 8.92186 6.53514 9.11426 6.70696C9.30667 6.87878 9.46061 7.0893 9.56601 7.32473C9.67142 7.56017 9.7259 7.81522 9.7259 8.07317C9.7259 8.33113 9.67142 8.58617 9.56601 8.82161C9.46061 9.05705 9.30667 9.26757 9.11426 9.43938C8.92186 9.6112 8.69533 9.74044 8.44952 9.81864C8.2037 9.89684 7.94414 9.92224 7.68783 9.89317ZM22.0612 21.8632H18.5612V16.2282C18.5612 14.8165 18.0595 13.8948 16.7878 13.8948C16.3943 13.8977 16.0111 14.0212 15.6898 14.2485C15.3686 14.4759 15.1247 14.7963 14.9912 15.1665C14.8999 15.4407 14.8603 15.7295 14.8745 16.0182V21.8515H11.3745C11.3745 21.8515 11.3745 12.3082 11.3745 11.3515H14.8745V12.8332C15.1925 12.2815 15.6549 11.8269 16.212 11.5186C16.7691 11.2102 17.3998 11.0597 18.0362 11.0832C20.3695 11.0832 22.0612 12.5882 22.0612 15.8198V21.8632Z" fill="white"/>
</g>
</svg>
