<svg width="322" height="69" viewBox="0 0 322 69" fill="none" xmlns="http://www.w3.org/2000/svg">
<rect width="322" height="69" fill="#1E1E1E"/>
<g clip-path="url(#clip0_0_1)">
<rect width="1920" height="12925" transform="translate(-279 -6843)" fill="white"/>
<g clip-path="url(#clip1_0_1)">
<g opacity="0.14" filter="url(#filter0_f_0_1)">
<rect x="-279" y="-397" width="1920" height="908" fill="url(#paint0_linear_0_1)"/>
</g>
<rect x="-84" y="-89" width="490" height="245" rx="20" fill="white"/>
<path d="M51.5639 30.7538C50.6922 31.6308 50.0247 32.6893 49.6089 33.8535C49.193 35.018 49.0392 36.2598 49.1581 37.4905L49.1167 37.4491C49.239 38.8979 49.0435 40.3556 48.5442 41.7212C48.0449 43.0864 47.2537 44.3264 46.2258 45.3545C45.1977 46.3823 43.9578 47.1738 42.5923 47.6729C41.227 48.1722 39.769 48.3677 38.3205 48.2453L38.3619 48.2867C36.629 48.1255 34.8886 48.5025 33.3778 49.3666C31.8671 50.2307 30.6596 51.5396 29.9202 53.1151C29.1807 54.6906 28.945 56.4556 29.2454 58.1701C29.546 59.8842 30.3678 61.4641 31.5989 62.6942C32.8301 63.9242 34.4107 64.7446 36.1251 65.0434C37.8398 65.3424 39.6046 65.105 41.1794 64.3642C42.7542 63.6231 44.062 62.4147 44.9247 60.9032C45.7874 59.3916 46.163 57.6509 46.0002 55.9181L46.0439 55.9595C45.9215 54.511 46.1168 53.053 46.6161 51.6875C47.1154 50.3222 47.9069 49.0823 48.9347 48.0542C49.9628 47.0263 51.2028 46.2349 52.568 45.7358C53.9336 45.2365 55.3913 45.041 56.8401 45.1633L56.7964 45.1219C58.2118 45.2491 59.6366 45.017 60.9387 44.4471C62.2405 43.8772 63.3776 42.9878 64.2442 41.8614C65.1109 40.7351 65.6794 39.408 65.8965 38.0037C66.1139 36.599 65.9731 35.1625 65.4874 33.8266C65.0016 32.491 64.1865 31.2996 63.1177 30.3628C62.0489 29.426 60.7609 28.7742 59.3731 28.4679C57.9852 28.1615 56.5424 28.2103 55.1785 28.6098C53.8146 29.0095 52.5738 29.7469 51.5708 30.7538H51.5639Z" fill="#394149"/>
<path d="M34.5969 42.861L34.5532 42.8196C35.7844 42.9436 37.0278 42.7925 38.1936 42.3771C39.3593 41.9617 40.4182 41.2926 41.2936 40.4179C42.1687 39.5433 42.839 38.4848 43.255 37.3194C43.6713 36.154 43.8234 34.9108 43.7003 33.6794L43.744 33.7208C43.6216 32.272 43.8171 30.8143 44.3162 29.4488C44.8156 28.0835 45.607 26.8436 46.6349 25.8155C47.663 24.7876 48.9029 23.9962 50.2682 23.4971C51.6337 22.9977 53.0914 22.8023 54.5402 22.9246L54.4965 22.8832C56.2296 23.046 57.9704 22.6701 59.482 21.807C60.9938 20.9439 62.2022 19.6355 62.9428 18.0603C63.6834 16.4852 63.9201 14.7198 63.6206 13.0052C63.3211 11.2905 62.5 9.70998 61.2691 8.47916C60.0384 7.24836 58.4578 6.42717 56.7431 6.12766C55.0285 5.82813 53.2632 6.06483 51.688 6.80547C50.1127 7.5461 48.8045 8.75463 47.9413 10.2662C47.0781 11.7778 46.7023 13.5188 46.8651 15.2518L46.8237 15.2081C46.9463 16.6569 46.7513 18.1149 46.2522 19.4805C45.7531 20.846 44.9616 22.0862 43.9338 23.1144C42.9057 24.1422 41.6655 24.9337 40.3 25.4328C38.9342 25.9319 37.4763 26.1269 36.0275 26.0043L36.0689 26.048C34.8377 25.924 33.5941 26.0751 32.4285 26.4905C31.2628 26.9057 30.2039 27.575 29.3285 28.4497C28.4531 29.3244 27.7832 30.3828 27.3669 31.5482C26.9508 32.7136 26.7988 33.9568 26.9218 35.1882L26.8804 35.1468C27.0023 36.5953 26.8066 38.0531 26.3072 39.4184C25.8077 40.7834 25.0165 42.0233 23.9886 43.0512C22.9607 44.0791 21.7209 44.8703 20.3557 45.3699C18.9905 45.8692 17.5328 46.0649 16.0842 45.943L16.1256 45.9844C14.3926 45.8216 12.6516 46.1974 11.14 47.0606C9.62843 47.9238 8.41989 49.232 7.67927 50.8073C6.93862 52.3825 6.70191 54.1478 7.00144 55.8624C7.30097 57.5771 8.12216 59.1577 9.35296 60.3884C10.5838 61.6193 12.1643 62.4404 13.879 62.7399C15.5936 63.0394 17.359 62.8027 18.9342 62.0621C20.5093 61.3215 21.8177 60.1131 22.6808 58.6015C23.544 57.0897 23.9198 55.3489 23.757 53.6158L23.8007 53.6572C23.6783 52.2084 23.8738 50.7507 24.3732 49.3852C24.8723 48.0199 25.6637 46.78 26.6916 45.7519C27.7197 44.724 28.9596 43.9326 30.3249 43.4335C31.6904 42.9341 33.1481 42.7386 34.5969 42.861Z" fill="#394149"/>
<path d="M19.1825 38.2467C20.0542 37.3699 20.7216 36.3114 21.1371 35.1469C21.5526 33.9825 21.7059 32.7405 21.586 31.51L21.6297 31.5514C21.5073 30.1024 21.7027 28.6439 22.2023 27.2782C22.7019 25.9124 23.4936 24.6723 24.5222 23.6442C25.5507 22.6161 26.7911 21.825 28.1571 21.326C29.5231 20.827 30.9815 20.6322 32.4305 20.7552L32.3868 20.7138C34.1191 20.8761 35.8596 20.5 37.3704 19.637C38.8813 18.774 40.089 17.4659 40.8294 15.8912C41.5695 14.3165 41.806 12.5518 41.5065 10.8378C41.2071 9.12374 40.386 7.54382 39.1557 6.31346C37.9254 5.0831 36.3453 4.26218 34.6314 3.96267C32.9174 3.66314 31.1526 3.89963 29.578 4.63982C28.0032 5.38 26.6952 6.58789 25.8322 8.09876C24.9691 9.60963 24.593 11.35 24.7554 13.0824L24.714 13.041C24.8363 14.4896 24.6408 15.9475 24.1415 17.3129C23.6422 18.6783 22.851 19.9182 21.823 20.9462C20.795 21.9742 19.5551 22.7655 18.1897 23.2647C16.8243 23.764 15.3664 23.9595 13.9178 23.8372L13.9592 23.8786C12.5437 23.7516 11.1191 23.9841 9.8173 24.5543C8.51555 25.1245 7.37877 26.0141 6.51234 27.1406C5.64591 28.267 5.07785 29.5941 4.86078 30.9984C4.64373 32.403 4.78469 33.8396 5.27061 35.175C5.75654 36.5106 6.57172 37.7018 7.6406 38.6383C8.70948 39.5751 9.99748 40.2267 11.3853 40.5331C12.773 40.8392 14.2156 40.7902 15.5795 40.3907C16.9433 39.991 18.1841 39.2536 19.1871 38.2467H19.1825Z" fill="#394149"/>
<path d="M90.4299 15.3093H97.2609V48.5512H90.4299V15.3093Z" fill="#394149"/>
<path d="M101.129 37.1647C101.119 34.7759 101.819 32.4378 103.139 30.4469C104.459 28.456 106.341 26.9017 108.545 25.981C110.749 25.06 113.177 24.8142 115.521 25.2744C117.865 25.7346 120.02 26.88 121.713 28.5659C123.405 30.2516 124.56 32.4019 125.029 34.7442C125.499 37.0865 125.263 39.5155 124.351 41.7235C123.439 43.9313 121.892 45.8192 119.906 47.1472C117.921 48.4754 115.586 49.1845 113.197 49.1845C111.611 49.2027 110.038 48.9044 108.568 48.3073C107.099 47.7102 105.764 46.8263 104.64 45.7074C103.516 44.5882 102.627 43.2563 102.024 41.7896C101.421 40.3228 101.117 38.7506 101.129 37.1647ZM118.434 37.1647C118.405 36.135 118.074 35.1366 117.481 34.2941C116.888 33.4518 116.06 32.8028 115.101 32.4286C114.141 32.0541 113.092 31.9709 112.085 32.1894C111.079 32.4079 110.159 32.918 109.44 33.6565C108.722 34.3948 108.238 35.3286 108.047 36.3411C107.857 37.3533 107.969 38.3994 108.37 39.3483C108.771 40.2973 109.442 41.1069 110.301 41.6762C111.159 42.2454 112.167 42.549 113.197 42.549C113.902 42.5679 114.604 42.4402 115.258 42.1743C115.911 41.9085 116.503 41.5101 116.995 41.0043C117.487 40.4983 117.869 39.896 118.116 39.2352C118.364 38.5744 118.472 37.8694 118.434 37.1647Z" fill="#394149"/>
<path d="M152.49 25.7804V47.4004C152.49 55.0502 146.524 58.284 140.468 58.284C138.336 58.4436 136.2 58.0128 134.297 57.0392C132.393 56.0654 130.795 54.5863 129.676 52.764L135.504 49.3945C135.974 50.3444 136.723 51.128 137.651 51.6406C138.579 52.1531 139.641 52.3702 140.695 52.2626C141.369 52.3559 142.056 52.2966 142.703 52.0889C143.351 51.8812 143.944 51.5305 144.438 51.0629C144.932 50.5951 145.315 50.0224 145.558 49.3866C145.8 48.7512 145.897 48.0692 145.84 47.3912V45.3097C145.041 46.2883 144.023 47.0659 142.868 47.58C141.713 48.094 140.454 48.3303 139.191 48.2698C136.187 48.175 133.337 46.9151 131.246 44.7563C129.154 42.5977 127.985 39.7099 127.985 36.7042C127.985 33.6986 129.154 30.8107 131.246 28.6521C133.337 26.4934 136.187 25.2334 139.191 25.1387C140.454 25.0782 141.713 25.3144 142.868 25.8284C144.023 26.3425 145.041 27.1201 145.84 28.0988V25.7758L152.49 25.7804ZM145.843 36.7077C145.889 35.6069 145.604 34.5174 145.026 33.5797C144.447 32.6417 143.601 31.8986 142.597 31.4457C141.592 30.9926 140.475 30.8507 139.39 31.0379C138.304 31.2252 137.299 31.733 136.504 32.4964C135.709 33.2595 135.161 34.243 134.93 35.3203C134.699 36.3976 134.796 37.5196 135.208 38.5415C135.62 39.5633 136.328 40.4387 137.242 41.0547C138.155 41.6706 139.233 41.999 140.334 41.9977C141.052 42.0478 141.772 41.9471 142.449 41.7019C143.125 41.4567 143.743 41.0724 144.261 40.5742C144.78 40.0758 145.189 39.4743 145.462 38.8083C145.734 38.1424 145.864 37.4269 145.843 36.7077Z" fill="#394149"/>
<path d="M156.358 37.1647C156.348 34.7759 157.048 32.4378 158.368 30.4469C159.688 28.456 161.57 26.9017 163.774 25.981C165.978 25.06 168.406 24.8142 170.75 25.2744C173.095 25.7346 175.249 26.88 176.942 28.5659C178.635 30.2516 179.789 32.4019 180.258 34.7442C180.728 37.0865 180.492 39.5155 179.58 41.7235C178.668 43.9313 177.121 45.8192 175.136 47.1472C173.15 48.4754 170.815 49.1845 168.426 49.1845C166.84 49.2027 165.267 48.9044 163.798 48.3073C162.328 47.7102 160.993 46.8263 159.869 45.7074C158.746 44.5882 157.856 43.2563 157.254 41.7896C156.651 40.3228 156.346 38.7506 156.358 37.1647ZM173.663 37.1647C173.634 36.135 173.303 35.1366 172.71 34.2941C172.117 33.4518 171.289 32.8028 170.33 32.4286C169.37 32.0541 168.321 31.9709 167.315 32.1894C166.308 32.4079 165.388 32.918 164.67 33.6565C163.952 34.3948 163.467 35.3286 163.276 36.3411C163.086 37.3533 163.198 38.3994 163.599 39.3483C164 40.2973 164.672 41.1069 165.53 41.6762C166.389 42.2454 167.396 42.549 168.426 42.549C169.131 42.5679 169.833 42.4402 170.487 42.1743C171.141 41.9085 171.732 41.5101 172.224 41.0043C172.716 40.4983 173.098 39.896 173.346 39.2352C173.593 38.5744 173.701 37.8694 173.663 37.1647Z" fill="#394149"/>
<path d="M183.681 19.6775C183.681 18.8668 183.922 18.0744 184.372 17.4004C184.822 16.7264 185.462 16.2011 186.211 15.8909C186.96 15.5806 187.784 15.4995 188.579 15.6576C189.374 15.8158 190.105 16.2061 190.678 16.7793C191.251 17.3525 191.641 18.0828 191.8 18.8779C191.958 19.6729 191.877 20.497 191.566 21.2459C191.256 21.9948 190.731 22.635 190.057 23.0854C189.383 23.5357 188.59 23.7761 187.78 23.7761C186.696 23.7653 185.66 23.3301 184.893 22.5637C184.127 21.7974 183.692 20.7611 183.681 19.6775ZM184.371 25.7794H191.204V48.5494H184.362L184.371 25.7794Z" fill="#394149"/>
<path d="M220.698 37.1642C220.777 38.6691 220.558 40.1746 220.053 41.5944C219.548 43.0142 218.767 44.3202 217.756 45.4373C216.744 46.5542 215.522 47.4604 214.159 48.1034C212.796 48.7463 211.32 49.1136 209.814 49.184C208.548 49.253 207.283 49.0395 206.11 48.5591C204.937 48.0784 203.885 47.3428 203.032 46.4056V57.6549H196.201V25.7792H203.032V27.9182C203.886 26.9816 204.937 26.2465 206.11 25.7665C207.284 25.2863 208.549 25.0731 209.814 25.1421C211.32 25.2122 212.797 25.5793 214.16 26.2224C215.523 26.8655 216.746 27.7717 217.757 28.889C218.769 30.0063 219.549 31.3127 220.054 32.733C220.559 34.153 220.778 35.6591 220.698 37.1642ZM213.867 37.1642C213.84 36.0986 213.5 35.0645 212.888 34.1912C212.277 33.3181 211.421 32.6447 210.429 32.2555C209.437 31.8661 208.352 31.778 207.309 32.0025C206.267 32.2268 205.315 32.7535 204.57 33.5166C203.826 34.28 203.324 35.2455 203.126 36.2932C202.928 37.3406 203.043 38.423 203.457 39.4053C203.871 40.3876 204.566 41.2257 205.454 41.8152C206.342 42.4045 207.384 42.7189 208.45 42.7187C209.182 42.7513 209.913 42.6287 210.594 42.3592C211.275 42.0899 211.892 41.6793 212.403 41.1549C212.915 40.6303 213.309 40.0038 213.562 39.3161C213.814 38.6284 213.918 37.8949 213.867 37.1642Z" fill="#394149"/>
<path d="M241.779 41.717C241.779 46.9541 237.227 49.1851 232.309 49.1851C230.322 49.3649 228.327 48.945 226.582 47.9787C224.836 47.0127 223.421 45.5453 222.518 43.7663L228.436 40.3968C228.676 41.219 229.19 41.9345 229.893 42.4233C230.596 42.9123 231.447 43.1453 232.3 43.0832C233.938 43.0832 234.759 42.5818 234.759 41.6733C234.759 39.1663 223.556 40.4888 223.556 32.6113C223.556 27.6456 227.746 25.1432 232.482 25.1432C234.262 25.0868 236.024 25.5091 237.586 26.3658C239.147 27.2228 240.451 28.4828 241.36 30.0146L235.532 33.1564C235.276 32.56 234.851 32.0519 234.308 31.6956C233.765 31.3394 233.131 31.1508 232.482 31.1531C231.297 31.1531 230.568 31.6131 230.568 32.4273C230.578 35.024 241.779 33.2921 241.779 41.717Z" fill="#394149"/>
<path d="M266.73 25.7808V48.5508H259.899V46.4095C259.11 47.3543 258.11 48.0988 256.978 48.5818C255.847 49.0648 254.619 49.2725 253.39 49.1879C248.79 49.1879 244.88 45.9104 244.88 39.7579V25.7808H251.711V38.7574C251.654 39.2997 251.716 39.848 251.893 40.3639C252.068 40.88 252.355 41.3515 252.733 41.7455C253.11 42.1395 253.567 42.4466 254.076 42.6455C254.582 42.8445 255.127 42.9305 255.672 42.8974C258.177 42.8974 259.906 41.4415 259.906 38.2077V25.7877L266.73 25.7808Z" fill="#394149"/>
<path d="M305.901 34.5707V48.5501H299.07V35.1618C299.07 32.8848 297.977 31.4289 295.792 31.4289C293.515 31.4289 292.239 33.0228 292.239 35.7092V48.5501H285.41V35.1618C285.41 32.8848 284.318 31.4289 282.13 31.4289C279.853 31.4289 278.579 33.0228 278.579 35.7092V48.5501H271.748V25.7801H278.579V27.8731C279.287 26.9446 280.217 26.2081 281.282 25.7313C282.349 25.2543 283.517 25.0521 284.681 25.143C285.849 25.0857 287.013 25.3325 288.06 25.859C289.104 26.3852 289.994 27.1737 290.645 28.1468C291.402 27.1286 292.404 26.319 293.559 25.7937C294.714 25.2683 295.983 25.0446 297.248 25.143C302.476 25.1453 305.901 28.8782 305.901 34.5707Z" fill="#394149"/>
<path d="M311.677 25.6408C314.476 25.6408 316.746 23.3712 316.746 20.5716C316.746 17.772 314.476 15.5024 311.677 15.5024C308.878 15.5024 306.607 17.772 306.607 20.5716C306.607 23.3712 308.878 25.6408 311.677 25.6408Z" fill="#394149"/>
</g>
</g>
<defs>
<filter id="filter0_f_0_1" x="-679" y="-797" width="2720" height="1708" filterUnits="userSpaceOnUse" color-interpolation-filters="sRGB">
<feFlood flood-opacity="0" result="BackgroundImageFix"/>
<feBlend mode="normal" in="SourceGraphic" in2="BackgroundImageFix" result="shape"/>
<feGaussianBlur stdDeviation="200" result="effect1_foregroundBlur_0_1"/>
</filter>
<linearGradient id="paint0_linear_0_1" x1="-260.5" y1="57.0001" x2="1630.5" y2="57.0001" gradientUnits="userSpaceOnUse">
<stop stop-color="#9B51E0"/>
<stop offset="1" stop-color="#27AE60"/>
</linearGradient>
<clipPath id="clip0_0_1">
<rect width="1920" height="12925" fill="white" transform="translate(-279 -6843)"/>
</clipPath>
<clipPath id="clip1_0_1">
<rect width="1920" height="908" fill="white" transform="translate(-279 -397)"/>
</clipPath>
</defs>
</svg>
