<svg width="376" height="82" viewBox="0 0 376 82" fill="none" xmlns="http://www.w3.org/2000/svg">
<rect width="376" height="82" fill="#1E1E1E"/>
<g clip-path="url(#clip0_0_1)">
<rect width="1920" height="12925" transform="translate(-772 -6973)" fill="white"/>
<g clip-path="url(#clip1_0_1)">
<g opacity="0.14" filter="url(#filter0_f_0_1)">
<rect x="-772" y="-527" width="1920" height="908" fill="url(#paint0_linear_0_1)"/>
</g>
<rect x="-57" y="-219" width="490" height="520" rx="20" fill="white"/>
<path d="M57.1903 64.943L8.31026 31.118C3.35687 27.6904 5.04069 20.5536 11.2174 18.8753L63.1681 4.73034C64.2686 4.33198 65.4478 4.20267 66.6082 4.35314C67.7684 4.50361 68.8762 4.92952 69.8397 5.59552C70.8028 6.26153 71.5941 7.14841 72.1472 8.18257C72.7003 9.21672 72.9997 10.3683 73.0204 11.5418L69.9416 59.5091C69.5765 65.2027 62.1436 68.3706 57.1903 64.943Z" fill="#E9327C"/>
<path d="M41.6862 73.2886L12.8895 16.7935C12.2312 15.501 11.9415 14.0513 12.0524 12.6042C12.1633 11.1571 12.6704 9.76879 13.5178 8.59244C14.3652 7.4161 15.52 6.49737 16.8548 5.93758C18.1896 5.3778 19.6526 5.19871 21.0824 5.42008L74.45 13.6829C75.6785 13.8732 76.8447 14.3533 77.8525 15.0838C78.8601 15.8143 79.6805 16.7743 80.2464 17.8849C80.812 18.9955 81.1071 20.2249 81.1068 21.4721C81.1065 22.7193 80.8112 23.9487 80.2453 25.0591L55.6609 73.2913C55.0007 74.5801 53.9991 75.6614 52.7662 76.4161C51.5333 77.171 50.1171 77.5701 48.6727 77.5698C47.2284 77.5696 45.8121 77.1699 44.5795 76.4147C43.3469 75.6592 42.3458 74.5776 41.6862 73.2886Z" fill="#1DACE3"/>
<path d="M72.8896 13.4402L46.2862 9.32104L13.6233 18.218L26.6607 43.8048L57.1902 64.9389C57.8638 65.4 58.6046 65.7531 59.3863 65.9857L70.9824 43.2362L72.8896 13.4402Z" fill="#001A49"/>
<path d="M207.642 20.0437C207.642 19.0517 207.935 18.082 208.484 17.2572C209.034 16.4324 209.815 15.7895 210.728 15.4099C211.642 15.0303 212.647 14.9309 213.617 15.1244C214.587 15.318 215.478 15.7957 216.177 16.4971C216.876 17.1986 217.352 18.0923 217.545 19.0652C217.738 20.0382 217.639 21.0467 217.261 21.9632C216.882 22.8797 216.241 23.663 215.419 24.2141C214.597 24.7652 213.63 25.0594 212.642 25.0594C211.32 25.0459 210.056 24.5131 209.121 23.5754C208.187 22.6377 207.655 21.3698 207.642 20.0437ZM208.476 27.5111H216.81V55.3747H208.476V27.5111Z" fill="#001A49"/>
<path d="M252.801 41.4459C252.898 43.2877 252.631 45.1305 252.016 46.8683C251.4 48.6059 250.448 50.2046 249.214 51.5721C247.981 52.9393 246.49 54.0485 244.827 54.836C243.165 55.6232 241.363 56.0731 239.527 56.1595C237.982 56.2437 236.438 55.9824 235.006 55.3944C233.575 54.8062 232.292 53.9061 231.249 52.7592V66.5243H222.917V27.5141H231.249V30.1327C232.292 28.986 233.575 28.0865 235.007 27.4988C236.438 26.9113 237.983 26.6504 239.527 26.7351C241.363 26.8212 243.164 27.2706 244.827 28.0575C246.489 28.8447 247.98 29.9536 249.214 31.3209C250.448 32.6881 251.4 34.2862 252.016 36.0241C252.631 37.7617 252.898 39.6042 252.801 41.4459ZM244.469 41.4459C244.437 40.1413 244.021 38.8755 243.275 37.8065C242.529 36.7378 241.485 35.9134 240.274 35.437C239.063 34.9603 237.738 34.8529 236.467 35.1276C235.195 35.4023 234.032 36.0471 233.124 36.9813C232.216 37.9156 231.603 39.098 231.361 40.3802C231.119 41.6624 231.26 42.9878 231.766 44.1902C232.271 45.3926 233.119 46.4187 234.203 47.1403C235.287 47.8619 236.559 48.2465 237.859 48.2465C238.753 48.2869 239.644 48.1371 240.476 47.8075C241.307 47.4776 242.06 46.9749 242.684 46.3329C243.308 45.6905 243.79 44.9233 244.098 44.0809C244.406 43.2387 244.532 42.3406 244.469 41.4459Z" fill="#001A49"/>
<path d="M278.519 47.0124C278.519 53.4221 272.964 56.1526 266.965 56.1526C264.541 56.3727 262.107 55.858 259.978 54.6753C257.849 53.4928 256.123 51.6965 255.022 49.5189L262.243 45.397C262.536 46.4037 263.165 47.2786 264.025 47.8756C264.884 48.4725 265.922 48.7554 266.965 48.677C268.964 48.677 269.962 48.062 269.962 46.9495C269.962 43.8827 256.298 45.5008 256.298 35.8576C256.298 29.7842 261.406 26.7201 267.196 26.7201C269.368 26.6517 271.518 27.1687 273.422 28.2172C275.329 29.2657 276.917 30.8073 278.026 32.6815L270.918 36.5273C270.607 35.7959 270.088 35.1724 269.427 34.7351C268.764 34.2975 267.989 34.0654 267.196 34.0673C265.752 34.0673 264.864 34.614 264.864 35.628C264.856 38.826 278.519 36.7077 278.519 47.0124Z" fill="#001A49"/>
<path d="M308.975 27.5149V55.3785H300.643V52.7545C299.681 53.9104 298.458 54.8212 297.076 55.4124C295.698 56.0033 294.196 56.2578 292.698 56.1548C287.088 56.1548 282.312 52.1422 282.312 44.6174V27.5149H290.643V43.3983C290.573 44.0625 290.649 44.7341 290.864 45.366C291.079 45.998 291.428 46.5755 291.889 47.0582C292.349 47.5409 292.908 47.917 293.526 48.1606C294.147 48.4044 294.812 48.5094 295.477 48.4686C298.531 48.4686 300.654 46.6865 300.654 42.7286V27.5149H308.975Z" fill="#001A49"/>
<path d="M356.731 38.2633V55.3739H348.399V38.9903C348.399 36.2051 347.064 34.4202 344.399 34.4202C341.62 34.4202 340.067 36.3718 340.067 39.66V55.3739H331.732V38.9903C331.732 36.2051 330.4 34.4202 327.732 34.4202C324.956 34.4202 323.4 36.3718 323.4 39.66V55.3739H315.068V27.5103H323.414V30.0633C324.278 28.9265 325.411 28.025 326.711 27.4409C328.01 26.8571 329.438 26.6093 330.858 26.7204C332.283 26.6505 333.705 26.9523 334.98 27.5967C336.255 28.2409 337.342 29.2055 338.135 30.3967C339.059 29.1506 340.282 28.1595 341.691 27.5166C343.099 26.8736 344.65 26.5997 346.192 26.7204C352.568 26.7314 356.731 31.2987 356.731 38.2633Z" fill="#001A49"/>
<path d="M363.791 27.3412C367.208 27.3412 369.976 24.5633 369.976 21.1366C369.976 17.7098 367.208 14.9319 363.791 14.9319C360.374 14.9319 357.606 17.7098 357.606 21.1366C357.606 24.5633 360.374 27.3412 363.791 27.3412Z" fill="#001A49"/>
<path d="M93.8828 14.697H102.217V55.3774H93.8828V14.697ZM106.937 41.4456C106.928 38.5242 107.783 35.6659 109.394 33.2327C111.005 30.7992 113.299 28.9001 115.987 27.7759C118.675 26.6516 121.634 26.3527 124.492 26.9169C127.349 27.4812 129.975 28.8832 132.037 30.9457C134.099 33.008 135.505 35.6378 136.077 38.5023C136.648 41.3668 136.359 44.3369 135.247 47.0366C134.135 49.7363 132.249 52.0443 129.829 53.6682C127.408 55.2921 124.562 56.1591 121.65 56.1591C119.716 56.1796 117.797 55.8136 116.006 55.0822C114.214 54.3507 112.586 53.2683 111.216 51.8987C109.846 50.5287 108.763 48.8988 108.028 47.1041C107.293 45.3094 106.922 43.3857 106.937 41.4456ZM128.047 41.4456C128.014 40.1852 127.612 38.9629 126.89 37.931C126.169 36.8992 125.16 36.1035 123.99 35.6438C122.82 35.1843 121.541 35.0807 120.313 35.3467C119.084 35.6124 117.962 36.2358 117.084 37.1384C116.207 38.0412 115.615 39.1832 115.382 40.4216C115.149 41.6604 115.284 42.9404 115.773 44.1021C116.261 45.2635 117.079 46.2549 118.126 46.9521C119.173 47.6494 120.401 48.0214 121.658 48.022C122.518 48.0466 123.375 47.8919 124.172 47.568C124.97 47.2443 125.693 46.7581 126.294 46.1401C126.895 45.5223 127.363 44.7862 127.666 43.9783C127.97 43.17 128.103 42.3077 128.058 41.4456H128.047ZM169.595 27.5056V53.9779C169.595 63.3396 162.318 67.2947 154.931 67.2947C152.331 67.4915 149.727 66.9664 147.405 65.7769C145.083 64.5876 143.131 62.7795 141.766 60.5516L148.874 56.427C149.448 57.5897 150.362 58.5491 151.494 59.177C152.626 59.8045 153.922 60.0705 155.209 59.9393C156.03 60.0516 156.866 59.9778 157.655 59.7228C158.444 59.4678 159.166 59.0387 159.768 58.4663C160.369 57.8942 160.835 57.1939 161.13 56.4168C161.426 55.64 161.544 54.8064 161.476 53.9779V51.414C160.5 52.6112 159.257 53.5624 157.849 54.1914C156.44 54.8203 154.905 55.1095 153.364 55.0357C149.698 54.9212 146.22 53.3798 143.667 50.7378C141.114 48.0958 139.687 44.5607 139.687 40.8811C139.687 37.2012 141.114 33.6662 143.667 31.0242C146.22 28.3821 149.698 26.8407 153.364 26.7264C154.905 26.6525 156.44 26.9416 157.849 27.5706C159.257 28.1996 160.5 29.1508 161.476 30.3482V27.5056H169.595ZM161.487 40.8798C161.542 39.5339 161.194 38.2025 160.488 37.0564C159.783 35.9103 158.752 35.002 157.528 34.4485C156.304 33.895 154.943 33.7214 153.62 33.9502C152.297 34.179 151.072 34.7995 150.103 35.7321C149.134 36.6647 148.465 37.8665 148.183 39.1832C147.901 40.5001 148.017 41.8714 148.518 43.1214C149.019 44.371 149.881 45.442 150.993 46.1964C152.105 46.9508 153.417 47.3542 154.759 47.355C155.635 47.4165 156.514 47.2938 157.339 46.9945C158.164 46.6952 158.918 46.2259 159.551 45.6166C160.185 45.0076 160.685 44.2721 161.018 43.4578C161.351 42.6433 161.511 41.7678 161.487 40.888V40.8798ZM174.314 41.4264C174.305 38.505 175.16 35.6468 176.771 33.2136C178.382 30.7801 180.677 28.881 183.365 27.7568C186.052 26.6325 189.012 26.3335 191.869 26.8978C194.726 27.4621 197.352 28.864 199.415 30.9266C201.477 32.9889 202.883 35.6186 203.454 38.4832C204.025 41.3477 203.737 44.3177 202.625 47.0175C201.513 49.7172 199.627 52.0252 197.206 53.6491C194.786 55.2729 191.939 56.14 189.027 56.14C187.095 56.1605 185.178 55.795 183.388 55.0647C181.598 54.3346 179.97 53.2538 178.601 51.8861C177.231 50.5183 176.147 48.8909 175.411 47.0981C174.675 45.3056 174.302 43.384 174.314 41.4456V41.4264ZM195.425 41.4264C195.392 40.1655 194.99 38.9421 194.269 37.9092C193.547 36.8765 192.538 36.0803 191.367 35.62C190.196 35.1597 188.917 35.0561 187.687 35.3221C186.458 35.5878 185.335 36.2115 184.457 37.1146C183.58 38.018 182.987 39.1608 182.754 40.4001C182.52 41.6394 182.657 42.9205 183.145 44.0824C183.634 45.2446 184.453 46.2363 185.501 46.9338C186.549 47.6311 187.778 48.0028 189.035 48.0028C189.893 48.0255 190.746 47.8705 191.542 47.5472C192.337 47.2238 193.057 46.7389 193.657 46.1234C194.257 45.5078 194.724 44.7745 195.028 43.9695C195.332 43.1646 195.467 42.3052 195.425 41.4456V41.4264Z" fill="#001A49"/>
</g>
</g>
<defs>
<filter id="filter0_f_0_1" x="-1172" y="-927" width="2720" height="1708" filterUnits="userSpaceOnUse" color-interpolation-filters="sRGB">
<feFlood flood-opacity="0" result="BackgroundImageFix"/>
<feBlend mode="normal" in="SourceGraphic" in2="BackgroundImageFix" result="shape"/>
<feGaussianBlur stdDeviation="200" result="effect1_foregroundBlur_0_1"/>
</filter>
<linearGradient id="paint0_linear_0_1" x1="-753.5" y1="-72.9999" x2="1137.5" y2="-72.9999" gradientUnits="userSpaceOnUse">
<stop stop-color="#9B51E0"/>
<stop offset="1" stop-color="#27AE60"/>
</linearGradient>
<clipPath id="clip0_0_1">
<rect width="1920" height="12925" fill="white" transform="translate(-772 -6973)"/>
</clipPath>
<clipPath id="clip1_0_1">
<rect width="1920" height="908" fill="white" transform="translate(-772 -527)"/>
</clipPath>
</defs>
</svg>
