<svg width="334" height="81" viewBox="0 0 334 81" fill="none" xmlns="http://www.w3.org/2000/svg">
<path d="M101.89 55.5907H125.372V48.4785H110.236V21.6892H101.89V55.5907Z" fill="#340E0E"/>
<path d="M139.283 50.8476C135.936 50.8476 134.191 47.9079 134.191 43.4983C134.191 39.0887 135.936 36.1016 139.283 36.1016C142.631 36.1016 144.423 39.0887 144.423 43.4983C144.423 47.9079 142.631 50.8476 139.283 50.8476ZM139.331 56.3477C147.111 56.3477 152.203 50.8001 152.203 43.4983C152.203 36.1964 147.111 30.6489 139.331 30.6489C131.597 30.6489 126.411 36.1964 126.411 43.4983C126.411 50.8001 131.597 56.3477 139.331 56.3477Z" fill="#340E0E"/>
<path d="M165.671 63.9824C169.255 63.9824 172.414 63.1764 174.536 61.2798C176.469 59.5255 177.742 56.8702 177.742 53.2193V31.3138H170.386V33.9216H170.292C168.878 31.8827 166.709 30.6025 163.502 30.6025C157.514 30.6025 153.364 35.6285 153.364 42.7407C153.364 50.1848 158.41 54.2624 163.832 54.2624C166.756 54.2624 168.595 53.0771 170.009 51.465H170.198V53.8831C170.198 56.8228 168.83 58.5298 165.577 58.5298C163.031 58.5298 161.757 57.4392 161.333 56.159H153.883C154.637 61.2324 159.023 63.9824 165.671 63.9824ZM165.624 48.5253C162.748 48.5253 160.862 46.1545 160.862 42.5036C160.862 38.8053 162.748 36.4345 165.624 36.4345C168.83 36.4345 170.528 39.1846 170.528 42.4562C170.528 45.8701 168.972 48.5253 165.624 48.5253Z" fill="#340E0E"/>
<path d="M192.868 50.8476C189.52 50.8476 187.775 47.9079 187.775 43.4983C187.775 39.0887 189.52 36.1016 192.868 36.1016C196.216 36.1016 198.008 39.0887 198.008 43.4983C198.008 47.9079 196.216 50.8476 192.868 50.8476ZM192.915 56.3477C200.695 56.3477 205.788 50.8001 205.788 43.4983C205.788 36.1964 200.695 30.6489 192.915 30.6489C185.182 30.6489 179.995 36.1964 179.995 43.4983C179.995 50.8001 185.182 56.3477 192.915 56.3477Z" fill="#340E0E"/>
<path d="M208.03 55.5907H215.716V31.3144H208.03V55.5907ZM208.03 27.9479H215.716V21.6892H208.03V27.9479Z" fill="#340E0E"/>
<path d="M219.053 63.6031H226.739V53.0771H226.833C228.342 55.1159 230.559 56.3487 233.671 56.3487C239.989 56.3487 244.186 51.3227 244.186 43.4519C244.186 36.1501 240.272 30.6025 233.859 30.6025C230.559 30.6025 228.201 32.0724 226.551 34.2535H226.409V31.3138H219.053V63.6031ZM231.69 50.3744C228.39 50.3744 226.503 47.6718 226.503 43.7364C226.503 39.801 228.201 36.8139 231.549 36.8139C234.849 36.8139 236.405 39.5639 236.405 43.7364C236.405 47.8615 234.614 50.3744 231.69 50.3744Z" fill="#340E0E"/>
<path d="M256.698 56.3487C263.017 56.3487 267.685 53.5986 267.685 48.2882C267.685 42.0769 262.687 40.9863 258.443 40.2751C255.378 39.7061 252.643 39.4691 252.643 37.7621C252.643 36.2449 254.105 35.5337 255.991 35.5337C258.113 35.5337 259.574 36.1975 259.857 38.3785H266.93C266.553 33.5897 262.875 30.6025 256.038 30.6025C250.332 30.6025 245.617 33.2578 245.617 38.3785C245.617 44.0683 250.097 45.2062 254.293 45.9175C257.5 46.4864 260.423 46.7235 260.423 48.9046C260.423 50.4693 258.961 51.3227 256.651 51.3227C254.105 51.3227 252.502 50.1374 252.219 47.7192H244.957C245.193 53.0771 249.625 56.3487 256.698 56.3487Z" fill="#340E0E"/>
<path d="M278.126 56.3003C281.474 56.3003 283.596 54.9726 285.341 52.6019H285.482V55.589H292.838V31.3127H285.152V44.8733C285.152 47.7656 283.549 49.757 280.908 49.757C278.456 49.757 277.277 48.2872 277.277 45.632V31.3127H269.639V47.2441C269.639 52.6493 272.562 56.3003 278.126 56.3003Z" fill="#340E0E"/>
<path d="M296.179 55.5901H303.865V41.9821C303.865 39.0898 305.28 37.0509 307.685 37.0509C309.995 37.0509 311.08 38.5682 311.08 41.176V55.5901H318.765V41.9821C318.765 39.0898 320.133 37.0509 322.585 37.0509C324.895 37.0509 325.98 38.5682 325.98 41.176V55.5901H333.666V39.801C333.666 34.3483 330.931 30.6025 325.461 30.6025C322.349 30.6025 319.756 31.9301 317.87 34.8699H317.775C316.549 32.2621 314.144 30.6025 310.985 30.6025C307.496 30.6025 305.185 32.2621 303.677 34.775H303.535V31.3138H296.179V55.5901Z" fill="#340E0E"/>
<path fill-rule="evenodd" clip-rule="evenodd" d="M40.6374 79.2983C62.339 79.2983 79.9315 61.6081 79.9315 39.7861C79.9315 17.9641 62.339 0.273926 40.6374 0.273926C18.9358 0.273926 1.34326 17.9641 1.34326 39.7861C1.34326 61.6081 18.9358 79.2983 40.6374 79.2983ZM52.8958 18.6804C53.4925 16.5491 51.4356 15.2888 49.5572 16.6345L23.3344 35.4192C21.2972 36.8786 21.6177 39.7861 23.8158 39.7861H30.721V39.7323H44.1788L33.2132 43.6229L28.379 60.8919C27.7823 63.0232 29.839 64.2834 31.7176 62.9376L57.9404 44.1531C59.9776 42.6938 59.6569 39.7861 57.459 39.7861H46.9875L52.8958 18.6804Z" fill="#F15757"/>
</svg>
