<svg width="323" height="80" viewBox="0 0 323 80" fill="none" xmlns="http://www.w3.org/2000/svg">
<path d="M1.85547 59.3315L1.85548 19.7781L21.6871 30.7652V48.4542L37.5525 57.3538L53.4177 48.4542V30.7652L73.2495 19.7781V59.3315L37.5525 79.1081L1.85547 59.3315Z" fill="#192657"/>
<path fill-rule="evenodd" clip-rule="evenodd" d="M11.7713 25.2703L1.85547 19.7767L37.5525 0L73.2495 19.7767L63.3336 25.2703V54.3859L37.5525 69.2185L11.7713 54.3859L11.7713 25.2703ZM62.2595 25.8655L53.4177 30.7638V30.6539L37.5525 21.7543L21.6871 30.6539V30.7638L12.8455 25.8655V53.7775L37.5525 67.992L62.2595 53.7775V25.8655Z" fill="url(#paint0_linear_111_4253)"/>
<path d="M92.2559 56.2019V22.9771H98.5385V50.5061H113.769V56.2019H92.2559Z" fill="#192657"/>
<path d="M127.333 56.8694C124.985 56.8694 122.875 56.3949 121.003 55.4454C119.131 54.4962 117.656 53.1198 116.577 51.3162C115.498 49.5126 114.958 47.345 114.958 44.8137V44.0541C114.958 41.5227 115.498 39.3551 116.577 37.5516C117.656 35.748 119.131 34.3716 121.003 33.4223C122.875 32.4728 124.985 31.9983 127.333 31.9983C129.682 31.9983 131.792 32.4728 133.664 33.4223C135.536 34.3716 137.011 35.748 138.09 37.5516C139.169 39.3551 139.709 41.5227 139.709 44.0541V44.8137C139.709 47.345 139.169 49.5126 138.09 51.3162C137.011 53.1198 135.536 54.4962 133.664 55.4454C131.792 56.3949 129.682 56.8694 127.333 56.8694ZM127.333 51.5534C129.174 51.5534 130.697 50.9682 131.903 49.7972C133.109 48.5949 133.711 46.8861 133.711 44.6711V44.1966C133.711 41.9817 133.109 40.2886 131.903 39.1179C130.729 37.9156 129.206 37.3143 127.333 37.3143C125.493 37.3143 123.97 37.9156 122.764 39.1179C121.558 40.2886 120.956 41.9817 120.956 44.1966V44.6711C120.956 46.8861 121.558 48.5949 122.764 49.7972C123.97 50.9682 125.493 51.5534 127.333 51.5534Z" fill="#192657"/>
<path d="M141.96 44.5288V43.7694C141.96 41.3012 142.452 39.197 143.435 37.4566C144.419 35.6846 145.72 34.3398 147.338 33.4223C148.988 32.4728 150.781 31.9983 152.716 31.9983C154.874 31.9983 156.508 32.3781 157.619 33.1374C158.73 33.8968 159.539 34.688 160.046 35.5107H160.903V32.6627H166.805V60.3819C166.805 61.9956 166.329 63.277 165.377 64.2265C164.425 65.2073 163.156 65.6979 161.569 65.6979H145.768V60.4768H159.475C160.364 60.4768 160.808 60.0021 160.808 59.0528V52.9299H159.951C159.634 53.4362 159.19 53.9583 158.619 54.4962C158.047 55.0025 157.286 55.4297 156.334 55.7779C155.382 56.1259 154.176 56.3 152.716 56.3C150.781 56.3 148.988 55.841 147.338 54.9233C145.72 53.9741 144.419 52.6292 143.435 50.889C142.452 49.117 141.96 46.997 141.96 44.5288ZM154.43 51.0789C156.27 51.0789 157.809 50.4935 159.047 49.3227C160.284 48.152 160.903 46.5065 160.903 44.3865V43.9118C160.903 41.76 160.284 40.1147 159.047 38.9756C157.841 37.8048 156.302 37.2193 154.43 37.2193C152.59 37.2193 151.051 37.8048 149.813 38.9756C148.576 40.1147 147.957 41.76 147.957 43.9118V44.3865C147.957 46.5065 148.576 48.152 149.813 49.3227C151.051 50.4935 152.59 51.0789 154.43 51.0789Z" fill="#192657"/>
<path d="M182.544 56.8694C180.196 56.8694 178.086 56.3949 176.213 55.4454C174.341 54.4962 172.866 53.1198 171.787 51.3162C170.708 49.5126 170.169 47.345 170.169 44.8137V44.0541C170.169 41.5227 170.708 39.3551 171.787 37.5516C172.866 35.748 174.341 34.3716 176.213 33.4223C178.086 32.4728 180.196 31.9983 182.544 31.9983C184.892 31.9983 187.002 32.4728 188.874 33.4223C190.746 34.3716 192.222 35.748 193.3 37.5516C194.379 39.3551 194.919 41.5227 194.919 44.0541V44.8137C194.919 47.345 194.379 49.5126 193.3 51.3162C192.222 53.1198 190.746 54.4962 188.874 55.4454C187.002 56.3949 184.892 56.8694 182.544 56.8694ZM182.544 51.5534C184.384 51.5534 185.907 50.9682 187.113 49.7972C188.319 48.5949 188.922 46.8861 188.922 44.6711V44.1966C188.922 41.9817 188.319 40.2886 187.113 39.1179C185.939 37.9156 184.416 37.3143 182.544 37.3143C180.703 37.3143 179.18 37.9156 177.975 39.1179C176.769 40.2886 176.166 41.9817 176.166 44.1966V44.6711C176.166 46.8861 176.769 48.5949 177.975 49.7972C179.18 50.9682 180.703 51.5534 182.544 51.5534Z" fill="#192657"/>
<path d="M198.314 56.2044V32.6621H204.311V56.2044H198.314ZM201.312 29.9093C200.233 29.9093 199.313 29.5613 198.552 28.865C197.822 28.1688 197.457 27.2512 197.457 26.1122C197.457 24.973 197.822 24.0554 198.552 23.3592C199.313 22.6632 200.233 22.3149 201.312 22.3149C202.423 22.3149 203.343 22.6632 204.073 23.3592C204.803 24.0554 205.167 24.973 205.167 26.1122C205.167 27.2512 204.803 28.1688 204.073 28.865C203.343 29.5613 202.423 29.9093 201.312 29.9093Z" fill="#192657"/>
<path d="M208.814 65.6979V32.6627H214.717V35.5107H215.574C216.112 34.593 216.952 33.7861 218.097 33.0899C219.239 32.3621 220.873 31.9983 222.999 31.9983C224.903 31.9983 226.663 32.4728 228.281 33.4223C229.9 34.3398 231.2 35.7004 232.184 37.5042C233.168 39.3078 233.66 41.4911 233.66 44.0541V44.8137C233.66 47.3766 233.168 49.56 232.184 51.3636C231.2 53.1673 229.9 54.5438 228.281 55.493C226.663 56.4107 224.903 56.8694 222.999 56.8694C221.569 56.8694 220.364 56.6953 219.38 56.3473C218.428 56.0309 217.651 55.6196 217.049 55.1132C216.477 54.5753 216.017 54.0374 215.669 53.4996H214.812V65.6979H208.814ZM221.189 51.6484C223.062 51.6484 224.601 51.0629 225.806 49.8922C227.043 48.6899 227.662 46.9494 227.662 44.6711V44.1966C227.662 41.9183 227.043 40.1937 225.806 39.0229C224.569 37.8206 223.03 37.2193 221.189 37.2193C219.348 37.2193 217.809 37.8206 216.572 39.0229C215.335 40.1937 214.717 41.9183 214.717 44.1966V44.6711C214.717 46.9494 215.335 48.6899 216.572 49.8922C217.809 51.0629 219.348 51.6484 221.189 51.6484Z" fill="#192657"/>
<path d="M246.828 56.8694C243.75 56.8694 241.227 56.205 239.26 54.876C237.294 53.5469 236.104 51.6484 235.69 49.1802L241.213 47.7564C241.434 48.8638 241.8 49.7341 242.306 50.3669C242.847 50.9998 243.497 51.4585 244.259 51.7433C245.051 51.9964 245.908 52.1231 246.828 52.1231C248.224 52.1231 249.256 51.8857 249.923 51.4111C250.588 50.9048 250.922 50.2878 250.922 49.56C250.922 48.8322 250.605 48.2785 249.969 47.8987C249.336 47.4873 248.321 47.1551 246.923 46.9021L245.591 46.6646C243.94 46.3482 242.433 45.921 241.069 45.3831C239.705 44.8137 238.61 44.0383 237.784 43.0574C236.961 42.0764 236.547 40.8107 236.547 39.2602C236.547 36.9187 237.404 35.1309 239.118 33.8968C240.83 32.6311 243.085 31.9983 245.876 31.9983C248.511 31.9983 250.7 32.5838 252.444 33.7545C254.19 34.9252 255.332 36.46 255.872 38.3585L250.303 40.0671C250.05 38.8648 249.526 38.0103 248.732 37.5042C247.97 36.9979 247.018 36.7446 245.876 36.7446C244.734 36.7446 243.862 36.9503 243.258 37.3617C242.657 37.7414 242.355 38.2793 242.355 38.9756C242.355 39.7349 242.671 40.3044 243.307 40.6842C243.94 41.0322 244.797 41.3012 245.876 41.4911L247.208 41.7284C248.986 42.0448 250.588 42.472 252.017 43.0099C253.476 43.5162 254.618 44.2598 255.444 45.2408C256.301 46.1901 256.729 47.4873 256.729 49.1328C256.729 51.601 255.824 53.5153 254.014 54.876C252.239 56.205 249.843 56.8694 246.828 56.8694Z" fill="#192657"/>
<path d="M268.838 56.5864C266.999 56.5864 265.38 56.1751 263.984 55.3526C262.621 54.498 261.557 53.3273 260.794 51.8401C260.034 50.353 259.652 48.6441 259.652 46.714V32.6646H265.65V46.2393C265.65 48.0113 266.079 49.3403 266.936 50.2262C267.822 51.1123 269.076 51.5553 270.696 51.5553C272.534 51.5553 273.964 50.954 274.979 49.7517C275.994 48.5176 276.501 46.809 276.501 44.6256V32.6646H282.499V56.2069H276.596V53.1216H275.741C275.359 53.9128 274.645 54.6879 273.598 55.4473C272.551 56.2069 270.964 56.5864 268.838 56.5864Z" fill="#192657"/>
<path d="M287.031 56.2039V32.6616H292.931V35.2247H293.788C294.2 34.4336 294.884 33.7534 295.834 33.1837C296.786 32.5826 298.04 32.282 299.596 32.282C301.277 32.282 302.626 32.6142 303.641 33.2786C304.656 33.9115 305.433 34.75 305.974 35.7942H306.829C307.369 34.7818 308.131 33.9432 309.115 33.2786C310.099 32.6142 311.494 32.282 313.304 32.282C314.762 32.282 316.08 32.5984 317.253 33.2312C318.459 33.8323 319.411 34.7658 320.11 36.0317C320.838 37.2656 321.203 38.8319 321.203 40.7306V56.2039H315.206V41.1578C315.206 39.8603 314.874 38.8952 314.207 38.2624C313.54 37.598 312.605 37.2656 311.399 37.2656C310.036 37.2656 308.972 37.7087 308.209 38.5946C307.481 39.4489 307.116 40.683 307.116 42.2969V56.2039H301.118V41.1578C301.118 39.8603 300.785 38.8952 300.12 38.2624C299.453 37.598 298.517 37.2656 297.31 37.2656C295.946 37.2656 294.884 37.7087 294.122 38.5946C293.392 39.4489 293.026 40.683 293.026 42.2969V56.2039H287.031Z" fill="#192657"/>
<defs>
<linearGradient id="paint0_linear_111_4253" x1="11.7713" y1="15.3819" x2="65.3168" y2="15.3819" gradientUnits="userSpaceOnUse">
<stop stop-color="#64C2DB"/>
<stop offset="0.307292" stop-color="#7476ED"/>
<stop offset="0.604167" stop-color="#C994DF"/>
<stop offset="1" stop-color="#E56F8C"/>
</linearGradient>
</defs>
</svg>
