<svg width="320" height="83" viewBox="0 0 320 83" fill="none" xmlns="http://www.w3.org/2000/svg">
<rect width="320" height="83" fill="#1E1E1E"/>
<g clip-path="url(#clip0_0_1)">
<rect width="1920" height="12925" transform="translate(-280 -7110)" fill="white"/>
<g clip-path="url(#clip1_0_1)">
<g opacity="0.14" filter="url(#filter0_f_0_1)">
<rect x="-280" y="-664" width="1920" height="908" fill="url(#paint0_linear_0_1)"/>
</g>
<rect x="-85" y="-81" width="490" height="245" rx="20" fill="white"/>
<path d="M111.708 52.7283H130.416V47.5786H117.887V23.1858H111.708V52.7283Z" fill="#3C2979"/>
<path d="M143.09 53.1636C149.74 53.1636 153.878 48.562 153.878 41.739C153.878 34.8725 149.74 30.2854 143.09 30.2854C136.441 30.2854 132.303 34.8725 132.303 41.739C132.303 48.562 136.441 53.1636 143.09 53.1636ZM143.119 48.4032C140.051 48.4032 138.481 45.5614 138.481 41.6956C138.481 37.8297 140.051 34.9736 143.119 34.9736C146.13 34.9736 147.699 37.8297 147.699 41.6956C147.699 45.5614 146.13 48.4032 143.119 48.4032Z" fill="#3C2979"/>
<path d="M166.5 61.5013C172.764 61.5013 177.216 58.6161 177.216 52.9472V30.574H171.18V34.2956H170.952C170.139 32.4924 168.355 30.2854 164.688 30.2854C159.879 30.2854 155.812 34.0649 155.812 41.6092C155.812 48.9802 159.765 52.4134 164.702 52.4134C168.198 52.4134 170.153 50.6391 170.952 48.8072H171.209V52.8605C171.209 55.9043 169.282 57.0872 166.643 57.0872C163.96 57.0872 162.604 55.9043 162.105 54.5627L156.483 55.3274C157.21 58.818 160.592 61.5013 166.5 61.5013ZM166.628 47.7973C163.646 47.7973 162.019 45.4029 162.019 41.5802C162.019 37.8152 163.617 35.1756 166.628 35.1756C169.582 35.1756 171.237 37.6999 171.237 41.5802C171.237 45.4893 169.553 47.7973 166.628 47.7973Z" fill="#3C2979"/>
<path d="M190.751 53.1636C197.4 53.1636 201.538 48.562 201.538 41.739C201.538 34.8725 197.4 30.2854 190.751 30.2854C184.101 30.2854 179.963 34.8725 179.963 41.739C179.963 48.562 184.101 53.1636 190.751 53.1636ZM190.779 48.4032C187.711 48.4032 186.142 45.5614 186.142 41.6956C186.142 37.8297 187.711 34.9736 190.779 34.9736C193.79 34.9736 195.36 37.8297 195.36 41.6956C195.36 45.5614 193.79 48.4032 190.779 48.4032Z" fill="#3C2979"/>
<path d="M204.287 52.7284H210.366V30.5717H204.287V52.7284ZM207.34 27.7154C209.153 27.7154 210.637 26.3163 210.637 24.5997C210.637 22.8976 209.153 21.4983 207.34 21.4983C205.543 21.4983 204.058 22.8976 204.058 24.5997C204.058 26.3163 205.543 27.7154 207.34 27.7154Z" fill="#3C2979"/>
<path d="M214.03 61.0397H220.107V49.1822H220.293C221.135 51.0286 222.975 53.0915 226.514 53.0915C231.51 53.0915 235.404 49.0958 235.404 41.6811C235.404 34.0649 231.337 30.2854 226.528 30.2854C222.861 30.2854 221.107 32.4924 220.293 34.2956H220.021V30.574H214.03V61.0397ZM219.979 41.6524C219.979 37.6999 221.634 35.1756 224.587 35.1756C227.6 35.1756 229.198 37.8152 229.198 41.6524C229.198 45.5182 227.571 48.2013 224.587 48.2013C221.663 48.2013 219.979 45.6049 219.979 41.6524Z" fill="#3C2979"/>
<path d="M256.488 36.892C255.945 32.8099 252.693 30.2854 247.156 30.2854C241.547 30.2854 237.853 32.9108 237.865 37.1806C237.853 40.4984 239.92 42.6477 244.202 43.5133L247.998 44.2777C249.909 44.6672 250.781 45.374 250.808 46.4847C250.781 47.7973 249.368 48.735 247.242 48.735C245.071 48.735 243.631 47.7973 243.261 45.9943L237.282 46.3116C237.853 50.5525 241.419 53.1636 247.227 53.1636C252.905 53.1636 256.973 50.2352 256.987 45.8645C256.973 42.6622 254.903 40.7436 250.653 39.8636L246.684 39.0557C244.644 38.6086 243.888 37.9018 243.903 36.8343C243.888 35.5074 245.373 34.6418 247.255 34.6418C249.368 34.6418 250.623 35.8102 250.922 37.2382L256.488 36.892Z" fill="#3C2979"/>
<path d="M273.666 43.2951C273.681 46.2667 271.668 47.8246 269.485 47.8246C267.188 47.8246 265.704 46.1946 265.689 43.5835V30.5723H259.611V44.6799C259.624 49.8585 262.622 53.0176 267.03 53.0176C270.327 53.0176 272.696 51.301 273.681 48.7044H273.908V52.729H279.744V30.5723H273.666V43.2951Z" fill="#3C2979"/>
<path d="M283.4 52.7307H289.48V39.4309C289.48 36.9786 291.021 35.3486 293.047 35.3486C295.045 35.3486 296.386 36.7334 296.386 38.9117V52.7307H302.28V39.2C302.28 36.9065 303.579 35.3486 305.79 35.3486C307.731 35.3486 309.186 36.5747 309.186 39.0415V52.7307H315.251V37.8297C315.251 33.0261 312.426 30.2854 308.344 30.2854C305.133 30.2854 302.636 31.9443 301.737 34.4831H301.51C300.811 31.9154 298.569 30.2854 295.558 30.2854C292.605 30.2854 290.365 31.8722 289.451 34.4831H289.194V30.574H283.4V52.7307Z" fill="#3C2979"/>
<path d="M36.0485 4.25635H54.9933L47.3889 25.7391C34.0045 28.1167 23.7674 41.2073 23.7674 56.9997C23.7674 64.1238 25.8508 70.6983 29.3664 75.9873H4.21069L27.2078 11.02C28.6537 6.93497 32.155 4.25635 36.0485 4.25635Z" fill="#341492"/>
<path d="M54.9933 4.25635L49.6489 19.3544L48.0386 4.25635H54.9933Z" fill="black" fill-opacity="0.3"/>
<path d="M66.9834 4.25635H48.0386L55.611 25.6484C69.2617 27.7628 79.7777 40.9934 79.7777 56.9997C79.7777 64.1238 77.6944 70.6983 74.1788 75.9873H98.8211L75.8241 11.02C74.3782 6.93497 70.8769 4.25635 66.9834 4.25635Z" fill="#4C28B5"/>
<path d="M32.67 73.917C29.4325 69.2562 27.502 63.3813 27.502 56.9967C27.502 41.8494 38.3685 29.5703 51.7729 29.5703C65.1775 29.5703 76.0441 41.8494 76.0441 56.9967C76.0441 63.3813 74.1135 69.2562 70.8761 73.917C65.5613 69.9172 58.9449 67.5454 51.7729 67.5454C44.6011 67.5454 37.9847 69.9172 32.67 73.917Z" fill="#4C28B5"/>
</g>
</g>
<defs>
<filter id="filter0_f_0_1" x="-680" y="-1064" width="2720" height="1708" filterUnits="userSpaceOnUse" color-interpolation-filters="sRGB">
<feFlood flood-opacity="0" result="BackgroundImageFix"/>
<feBlend mode="normal" in="SourceGraphic" in2="BackgroundImageFix" result="shape"/>
<feGaussianBlur stdDeviation="200" result="effect1_foregroundBlur_0_1"/>
</filter>
<linearGradient id="paint0_linear_0_1" x1="-261.5" y1="-210" x2="1629.5" y2="-210" gradientUnits="userSpaceOnUse">
<stop stop-color="#9B51E0"/>
<stop offset="1" stop-color="#27AE60"/>
</linearGradient>
<clipPath id="clip0_0_1">
<rect width="1920" height="12925" fill="white" transform="translate(-280 -7110)"/>
</clipPath>
<clipPath id="clip1_0_1">
<rect width="1920" height="908" fill="white" transform="translate(-280 -664)"/>
</clipPath>
</defs>
</svg>
