<svg width="178" height="40" viewBox="0 0 178 40" fill="none" xmlns="http://www.w3.org/2000/svg">
<g id="Group 1281">
<g id="Icon">
<path id="Fill 2" fill-rule="evenodd" clip-rule="evenodd" d="M37.9881 29.3174C34.7108 35.6649 28.195 39.9999 20.7092 39.9999H1.68213V29.3174H37.9881Z" fill="#5367FF"/>
<path id="Fill 3" fill-rule="evenodd" clip-rule="evenodd" d="M37.9861 10.6825H0V0H20.7077C28.1935 0 34.7088 4.33498 37.9861 10.6825Z" fill="#5367FF"/>
<path id="Fill 4" fill-rule="evenodd" clip-rule="evenodd" d="M39.9995 20.0003C39.9995 21.6632 39.7869 23.3277 39.3658 24.9668H4.43848V15.0339H39.3658C39.7869 16.6725 39.9995 18.3369 39.9995 20.0003Z" fill="#5367FF"/>
</g>
<path id="Vector" d="M65.2232 16.1314H62.1995C62.1443 15.7541 62.0315 15.4189 61.8612 15.126C61.6909 14.8286 61.4723 14.5756 61.2054 14.3669C60.9385 14.1583 60.6301 13.9985 60.2803 13.8875C59.9351 13.7765 59.56 13.7211 59.155 13.7211C58.4233 13.7211 57.7858 13.8964 57.2427 14.2471C56.6997 14.5933 56.2785 15.0993 55.9794 15.7652C55.6802 16.4266 55.5307 17.23 55.5307 18.1755C55.5307 19.1476 55.6802 19.9644 55.9794 20.6258C56.2832 21.2872 56.7066 21.7866 57.2497 22.1239C57.7927 22.4613 58.421 22.63 59.1343 22.63C59.5347 22.63 59.9052 22.5789 60.2458 22.4768C60.591 22.3747 60.897 22.226 61.164 22.0307C61.4309 21.831 61.6518 21.5891 61.8267 21.3049C62.0062 21.0209 62.1305 20.6969 62.1995 20.3328L65.2232 20.3461C65.145 20.972 64.9494 21.5758 64.6364 22.1572C64.3281 22.7343 63.9116 23.2515 63.3869 23.7087C62.8669 24.1614 62.2456 24.5209 61.5229 24.7873C60.805 25.0492 59.9927 25.1802 59.086 25.1802C57.8249 25.1802 56.6974 24.9049 55.7033 24.3545C54.7137 23.8041 53.9313 23.0073 53.356 21.9642C52.7853 20.921 52.5 19.6581 52.5 18.1755C52.5 16.6885 52.7899 15.4234 53.3698 14.3802C53.9497 13.3371 54.7368 12.5425 55.7309 11.9965C56.725 11.4461 57.8434 11.1709 59.086 11.1709C59.9052 11.1709 60.6646 11.2819 61.3642 11.5038C62.0683 11.7258 62.6919 12.0498 63.2351 12.4759C63.7781 12.8976 64.2199 13.4148 64.5605 14.0273C64.9057 14.6399 65.1266 15.3413 65.2232 16.1314ZM66.9227 24.9937V14.7664H69.774V16.5509H69.8844C70.0777 15.9161 70.4022 15.4367 70.8578 15.1127C71.3134 14.7842 71.8381 14.6199 72.4319 14.6199C72.5791 14.6199 72.7378 14.6288 72.9081 14.6466C73.0784 14.6643 73.228 14.6887 73.3569 14.7198V17.2367C73.2188 17.1967 73.0278 17.1612 72.7839 17.1302C72.5399 17.0991 72.3168 17.0835 72.1143 17.0835C71.6816 17.0835 71.2951 17.1745 70.9545 17.3565C70.6185 17.5341 70.3515 17.7827 70.1536 18.1023C69.9603 18.4219 69.8637 18.7903 69.8637 19.2076V24.9937H66.9227ZM76.627 28.8289C76.2541 28.8289 75.9044 28.8001 75.5776 28.7424C75.2555 28.6891 74.9886 28.6203 74.7769 28.536L75.4396 26.4186C75.7847 26.5207 76.0954 26.5762 76.3715 26.585C76.6523 26.5939 76.8939 26.5318 77.0964 26.3986C77.3035 26.2654 77.4715 26.0391 77.6004 25.7194L77.7729 25.2867L73.9691 14.7664H77.0619L79.2572 22.2771H79.3677L81.5837 14.7664H84.6972L80.5758 26.099C80.3779 26.6494 80.1087 27.1289 79.7681 27.5372C79.4322 27.95 79.0064 28.2675 78.4909 28.4894C77.9755 28.7158 77.3542 28.8289 76.627 28.8289ZM85.8134 28.8289V14.7664H88.7129V16.4843H88.844C88.9729 16.2091 89.1594 15.9294 89.4032 15.6453C89.6518 15.3568 89.9739 15.1171 90.3697 14.9262C90.7702 14.7309 91.2672 14.6333 91.8609 14.6333C92.6341 14.6333 93.3475 14.8286 94.001 15.2192C94.6546 15.6054 95.1769 16.1891 95.5681 16.9704C95.9593 17.7472 96.1549 18.7215 96.1549 19.8934C96.1549 21.0342 95.9639 21.9975 95.5819 22.7831C95.2046 23.5644 94.6891 24.157 94.0355 24.561C93.3866 24.9604 92.6594 25.1602 91.854 25.1602C91.2833 25.1602 90.7978 25.0692 90.3973 24.8872C90.0015 24.7051 89.6771 24.4766 89.4239 24.2013C89.1708 23.9217 88.9775 23.6399 88.844 23.3557H88.7543V28.8289H85.8134ZM88.6922 19.8801C88.6922 20.4882 88.7796 21.0186 88.9546 21.4714C89.1294 21.9242 89.3825 22.2771 89.7139 22.5301C90.0453 22.7787 90.448 22.903 90.922 22.903C91.4006 22.903 91.8057 22.7764 92.1371 22.5235C92.4684 22.266 92.7193 21.9108 92.8896 21.4581C93.0645 21.0009 93.1518 20.4749 93.1518 19.8801C93.1518 19.2897 93.0667 18.7703 92.8965 18.322C92.7262 17.8737 92.4753 17.523 92.144 17.27C91.8126 17.017 91.4053 16.8904 90.922 16.8904C90.4434 16.8904 90.0384 17.0125 89.707 17.2567C89.3802 17.5008 89.1294 17.847 88.9546 18.2954C88.7796 18.7437 88.6922 19.2719 88.6922 19.8801ZM103.367 14.7664V16.8971H96.9811V14.7664H103.367ZM98.4309 12.3161H101.372V21.8509C101.372 22.1129 101.413 22.317 101.496 22.4635C101.579 22.6056 101.694 22.7055 101.841 22.7631C101.993 22.8209 102.168 22.8497 102.366 22.8497C102.504 22.8497 102.642 22.8386 102.78 22.8165C102.918 22.7897 103.024 22.7698 103.098 22.7565L103.56 24.8672C103.413 24.9116 103.206 24.9627 102.939 25.0203C102.672 25.0825 102.348 25.1202 101.966 25.1335C101.257 25.1602 100.635 25.0692 100.102 24.8606C99.5722 24.6519 99.1604 24.3279 98.8659 23.8884C98.5712 23.449 98.4263 22.8941 98.4309 22.2239V12.3161ZM109.571 25.1935C108.499 25.1935 107.571 24.9737 106.789 24.5342C106.011 24.0904 105.41 23.4734 104.987 22.6832C104.564 21.8887 104.352 20.9676 104.352 19.92C104.352 18.8636 104.564 17.9403 104.987 17.1501C105.41 16.3556 106.011 15.7386 106.789 15.2991C107.571 14.8552 108.499 14.6333 109.571 14.6333C110.643 14.6333 111.568 14.8552 112.346 15.2991C113.129 15.7386 113.732 16.3556 114.155 17.1501C114.578 17.9403 114.79 18.8636 114.79 19.92C114.79 20.9676 114.578 21.8887 114.155 22.6832C113.732 23.4734 113.129 24.0904 112.346 24.5342C111.568 24.9737 110.643 25.1935 109.571 25.1935ZM109.585 22.9962C110.073 22.9962 110.48 22.8631 110.807 22.5967C111.134 22.326 111.38 21.9575 111.545 21.4914C111.716 21.0253 111.801 20.4948 111.801 19.9C111.801 19.3052 111.716 18.7748 111.545 18.3087C111.38 17.8426 111.134 17.4742 110.807 17.2034C110.48 16.9326 110.073 16.7972 109.585 16.7972C109.092 16.7972 108.678 16.9326 108.342 17.2034C108.011 17.4742 107.76 17.8426 107.59 18.3087C107.424 18.7748 107.341 19.3052 107.341 19.9C107.341 20.4948 107.424 21.0253 107.59 21.4914C107.76 21.9575 108.011 22.326 108.342 22.5967C108.678 22.8631 109.092 22.9962 109.585 22.9962ZM120.479 24.9937V11.3573H126.057C127.13 11.3573 128.043 11.5549 128.798 11.9499C129.553 12.3406 130.128 12.8843 130.524 13.5812C130.924 14.2737 131.125 15.0727 131.125 15.9783C131.125 16.8838 130.922 17.6828 130.517 18.3753C130.112 19.0677 129.525 19.6071 128.757 19.9933C127.993 20.3794 127.068 20.5725 125.982 20.5725H122.426V18.2621H125.498C126.074 18.2621 126.548 18.1666 126.92 17.9758C127.298 17.7805 127.579 17.5119 127.763 17.1701C127.951 16.8239 128.046 16.4266 128.046 15.9783C128.046 15.5255 127.951 15.1304 127.763 14.7931C127.579 14.4513 127.298 14.1871 126.92 14.0007C126.543 13.8098 126.064 13.7144 125.484 13.7144H123.469V24.9937H120.479ZM135.563 11.3573V24.9937H132.622V11.3573H135.563ZM140.554 25.1868C139.877 25.1868 139.275 25.0736 138.745 24.8473C138.216 24.6164 137.797 24.2768 137.489 23.8285C137.185 23.3757 137.033 22.812 137.033 22.1372C137.033 21.5691 137.141 21.0919 137.358 20.7057C137.574 20.3195 137.868 20.0088 138.241 19.7735C138.614 19.5383 139.038 19.3607 139.512 19.2409C139.99 19.121 140.492 19.0367 141.016 18.9878C141.633 18.9257 142.13 18.868 142.508 18.8147C142.885 18.757 143.159 18.6727 143.329 18.5617C143.5 18.4507 143.585 18.2865 143.585 18.069V18.029C143.585 17.6073 143.447 17.2811 143.17 17.0503C142.899 16.8194 142.512 16.704 142.011 16.704C141.481 16.704 141.06 16.8172 140.747 17.0436C140.434 17.2655 140.227 17.5452 140.126 17.8826L137.406 17.6695C137.544 17.048 137.816 16.5109 138.221 16.0582C138.626 15.6009 139.148 15.2503 139.788 15.0061C140.432 14.7576 141.178 14.6333 142.024 14.6333C142.614 14.6333 143.177 14.6998 143.716 14.833C144.259 14.9662 144.74 15.1726 145.159 15.4522C145.582 15.7319 145.916 16.0914 146.16 16.5309C146.404 16.9659 146.526 17.4875 146.526 18.0956V24.9937H143.736V23.5755H143.654C143.483 23.8951 143.256 24.177 142.97 24.4211C142.685 24.6608 142.342 24.8494 141.942 24.9871C141.541 25.1202 141.079 25.1868 140.554 25.1868ZM141.396 23.2292C141.829 23.2292 142.211 23.1471 142.542 22.9829C142.874 22.8142 143.134 22.5878 143.322 22.3037C143.511 22.0197 143.605 21.6978 143.605 21.3383V20.2529C143.513 20.3106 143.387 20.364 143.226 20.4127C143.069 20.4571 142.892 20.4993 142.694 20.5393C142.496 20.5748 142.298 20.6081 142.1 20.6391C141.902 20.6657 141.723 20.6902 141.562 20.7123C141.217 20.7612 140.915 20.8389 140.658 20.9454C140.4 21.052 140.2 21.1962 140.057 21.3782C139.914 21.5558 139.843 21.7777 139.843 22.0441C139.843 22.4302 139.988 22.7254 140.278 22.9296C140.572 23.1294 140.945 23.2292 141.396 23.2292ZM151.359 19.0811V24.9937H148.418V14.7664H151.221V16.5708H151.345C151.581 15.976 151.974 15.5055 152.526 15.1593C153.078 14.8086 153.748 14.6333 154.534 14.6333C155.271 14.6333 155.914 14.7886 156.461 15.0993C157.008 15.4101 157.434 15.854 157.738 16.431C158.042 17.0036 158.194 17.6872 158.194 18.4818V24.9937H155.253V18.9878C155.258 18.362 155.091 17.8737 154.756 17.523C154.42 17.1679 153.957 16.9903 153.368 16.9903C152.972 16.9903 152.623 17.0724 152.319 17.2367C152.02 17.4009 151.785 17.6406 151.615 17.9558C151.449 18.2665 151.364 18.6416 151.359 19.0811ZM164.956 25.1935C163.865 25.1935 162.926 24.9804 162.139 24.5542C161.356 24.1237 160.753 23.5156 160.33 22.7298C159.907 21.9397 159.695 21.0053 159.695 19.9267C159.695 18.8747 159.907 17.9514 160.33 17.1568C160.753 16.3622 161.349 15.743 162.118 15.2991C162.891 14.8552 163.798 14.6333 164.838 14.6333C165.538 14.6333 166.189 14.742 166.792 14.9595C167.399 15.1726 167.929 15.4944 168.38 15.925C168.835 16.3556 169.19 16.8971 169.442 17.5496C169.696 18.1977 169.822 18.9568 169.822 19.8268V20.6058H160.868V18.848H167.054C167.054 18.4396 166.962 18.0779 166.778 17.7627C166.593 17.4475 166.339 17.2012 166.011 17.0236C165.689 16.8416 165.314 16.7506 164.886 16.7506C164.44 16.7506 164.044 16.8505 163.699 17.0503C163.358 17.2456 163.091 17.5097 162.898 17.8426C162.705 18.1711 162.606 18.5373 162.601 18.9412V20.6125C162.601 21.1185 162.698 21.5558 162.891 21.9242C163.089 22.2926 163.367 22.5767 163.727 22.7764C164.086 22.9762 164.511 23.0761 165.004 23.0761C165.331 23.0761 165.63 23.0317 165.901 22.9429C166.172 22.8541 166.405 22.721 166.598 22.5435C166.792 22.3659 166.939 22.1484 167.041 21.8909L169.76 22.064C169.622 22.6943 169.339 23.2448 168.911 23.7153C168.488 24.1814 167.94 24.5454 167.268 24.8072C166.601 25.0648 165.829 25.1935 164.956 25.1935ZM176.993 14.7664V16.8971H170.607V14.7664H176.993ZM172.057 12.3161H174.997V21.8509C174.997 22.1129 175.039 22.317 175.122 22.4635C175.205 22.6056 175.32 22.7055 175.467 22.7631C175.62 22.8209 175.795 22.8497 175.992 22.8497C176.13 22.8497 176.268 22.8386 176.406 22.8165C176.544 22.7897 176.65 22.7698 176.724 22.7565L177.186 24.8672C177.039 24.9116 176.832 24.9627 176.565 25.0203C176.298 25.0825 175.973 25.1202 175.591 25.1335C174.883 25.1602 174.262 25.0692 173.728 24.8606C173.198 24.6519 172.786 24.3279 172.492 23.8884C172.197 23.449 172.052 22.8941 172.057 22.2239V12.3161Z" fill="#2B3144"/>
</g>
</svg>
