<svg width="32" height="32" viewBox="0 0 32 32" fill="none" xmlns="http://www.w3.org/2000/svg">
<g id="market" clip-path="url(#clip0_246_1247)">
<path id="Vector" fill-rule="evenodd" clip-rule="evenodd" d="M23.2259 30.5803V16.905C23.2259 16.5956 23.1029 16.299 22.8842 16.08C22.6652 15.8613 22.3686 15.7383 22.0592 15.7383C21.3382 15.7383 20.1952 15.7383 19.4742 15.7383C19.1649 15.7383 18.8679 15.8613 18.6492 16.08C18.4306 16.299 18.3076 16.5956 18.3076 16.905C18.3076 19.7313 18.3076 30.5803 18.3076 30.5803C18.3076 30.8563 18.5316 31.0803 18.8076 31.0803C19.0836 31.0803 19.3076 30.8563 19.3076 30.5803C19.3076 30.5803 19.3076 19.7313 19.3076 16.905C19.3076 16.861 19.3249 16.8183 19.3562 16.7873C19.3876 16.756 19.4299 16.7383 19.4742 16.7383H22.0592C22.1032 16.7383 22.1459 16.756 22.1769 16.7873C22.2082 16.8183 22.2259 16.861 22.2259 16.905V30.5803C22.2259 30.8563 22.4499 31.0803 22.7259 31.0803C23.0019 31.0803 23.2259 30.8563 23.2259 30.5803ZM30.3636 30.5803V13.89C30.3636 13.5806 30.2406 13.284 30.0219 13.065C29.8029 12.8463 29.5062 12.7233 29.1969 12.7233C28.4759 12.7233 27.3329 12.7233 26.6119 12.7233C26.3026 12.7233 26.0056 12.8463 25.7869 13.065C25.5682 13.284 25.4452 13.5806 25.4452 13.89C25.4452 17.074 25.4452 30.5803 25.4452 30.5803C25.4452 30.8563 25.6692 31.0803 25.9452 31.0803C26.2212 31.0803 26.4452 30.8563 26.4452 30.5803C26.4452 30.5803 26.4452 17.074 26.4452 13.89C26.4452 13.8456 26.4629 13.8033 26.4939 13.7723C26.5252 13.741 26.5676 13.7233 26.6119 13.7233H29.1969C29.2412 13.7233 29.2836 13.741 29.3146 13.7723C29.3459 13.8033 29.3636 13.8456 29.3636 13.89V30.5803C29.3636 30.8563 29.5876 31.0803 29.8636 31.0803C30.1396 31.0803 30.3636 30.8563 30.3636 30.5803ZM16.0882 30.5803V19.7716C16.0882 19.4623 15.9652 19.1656 15.7466 18.947C15.5276 18.728 15.2309 18.605 14.9216 18.605C14.2002 18.605 13.0576 18.605 12.3366 18.605C12.0269 18.605 11.7302 18.728 11.5116 18.947C11.2926 19.1656 11.1699 19.4623 11.1699 19.7716C11.1699 22.221 11.1699 30.5803 11.1699 30.5803C11.1699 30.8563 11.3939 31.0803 11.6699 31.0803C11.9459 31.0803 12.1699 30.8563 12.1699 30.5803C12.1699 30.5803 12.1699 22.221 12.1699 19.7716C12.1699 19.7276 12.1872 19.6853 12.2186 19.654C12.2499 19.6226 12.2922 19.605 12.3366 19.605H14.9216C14.9656 19.605 15.0079 19.6226 15.0392 19.654C15.0706 19.6853 15.0882 19.7276 15.0882 19.7716V30.5803C15.0882 30.8563 15.3122 31.0803 15.5882 31.0803C15.8642 31.0803 16.0882 30.8563 16.0882 30.5803ZM8.95056 30.5803V22.9563C8.95056 22.6466 8.82756 22.35 8.60856 22.1313C8.38989 21.9123 8.09323 21.7896 7.78389 21.7896C7.06256 21.7896 5.91989 21.7896 5.19889 21.7896C4.88923 21.7896 4.59256 21.9123 4.37389 22.1313C4.15489 22.35 4.03223 22.6466 4.03223 22.9563C4.03223 24.9256 4.03223 30.5803 4.03223 30.5803C4.03223 30.8563 4.25623 31.0803 4.53223 31.0803C4.80789 31.0803 5.03223 30.8563 5.03223 30.5803C5.03223 30.5803 5.03223 24.9256 5.03223 22.9563C5.03223 22.912 5.04956 22.8696 5.08089 22.8383C5.11223 22.807 5.15456 22.7896 5.19889 22.7896H7.78389C7.82789 22.7896 7.87023 22.807 7.90156 22.8383C7.93289 22.8696 7.95056 22.912 7.95056 22.9563V30.5803C7.95056 30.8563 8.17456 31.0803 8.45056 31.0803C8.72623 31.0803 8.95056 30.8563 8.95056 30.5803ZM14.5046 11.2166L7.78389 12.681C7.51423 12.74 7.34289 13.0063 7.40156 13.276C7.46056 13.5456 7.72689 13.717 7.99656 13.6583L14.7176 12.194C14.9872 12.135 15.1582 11.8683 15.0996 11.599C15.0409 11.3293 14.7742 11.158 14.5046 11.2166ZM25.1866 4.81164L18.6582 9.39497C18.4326 9.55364 18.3779 9.86564 18.5366 10.0916C18.6949 10.3173 19.0072 10.372 19.2329 10.2133L25.7612 5.62997C25.9872 5.47131 26.0416 5.15931 25.8832 4.93331C25.7246 4.70764 25.4126 4.65297 25.1866 4.81164Z" fill="url(#paint0_linear_246_1247)"/>
<path id="Vector_2" fill-rule="evenodd" clip-rule="evenodd" d="M27.4494 6.74768C29.0578 6.74768 30.3634 5.44201 30.3634 3.83368C30.3634 2.22534 29.0578 0.919678 27.4494 0.919678C25.8411 0.919678 24.5354 2.22534 24.5354 3.83368C24.5354 5.44201 25.8411 6.74768 27.4494 6.74768ZM27.4494 5.74768C26.3931 5.74768 25.5354 4.89001 25.5354 3.83368C25.5354 2.77734 26.3931 1.91968 27.4494 1.91968C28.5058 1.91968 29.3634 2.77734 29.3634 3.83368C29.3634 4.89001 28.5058 5.74768 27.4494 5.74768ZM16.9701 14.1053C18.5784 14.1053 19.8841 12.7997 19.8841 11.1913C19.8841 9.58301 18.5784 8.27734 16.9701 8.27734C15.3618 8.27734 14.0561 9.58301 14.0561 11.1913C14.0561 12.7997 15.3618 14.1053 16.9701 14.1053ZM16.9701 13.1053C15.9138 13.1053 15.0561 12.2477 15.0561 11.1913C15.0561 10.135 15.9138 9.27734 16.9701 9.27734C18.0264 9.27734 18.8841 10.135 18.8841 11.1913C18.8841 12.2477 18.0264 13.1053 16.9701 13.1053ZM5.4761 16.6097C7.08443 16.6097 8.3901 15.304 8.3901 13.6957C8.3901 12.0873 7.08443 10.7817 5.4761 10.7817C3.86777 10.7817 2.56177 12.0873 2.56177 13.6957C2.56177 15.304 3.86777 16.6097 5.4761 16.6097ZM5.4761 15.6097C4.41943 15.6097 3.56177 14.752 3.56177 13.6957C3.56177 12.6393 4.41943 11.7817 5.4761 11.7817C6.53243 11.7817 7.3901 12.6393 7.3901 13.6957C7.3901 14.752 6.53243 15.6097 5.4761 15.6097Z" fill="url(#paint1_linear_246_1247)"/>
<path id="Vector_3" fill-rule="evenodd" clip-rule="evenodd" d="M0.166748 1.41968V29.5803C0.166748 30.4087 0.838415 31.0803 1.66675 31.0803C6.94608 31.0803 31.3334 31.0803 31.3334 31.0803C31.6094 31.0803 31.8334 30.8563 31.8334 30.5803C31.8334 30.3043 31.6094 30.0803 31.3334 30.0803H1.66675C1.39075 30.0803 1.16675 29.8563 1.16675 29.5803V1.41968C1.16675 1.14368 0.942748 0.919678 0.666748 0.919678C0.390748 0.919678 0.166748 1.14368 0.166748 1.41968Z" fill="url(#paint2_linear_246_1247)"/>
<path id="Vector_4" fill-rule="evenodd" clip-rule="evenodd" d="M3.06177 5.52832H11.5271C11.8031 5.52832 12.0271 5.30432 12.0271 5.02832C12.0271 4.75232 11.8031 4.52832 11.5271 4.52832H3.06177C2.7861 4.52832 2.56177 4.75232 2.56177 5.02832C2.56177 5.30432 2.7861 5.52832 3.06177 5.52832ZM3.06177 7.96732H7.8441C8.1201 7.96732 8.3441 7.74332 8.3441 7.46732C8.3441 7.19132 8.1201 6.96732 7.8441 6.96732H3.06177C2.7861 6.96732 2.56177 7.19132 2.56177 7.46732C2.56177 7.74332 2.7861 7.96732 3.06177 7.96732Z" fill="url(#paint3_linear_246_1247)"/>
</g>
<defs>
<linearGradient id="paint0_linear_246_1247" x1="4.03223" y1="9.38195" x2="32.4272" y2="23.3488" gradientUnits="userSpaceOnUse">
<stop stop-color="#2F80ED"/>
<stop offset="1" stop-color="#DE19DF"/>
</linearGradient>
<linearGradient id="paint1_linear_246_1247" x1="2.56177" y1="3.69413" x2="23.7024" y2="22.1394" gradientUnits="userSpaceOnUse">
<stop stop-color="#2F80ED"/>
<stop offset="1" stop-color="#DE19DF"/>
</linearGradient>
<linearGradient id="paint2_linear_246_1247" x1="0.166748" y1="6.25297" x2="33.6325" y2="23.5544" gradientUnits="userSpaceOnUse">
<stop stop-color="#2F80ED"/>
<stop offset="1" stop-color="#DE19DF"/>
</linearGradient>
<linearGradient id="paint3_linear_246_1247" x1="2.56177" y1="5.13644" x2="7.03054" y2="11.1928" gradientUnits="userSpaceOnUse">
<stop stop-color="#2F80ED"/>
<stop offset="1" stop-color="#DE19DF"/>
</linearGradient>
<clipPath id="clip0_246_1247">
<rect width="32" height="32" fill="white"/>
</clipPath>
</defs>
</svg>
