<svg width="48" height="48" viewBox="0 0 48 48" fill="none" xmlns="http://www.w3.org/2000/svg">
<g id="mobile-application">
<path id="Vector" d="M18.8899 39.4165C17.9347 39.4165 17.1577 40.1935 17.1577 41.1484C17.1577 42.1033 17.9347 42.8806 18.8899 42.8806C19.8451 42.8806 20.6218 42.1033 20.6218 41.1484C20.6218 40.1935 19.8451 39.4165 18.8899 39.4165Z" fill="white"/>
<path id="Vector_2" d="M30.0688 25.0672C29.9317 25.012 29.8072 24.9379 29.6911 24.8548V42.0109C29.6911 43.2835 28.6558 44.3191 27.3832 44.3191H10.3972C9.12456 44.3191 8.08926 43.2835 8.08926 42.0109V13.507C8.08926 12.2344 9.12456 11.1991 10.3972 11.1991H23.3962V9.09912H10.3972C7.96656 9.09912 5.98926 11.0764 5.98926 13.507V42.0106C5.98926 44.4415 7.96656 46.4188 10.3972 46.4188H27.3832C29.8138 46.4188 31.7911 44.4412 31.7911 42.0106V24.8572C31.4869 25.0753 31.1185 25.1977 30.7408 25.1977C30.5095 25.1974 30.2839 25.1536 30.0688 25.0672Z" fill="white"/>
<path id="Vector_3" d="M15.6328 31.5968H12.0649C11.6506 31.5968 11.3149 31.9325 11.3149 32.3468V35.915C11.3149 36.3293 11.6506 36.665 12.0649 36.665H15.6328C16.0471 36.665 16.3828 36.3293 16.3828 35.915V32.3468C16.3828 31.9328 16.0471 31.5968 15.6328 31.5968ZM14.8828 35.165H12.8149V33.0968H14.8828V35.165ZM16.3828 16.8914C16.3828 16.4771 16.0471 16.1414 15.6328 16.1414H12.0649C11.6506 16.1414 11.3149 16.4771 11.3149 16.8914V20.4593C11.3149 20.8736 11.6506 21.2093 12.0649 21.2093H15.6328C16.0471 21.2093 16.3828 20.8736 16.3828 20.4593V16.8914ZM14.8828 19.7093H12.8149V17.6414H14.8828V19.7093ZM16.3828 24.6194C16.3828 24.2051 16.0471 23.8694 15.6328 23.8694H12.0649C11.6506 23.8694 11.3149 24.2051 11.3149 24.6194V28.1873C11.3149 28.6016 11.6506 28.9373 12.0649 28.9373H15.6328C16.0471 28.9373 16.3828 28.6016 16.3828 28.1873V24.6194ZM14.8828 27.437H12.8149V25.3691H14.8828V27.437ZM24.9988 25.6532H20.4718C20.0575 25.6532 19.7218 25.9889 19.7218 26.4032C19.7218 26.8175 20.0575 27.1532 20.4718 27.1532H24.9988C25.4131 27.1532 25.7488 26.8175 25.7488 26.4032C25.7488 25.9889 25.4131 25.6532 24.9988 25.6532ZM33.1615 5.40771C30.3313 5.40771 28.0291 7.71022 28.0291 10.5401C28.0291 13.3703 30.3316 15.6728 33.1615 15.6728C35.9914 15.6728 38.2939 13.3703 38.2939 10.5401C38.2942 7.70991 35.9917 5.40771 33.1615 5.40771ZM33.1615 14.1728C31.1584 14.1728 29.5291 12.5432 29.5291 10.5401C29.5291 8.53701 31.1587 6.90771 33.1615 6.90771C35.1643 6.90771 36.7939 8.53731 36.7939 10.5401C36.7939 12.5429 35.1646 14.1728 33.1615 14.1728Z" fill="white"/>
<path id="Vector_4" d="M34.2564 8.91854L32.7084 10.6318L31.9803 10.0474C31.6566 9.78794 31.185 9.84014 30.9258 10.1629C30.6666 10.486 30.7182 10.9579 31.041 11.2174L32.3208 12.2446C32.4591 12.3556 32.625 12.4096 32.79 12.4096C32.9955 12.4096 33.1992 12.3259 33.3465 12.1624L35.3688 9.92444C35.6466 9.61724 35.6226 9.14294 35.3151 8.86514C35.0088 8.58704 34.5339 8.61134 34.2564 8.91854ZM24.999 19.7095H20.52C20.1057 19.7095 19.77 20.0452 19.77 20.4595C19.77 20.8738 20.1057 21.2095 20.52 21.2095H24.999C25.4133 21.2095 25.749 20.8738 25.749 20.4595C25.749 20.0452 25.4133 19.7095 24.999 19.7095ZM24.999 31.597H20.52C20.1057 31.597 19.77 31.9327 19.77 32.347C19.77 32.7613 20.1057 33.097 20.52 33.097H24.999C25.4133 33.097 25.749 32.7613 25.749 32.347C25.749 31.9327 25.4133 31.597 24.999 31.597ZM25.749 35.9152C25.749 35.5009 25.4133 35.1652 24.999 35.1652H20.52C20.1057 35.1652 19.77 35.5009 19.77 35.9152C19.77 36.3295 20.1057 36.6652 20.52 36.6652H24.999C25.4133 36.6652 25.749 36.3295 25.749 35.9152ZM23.3961 16.1416H20.5203C20.106 16.1416 19.7703 16.4773 19.7703 16.8916C19.7703 17.3059 20.106 17.6416 20.5203 17.6416H23.6646C23.4936 17.1982 23.3961 16.7188 23.3961 16.2163V16.1416Z" fill="white"/>
<path id="Vector_5" d="M38.7812 1.58105H27.3761C25.595 1.58105 24.146 3.03005 24.146 4.81115V16.2163C24.146 17.9974 25.595 19.4461 27.3761 19.4461H29.6912V23.3974C29.6912 23.8258 29.9513 24.2113 30.3485 24.3712C30.476 24.4225 30.6089 24.4474 30.7409 24.4474C31.0211 24.4474 31.2959 24.3352 31.4975 24.1255L36.0011 19.4461H38.7812C40.5623 19.4461 42.0113 17.9971 42.0113 16.2163V4.81115C42.011 3.03005 40.562 1.58105 38.7812 1.58105ZM39.911 16.2163C39.911 16.8394 39.4043 17.3461 38.7809 17.3461H35.5541C35.2688 17.3461 34.9955 17.4622 34.7978 17.668L31.7912 20.7922V18.3961C31.7912 17.8162 31.3211 17.3461 30.7412 17.3461H27.3761C26.753 17.3461 26.246 16.8394 26.246 16.2163V4.81115C26.246 4.18805 26.7527 3.68105 27.3761 3.68105H38.7812C39.4043 3.68105 39.9113 4.18775 39.9113 4.81115L39.911 16.2163Z" fill="white"/>
</g>
</svg>
