<svg width="32" height="32" viewBox="0 0 32 32" fill="none" xmlns="http://www.w3.org/2000/svg">
<g id="on-time">
<path id="Vector" d="M29.5 27.75H21.3101C20.6554 27.7602 20.6508 28.7388 21.3101 28.75C21.3101 28.75 29.5 28.75 29.5 28.75C30.1547 28.7398 30.1593 27.7612 29.5 27.75ZM29.5 24.75H24.365C23.7093 24.7605 23.7066 25.7389 24.365 25.75C24.365 25.75 29.5 25.75 29.5 25.75C30.1557 25.7395 30.1584 24.7611 29.5 24.75ZM29.5 21.75H26.0349C25.3787 21.7607 25.3769 22.739 26.0349 22.75C26.0349 22.75 29.5 22.75 29.5 22.75C30.1562 22.7393 30.158 21.761 29.5 21.75ZM3 17.25C2.9796 7.96562 14.3828 3.24129 20.9192 9.81718C21.1083 10.0233 21.4401 10.0214 21.6345 9.82226L22.6924 8.76464C23.1488 8.30059 22.4533 7.59666 21.9853 8.05764C21.9854 8.05761 21.2626 8.7802 21.2626 8.7802C19.89 7.5202 18.265 6.62844 16.5 6.1549V4.25H17C17.6545 4.24171 17.6588 3.25989 17 3.25C17 3.25 10 3.25 10 3.25C9.34433 3.26237 9.34098 4.23764 10 4.25C10 4.25 10.5 4.25 10.5 4.25V6.14951C8.69876 6.63684 7.07123 7.55026 5.73407 8.77686L5.01465 8.05762C4.55715 7.59764 3.84334 8.2998 4.30765 8.76466C4.30762 8.76464 5.02704 9.48388 5.02704 9.48388C3.14868 11.5315 2 14.2588 2 17.25C2.01526 17.9034 2.98494 17.9119 3 17.25ZM11.5 4.25H15.5V5.93203C14.1996 5.69426 12.7966 5.69102 11.5 5.92771C11.5 5.9277 11.5 4.25 11.5 4.25ZM25 17.25C25 15.0908 24.3979 12.9849 23.259 11.1602C23.113 10.9258 22.8047 10.8545 22.5703 11.0005C22.3359 11.147 22.2647 11.4551 22.4109 11.6895C23.4504 13.3555 24 15.2783 24 17.25C23.7345 29.6853 6.2932 31.6916 3.2722 19.618C3.12173 18.9818 2.15787 19.1982 2.29762 19.8418C5.60929 33.0704 24.7101 30.867 25 17.25Z" fill="url(#paint0_linear_111_4102)"/>
<path id="Vector_2" d="M13.5 8.25C8.53735 8.25 4.5 12.2876 4.5 17.25C4.99452 29.1897 22.0073 29.1862 22.5 17.2499C22.5 12.2876 18.4626 8.25 13.5 8.25ZM13.5 25.25C9.08886 25.25 5.5 21.6611 5.5 17.25C5.93956 6.63693 21.0621 6.64002 21.5 17.2501C21.5 21.6611 17.9111 25.25 13.5 25.25Z" fill="url(#paint1_linear_111_4102)"/>
<path id="Vector_3" d="M15.8026 15.1254L12.6144 18.3139L11.1971 16.8964C10.7344 16.4362 10.0288 17.139 10.4901 17.6035C10.4901 17.6034 12.2608 19.3744 12.2608 19.3744C12.4471 19.568 12.7817 19.5682 12.9679 19.3744C12.9679 19.3744 16.5096 15.8324 16.5096 15.8324C16.9685 15.3697 16.2682 14.664 15.8026 15.1254Z" fill="url(#paint2_linear_111_4102)"/>
</g>
<defs>
<linearGradient id="paint0_linear_111_4102" x1="2" y1="7.75915" x2="31.0131" y2="23.4418" gradientUnits="userSpaceOnUse">
<stop stop-color="#2F80ED"/>
<stop offset="1" stop-color="#DE19DF"/>
</linearGradient>
<linearGradient id="paint1_linear_111_4102" x1="4.5" y1="11.4247" x2="23.883" y2="20.9937" gradientUnits="userSpaceOnUse">
<stop stop-color="#2F80ED"/>
<stop offset="1" stop-color="#DE19DF"/>
</linearGradient>
<linearGradient id="paint2_linear_111_4102" x1="10.3398" y1="15.7787" x2="16.1019" y2="19.724" gradientUnits="userSpaceOnUse">
<stop stop-color="#2F80ED"/>
<stop offset="1" stop-color="#DE19DF"/>
</linearGradient>
</defs>
</svg>
