<svg width="52" height="52" viewBox="0 0 52 52" fill="none" xmlns="http://www.w3.org/2000/svg">
<g id="profile">
<path id="Vector" d="M26.0002 4.33334C14.034 4.33334 4.3335 14.0339 4.3335 26C4.3335 37.9661 14.034 47.6667 26.0002 47.6667C37.9606 47.653 47.6532 37.9604 47.6668 26C47.6668 14.0339 37.9663 4.33334 26.0002 4.33334ZM26.0002 45.5C20.8017 45.5 16.0907 43.4529 12.595 40.137C14.0063 35.72 17.4932 32.2686 21.9437 30.9303C29.3154 28.7135 37.0751 32.8306 39.4077 40.1349C35.9118 43.452 31.1997 45.5 26.0002 45.5ZM19.5002 21.6667C19.5002 18.0768 22.4103 15.1667 26.0002 15.1667C29.5884 15.1706 32.4962 18.0784 32.5002 21.6667C32.5002 25.2565 29.59 28.1667 26.0002 28.1667C22.4103 28.1667 19.5002 25.2565 19.5002 21.6667ZM41.0631 38.3827C39.2455 33.8477 35.4879 30.3382 30.7721 28.8892C33.1143 27.3378 34.6635 24.6859 34.6668 21.6667C34.6668 16.8801 30.7867 13 26.0002 13C21.2136 13 17.3335 16.8801 17.3335 21.6667C17.3335 24.6838 18.8786 27.3351 21.2172 28.8873C16.6559 30.2968 12.7974 33.6918 10.9262 38.3679C8.16153 35.0022 6.50016 30.6955 6.50016 26C6.50016 15.2304 15.2306 6.5 26.0002 6.5C36.7647 6.51217 45.488 15.2354 45.5002 26C45.5002 30.7022 43.8348 35.0149 41.0631 38.3827Z" fill="url(#paint0_linear_246_890)"/>
</g>
<defs>
<linearGradient id="paint0_linear_246_890" x1="4.3335" y1="11.9959" x2="51.0435" y2="34.996" gradientUnits="userSpaceOnUse">
<stop stop-color="#2F80ED"/>
<stop offset="1" stop-color="#DE19DF"/>
</linearGradient>
</defs>
</svg>
