<svg width="32" height="32" viewBox="0 0 32 32" fill="none" xmlns="http://www.w3.org/2000/svg">
<g id="security" clip-path="url(#clip0_246_596)">
<path id="Vector" fill-rule="evenodd" clip-rule="evenodd" d="M31.9883 4.832C31.9787 4.35703 31.7819 3.90503 31.4407 3.57405C31.0995 3.24307 30.6414 3.0598 30.1658 3.064C29.7843 3.0664 29.413 3.18655 29.1026 3.408C28.0548 4.08686 26.827 4.43528 25.5784 4.408C23.8276 4.4 21.5417 3.752 20.8621 1.912C20.6766 1.36322 20.3259 0.885036 19.8581 0.54281C19.3902 0.200584 18.828 0.0110108 18.2482 0H13.7629C13.1821 0.0108187 12.6188 0.200196 12.1496 0.542334C11.6804 0.884472 11.3283 1.36274 11.141 1.912C10.4602 3.752 8.17515 4.408 6.42429 4.408C5.17592 4.43392 3.94842 4.08561 2.90015 3.408C2.58991 3.18651 2.21865 3.06635 1.83731 3.064C1.36163 3.05969 0.903433 3.24291 0.562153 3.5739C0.220873 3.9049 0.0240459 4.35696 0.014366 4.832C-0.337247 20.808 4.9946 29.944 15.8586 31.992C15.9062 31.9986 15.9543 32.0013 16.0023 32C16.0532 32.0011 16.1041 31.9984 16.1545 31.992C18.7983 31.534 21.3073 30.4957 23.5008 28.952C23.9278 29.0323 24.3614 29.0725 24.7959 29.072C26.705 29.0673 28.5343 28.3068 29.8829 26.9572C31.2316 25.6075 31.9894 23.7788 31.9903 21.872C31.9935 20.3872 31.5325 18.9385 30.6716 17.728C31.6615 14.096 32.1005 9.79733 31.9883 4.832ZM25.3057 27.44C25.1361 27.4628 24.965 27.4735 24.7939 27.472C24.2211 27.4747 23.6516 27.3856 23.1071 27.208C22.3741 26.9781 21.6971 26.5983 21.1191 26.0928C20.541 25.5874 20.0746 24.9673 19.7495 24.272C19.5045 23.7791 19.3422 23.2494 19.269 22.704C19.2208 22.4293 19.1967 22.1509 19.1969 21.872C19.1981 20.6804 19.5791 19.5201 20.2848 18.5593C20.9904 17.5985 21.984 16.887 23.1215 16.528H23.1295C23.6672 16.3575 24.2281 16.2711 24.7923 16.272H24.8644C25.6232 16.2823 26.3719 16.4473 27.0647 16.7568C27.7574 17.0663 28.3796 17.5139 28.8931 18.072C29.3776 18.5877 29.7553 19.194 30.0044 19.856C30.2589 20.4977 30.389 21.1818 30.388 21.872C30.3885 23.2659 29.8675 24.6097 28.9272 25.6398C27.987 26.6699 26.6953 27.3119 25.3057 27.44ZM29.3665 16.32C28.1988 15.3542 26.7547 14.7828 25.2416 14.688C25.4829 13.5604 25.659 12.4198 25.769 11.272C25.7824 11.1641 25.7721 11.0546 25.739 10.951C25.7059 10.8474 25.6507 10.7522 25.5772 10.672C25.5075 10.5883 25.421 10.5201 25.3232 10.4719C25.2255 10.4236 25.1187 10.3964 25.0097 10.392C21.5657 10.248 18.5105 8.816 16.6239 6.456C16.547 6.36576 16.4515 6.29327 16.3438 6.24356C16.2361 6.19385 16.1189 6.16811 16.0003 6.16811C15.8817 6.16811 15.7646 6.19385 15.6569 6.24356C15.5492 6.29327 15.4537 6.36576 15.3768 6.456C13.4902 8.816 10.4366 10.248 6.99136 10.392C6.77894 10.4004 6.57857 10.4928 6.43434 10.6488C6.2901 10.8048 6.2138 11.0116 6.22225 11.2238C6.23069 11.436 6.32318 11.6361 6.47936 11.7802C6.63554 11.9242 6.84261 12.0004 7.05504 11.992C10.6124 11.848 13.8182 10.464 16.0003 8.168C18.1569 10.3516 21.0286 11.6864 24.0898 11.928C23.9741 12.8826 23.8088 13.8305 23.5945 14.768C21.9169 15.056 20.3953 15.9268 19.2983 17.2267C18.2012 18.5266 17.5994 20.1719 17.599 21.872C17.5986 22.4569 17.6684 23.0397 17.8069 23.608C17.933 24.1183 18.118 24.6123 18.3583 25.08C19.049 26.4685 20.1708 27.5966 21.5561 28.296C19.844 29.32 17.9623 30.0299 15.9999 30.392C6.12755 28.456 1.28306 19.872 1.61104 4.872C1.61353 4.83144 1.62712 4.79234 1.65032 4.75896C1.67352 4.72558 1.70544 4.69921 1.74262 4.6827C1.77979 4.6662 1.82079 4.6602 1.86114 4.66537C1.90149 4.67054 1.93967 4.68666 1.97148 4.712C3.28838 5.58781 4.84211 6.04007 6.4239 6.008C9.4058 6.008 11.8439 4.616 12.6432 2.464C12.7187 2.22278 12.8665 2.01055 13.0667 1.85601C13.2669 1.70148 13.5098 1.61211 13.7625 1.6H18.2478C18.4991 1.6135 18.7403 1.70353 18.9389 1.85799C19.1375 2.01245 19.284 2.22393 19.3587 2.464C19.7916 3.5684 20.6052 4.48198 21.653 5.04C22.8553 5.69652 24.2076 6.03007 25.5776 6.008C27.1595 6.04005 28.7134 5.5878 30.0304 4.712C30.0688 4.68092 30.1168 4.66397 30.1662 4.664C30.2233 4.66258 30.2787 4.68355 30.3206 4.72242C30.3624 4.7613 30.3873 4.81498 30.39 4.872C30.5328 8.71582 30.1889 12.5623 29.3665 16.32ZM18.3587 25.08C17.6663 25.4131 16.9399 25.6706 16.1922 25.848C16.0663 25.88 15.9344 25.88 15.8085 25.848C11.1402 24.712 8.20638 21.184 6.83117 15.064C6.80855 14.9618 6.80633 14.8561 6.82462 14.7529C6.8429 14.6498 6.88134 14.5513 6.93774 14.4631C6.99413 14.3748 7.06738 14.2985 7.1533 14.2385C7.23922 14.1785 7.33613 14.136 7.4385 14.1134C7.54086 14.0908 7.64667 14.0886 7.7499 14.1068C7.85313 14.1251 7.95176 14.1635 8.04013 14.2198C8.12851 14.2762 8.20491 14.3493 8.26498 14.4351C8.32505 14.521 8.36759 14.6178 8.3902 14.72C10.1407 22.512 14.3616 23.84 15.9991 24.248C16.6228 24.1003 17.2286 23.8857 17.8061 23.608C17.9326 24.1184 18.118 24.6124 18.3587 25.08ZM23.8912 24.9884C23.6791 24.9881 23.4757 24.9038 23.3258 24.754L21.0319 22.4584C20.8928 22.3065 20.8176 22.1068 20.8221 21.901C20.8266 21.6952 20.9104 21.499 21.0561 21.3533C21.2017 21.2076 21.3979 21.1236 21.604 21.1187C21.81 21.1139 22.01 21.1885 22.1624 21.3272L23.8912 23.0572L27.427 19.518C27.5 19.4382 27.5885 19.374 27.6871 19.3294C27.7857 19.2847 27.8923 19.2605 28.0005 19.2581C28.1087 19.2557 28.2163 19.2753 28.3167 19.3156C28.4172 19.356 28.5084 19.4162 28.5849 19.4927C28.6614 19.5692 28.7215 19.6604 28.7617 19.7608C28.8019 19.8612 28.8213 19.9687 28.8187 20.0768C28.8162 20.1849 28.7917 20.2913 28.7468 20.3897C28.7019 20.4881 28.6375 20.5764 28.5575 20.6492L24.4563 24.754C24.3821 24.8283 24.2939 24.8873 24.1968 24.9276C24.0997 24.9678 23.9955 24.9885 23.8904 24.9884H23.8912Z" fill="url(#paint0_linear_246_596)"/>
</g>
<defs>
<linearGradient id="paint0_linear_246_596" x1="-0.00195308" y1="5.65859" x2="34.4966" y2="22.6495" gradientUnits="userSpaceOnUse">
<stop stop-color="#2F80ED"/>
<stop offset="1" stop-color="#DE19DF"/>
</linearGradient>
<clipPath id="clip0_246_596">
<rect width="32" height="32" fill="white"/>
</clipPath>
</defs>
</svg>
