<svg width="32" height="32" viewBox="0 0 32 32" fill="none" xmlns="http://www.w3.org/2000/svg">
<g id="standard">
<path id="Vector" d="M20.8043 29.3121H6.82032C6.32764 29.3115 5.85532 29.1154 5.507 28.767C5.15869 28.4186 4.96283 27.9462 4.9624 27.4535V7.8215C4.96291 7.32887 5.15881 6.85657 5.50712 6.5082C5.85542 6.15983 6.3277 5.96385 6.82032 5.96326H8.99888C9.13467 5.96326 9.2649 6.0172 9.36092 6.11322C9.45694 6.20924 9.51088 6.33947 9.51088 6.47526C9.51088 6.61105 9.45694 6.74128 9.36092 6.8373C9.2649 6.93331 9.13467 6.98726 8.99888 6.98726H6.8216C6.60046 6.98751 6.38844 7.0755 6.2321 7.2319C6.07576 7.3883 5.98785 7.60035 5.98768 7.8215V27.4535C5.98785 27.6747 6.07574 27.8868 6.23208 28.0432C6.38842 28.1997 6.60043 28.2877 6.8216 28.2881H20.8056C21.0268 28.2877 21.2389 28.1997 21.3952 28.0432C21.5516 27.8868 21.6396 27.6747 21.6398 27.4535V26.169C21.6398 26.0332 21.6938 25.903 21.7898 25.807C21.8858 25.711 22.0161 25.657 22.1518 25.657C22.2876 25.657 22.4179 25.711 22.5139 25.807C22.6099 25.903 22.6638 26.0332 22.6638 26.169V27.4535C22.6633 27.9464 22.4672 28.419 22.1186 28.7675C21.7699 29.1159 21.2973 29.3118 20.8043 29.3121ZM22.1506 17.9338C22.0148 17.9338 21.8845 17.8799 21.7885 17.7839C21.6925 17.6878 21.6386 17.5576 21.6386 17.4218V7.82182C21.6383 7.60064 21.5503 7.3886 21.3939 7.2322C21.2375 7.07581 21.0255 6.98783 20.8043 6.98758H18.6258C18.49 6.98758 18.3597 6.93363 18.2637 6.83762C18.1677 6.7416 18.1138 6.61137 18.1138 6.47558C18.1138 6.33979 18.1677 6.20956 18.2637 6.11354C18.3597 6.01752 18.49 5.96358 18.6258 5.96358H20.8043C21.297 5.96417 21.7693 6.16014 22.1176 6.5085C22.466 6.85686 22.662 7.32916 22.6626 7.82182V17.4218C22.6626 17.5576 22.6086 17.6878 22.5126 17.7839C22.4166 17.8799 22.2864 17.9338 22.1506 17.9338Z" fill="url(#paint0_linear_246_1217)"/>
<path id="Vector_2" d="M18.0325 8.60319H9.59348C9.37714 8.60315 9.16401 8.5508 8.97227 8.4506C8.78053 8.3504 8.61587 8.20532 8.49231 8.02773C8.36875 7.85015 8.28997 7.64531 8.26267 7.4307C8.23538 7.21608 8.26039 6.99805 8.33556 6.79519L8.91892 5.22239C9.01474 4.9661 9.18635 4.74507 9.41089 4.58873C9.63543 4.43238 9.90227 4.34813 10.1759 4.34719H10.894C10.9782 4.3471 11.0589 4.31364 11.1184 4.25414C11.178 4.19463 11.2116 4.11394 11.2117 4.02975C11.2123 3.67396 11.354 3.33293 11.6056 3.08141C11.8572 2.82989 12.1983 2.68841 12.5541 2.68799H15.0719C15.4276 2.68858 15.7685 2.83013 16.02 3.08164C16.2715 3.33314 16.4131 3.67407 16.4136 4.02975C16.4137 4.11391 16.4472 4.19461 16.5067 4.25412C16.5662 4.31363 16.6469 4.3471 16.7311 4.34719H17.4495C17.7232 4.34798 17.9903 4.43216 18.215 4.58851C18.4397 4.74486 18.6115 4.96597 18.7074 5.22239L19.2904 6.79519C19.3657 6.99805 19.3908 7.2161 19.3635 7.43075C19.3362 7.64539 19.2575 7.85026 19.1339 8.02787C19.0103 8.20548 18.8456 8.35057 18.6538 8.45074C18.4621 8.55092 18.2489 8.60323 18.0325 8.60319ZM10.1759 5.37119C10.1111 5.37149 10.0479 5.39144 9.99475 5.42841C9.94155 5.46538 9.90083 5.51762 9.87796 5.57823L9.29588 7.15103C9.27801 7.19904 9.27203 7.25067 9.27845 7.3015C9.28486 7.35233 9.30349 7.40086 9.33273 7.44292C9.36197 7.48499 9.40096 7.51936 9.44637 7.54309C9.49177 7.56682 9.54225 7.5792 9.59348 7.57919H18.0325C18.0838 7.57918 18.1342 7.56679 18.1796 7.54306C18.225 7.51933 18.264 7.48497 18.2933 7.44292C18.3226 7.40086 18.3412 7.35236 18.3477 7.30153C18.3542 7.25071 18.3482 7.19907 18.3304 7.15103L17.7471 5.57823C17.7242 5.51767 17.6836 5.46546 17.6304 5.4285C17.5773 5.39154 17.5142 5.37155 17.4495 5.37119H16.7311C16.3755 5.37051 16.0347 5.22896 15.7833 4.97754C15.5319 4.72612 15.3903 4.38531 15.3896 4.02975C15.3896 3.9455 15.3561 3.86472 15.2965 3.80515C15.2369 3.74558 15.1561 3.71207 15.0719 3.71199H12.5541C12.4699 3.71207 12.3892 3.74559 12.3296 3.80517C12.2701 3.86475 12.2367 3.94553 12.2367 4.02975C12.236 4.38537 12.0944 4.72622 11.8429 4.97765C11.5914 5.22909 11.2505 5.3706 10.8949 5.37119H10.1759Z" fill="url(#paint1_linear_246_1217)"/>
<path id="Vector_3" d="M16.5759 6.98817H11.0488C10.913 6.98817 10.7828 6.93423 10.6868 6.83821C10.5908 6.74219 10.5368 6.61196 10.5368 6.47617C10.5368 6.34038 10.5908 6.21015 10.6868 6.11414C10.7828 6.01812 10.913 5.96417 11.0488 5.96417H16.5759C16.7117 5.96417 16.8419 6.01812 16.9379 6.11414C17.0339 6.21015 17.0879 6.34038 17.0879 6.47617C17.0879 6.61196 17.0339 6.74219 16.9379 6.83821C16.8419 6.93423 16.7117 6.98817 16.5759 6.98817ZM14.501 5.32673H13.125C12.9892 5.32673 12.859 5.27279 12.7629 5.17677C12.6669 5.08075 12.613 4.95053 12.613 4.81473C12.613 4.67894 12.6669 4.54871 12.7629 4.4527C12.859 4.35668 12.9892 4.30273 13.125 4.30273H14.501C14.6368 4.30273 14.767 4.35668 14.863 4.4527C14.959 4.54871 15.013 4.67894 15.013 4.81473C15.013 4.95053 14.959 5.08075 14.863 5.17677C14.767 5.27279 14.6368 5.32673 14.501 5.32673ZM19.8463 12.2576H11.9743C11.8385 12.2576 11.7082 12.2037 11.6122 12.1077C11.5162 12.0116 11.4623 11.8814 11.4623 11.7456C11.4623 11.6098 11.5162 11.4796 11.6122 11.3836C11.7082 11.2876 11.8385 11.2336 11.9743 11.2336H19.8463C19.9821 11.2336 20.1123 11.2876 20.2083 11.3836C20.3043 11.4796 20.3583 11.6098 20.3583 11.7456C20.3583 11.8814 20.3043 12.0116 20.2083 12.1077C20.1123 12.2037 19.9821 12.2576 19.8463 12.2576ZM19.8463 15.6077H11.9743C11.8385 15.6077 11.7082 15.5538 11.6122 15.4577C11.5162 15.3617 11.4623 15.2315 11.4623 15.0957C11.4623 14.9599 11.5162 14.8297 11.6122 14.7337C11.7082 14.6376 11.8385 14.5837 11.9743 14.5837H19.8463C19.9821 14.5837 20.1123 14.6376 20.2083 14.7337C20.3043 14.8297 20.3583 14.9599 20.3583 15.0957C20.3583 15.2315 20.3043 15.3617 20.2083 15.4577C20.1123 15.5538 19.9821 15.6077 19.8463 15.6077ZM19.3381 18.9578H11.9743C11.8385 18.9578 11.7082 18.9038 11.6122 18.8078C11.5162 18.7118 11.4623 18.5816 11.4623 18.4458C11.4623 18.31 11.5162 18.1798 11.6122 18.0837C11.7082 17.9877 11.8385 17.9338 11.9743 17.9338H19.3381C19.4739 17.9338 19.6041 17.9877 19.7001 18.0837C19.7962 18.1798 19.8501 18.31 19.8501 18.4458C19.8501 18.5816 19.7962 18.7118 19.7001 18.8078C19.6041 18.9038 19.4739 18.9578 19.3381 18.9578ZM17.7768 22.3075H11.9743C11.8385 22.3075 11.7082 22.2536 11.6122 22.1576C11.5162 22.0616 11.4623 21.9313 11.4623 21.7955C11.4623 21.6597 11.5162 21.5295 11.6122 21.4335C11.7082 21.3375 11.8385 21.2835 11.9743 21.2835H17.7768C17.9126 21.2835 18.0428 21.3375 18.1389 21.4335C18.2349 21.5295 18.2888 21.6597 18.2888 21.7955C18.2888 21.9313 18.2349 22.0616 18.1389 22.1576C18.0428 22.2536 17.9126 22.3075 17.7768 22.3075ZM19.3384 25.6576H11.9743C11.8385 25.6576 11.7082 25.6037 11.6122 25.5077C11.5162 25.4116 11.4623 25.2814 11.4623 25.1456C11.4623 25.0098 11.5162 24.8796 11.6122 24.7836C11.7082 24.6876 11.8385 24.6336 11.9743 24.6336H19.3384C19.4742 24.6336 19.6044 24.6876 19.7005 24.7836C19.7965 24.8796 19.8504 25.0098 19.8504 25.1456C19.8504 25.2814 19.7965 25.4116 19.7005 25.5077C19.6044 25.6037 19.4742 25.6576 19.3384 25.6576ZM8.56338 13.0186C8.42762 13.0185 8.29743 12.9645 8.20146 12.8685L7.41778 12.0848C7.32167 11.9888 7.26764 11.8585 7.26758 11.7226C7.26752 11.5868 7.32143 11.4564 7.41746 11.3603C7.51349 11.2642 7.64377 11.2102 7.77964 11.2101C7.9155 11.2101 8.04583 11.264 8.14194 11.36L8.56338 11.7818L9.72306 10.624C9.81909 10.528 9.94934 10.474 10.0851 10.474C10.2209 10.474 10.3512 10.528 10.4472 10.624C10.5433 10.72 10.5972 10.8503 10.5972 10.9861C10.5972 11.1219 10.5433 11.2521 10.4472 11.3482L8.92562 12.8698C8.82936 12.9654 8.69908 13.0189 8.56338 13.0186ZM8.56338 16.3683C8.42766 16.3684 8.29748 16.3145 8.20146 16.2186L7.41778 15.4349C7.32175 15.3389 7.2678 15.2086 7.2678 15.0728C7.2678 14.937 7.32175 14.8068 7.41778 14.7107C7.51381 14.6147 7.64406 14.5608 7.77986 14.5608C7.91567 14.5608 8.04591 14.6147 8.14194 14.7107L8.56338 15.1325L9.72306 13.9728C9.81952 13.8791 9.94899 13.8271 10.0835 13.828C10.218 13.829 10.3467 13.8828 10.4418 13.9779C10.5369 14.073 10.5908 14.2017 10.5918 14.3362C10.5929 14.4707 10.5409 14.6002 10.4472 14.6967L8.92562 16.2186C8.87804 16.2661 8.82156 16.3038 8.7594 16.3295C8.69725 16.3552 8.63064 16.3684 8.56338 16.3683ZM8.56338 19.7184C8.42762 19.7184 8.29743 19.6644 8.20146 19.5683L7.41778 18.784C7.37023 18.7365 7.33252 18.68 7.30678 18.6179C7.28105 18.5558 7.2678 18.4892 7.2678 18.4219C7.2678 18.3547 7.28105 18.2881 7.30678 18.226C7.33252 18.1638 7.37023 18.1074 7.41778 18.0599C7.46533 18.0123 7.52178 17.9746 7.58391 17.9489C7.64603 17.9231 7.71262 17.9099 7.77986 17.9099C7.84711 17.9099 7.91369 17.9231 7.97582 17.9489C8.03794 17.9746 8.09439 18.0123 8.14194 18.0599L8.56338 18.4813L9.72306 17.3216C9.81939 17.2256 9.94992 17.1718 10.0859 17.172C10.222 17.1722 10.3523 17.2264 10.4483 17.3227C10.5444 17.4191 10.5982 17.5496 10.598 17.6856C10.5978 17.8216 10.5436 17.952 10.4472 18.048L8.92562 19.5699C8.82931 19.6655 8.69903 19.7189 8.56338 19.7184ZM8.56338 23.0685C8.42762 23.0684 8.29743 23.0144 8.20146 22.9184L7.41778 22.1347C7.3241 22.0382 7.27215 21.9087 7.27317 21.7743C7.27418 21.6398 7.32807 21.5111 7.42319 21.416C7.51832 21.3209 7.64703 21.2671 7.78152 21.2661C7.91602 21.2652 8.04548 21.3172 8.14194 21.4109L8.56338 21.8323L9.72306 20.672C9.81909 20.576 9.94934 20.522 10.0851 20.522C10.2209 20.522 10.3512 20.576 10.4472 20.672C10.5433 20.768 10.5972 20.8983 10.5972 21.0341C10.5972 21.1699 10.5433 21.3001 10.4472 21.3962L8.92562 22.9184C8.87806 22.966 8.82159 23.0038 8.75944 23.0295C8.69728 23.0553 8.63066 23.0685 8.56338 23.0685ZM8.56338 26.4186C8.42762 26.4185 8.29743 26.3645 8.20146 26.2685L7.41778 25.4848C7.32175 25.3888 7.2678 25.2585 7.2678 25.1227C7.2678 24.9869 7.32175 24.8567 7.41778 24.7607C7.51381 24.6646 7.64406 24.6107 7.77986 24.6107C7.91567 24.6107 8.04591 24.6646 8.14194 24.7607L8.56338 25.184L9.72306 24.0243C9.77061 23.9768 9.82706 23.9391 9.88919 23.9133C9.95131 23.8876 10.0179 23.8744 10.0851 23.8744C10.1524 23.8744 10.219 23.8876 10.2811 23.9133C10.3432 23.9391 10.3997 23.9768 10.4472 24.0243C10.4948 24.0719 10.5325 24.1283 10.5582 24.1905C10.584 24.2526 10.5972 24.3192 10.5972 24.3864C10.5972 24.4537 10.584 24.5202 10.5582 24.5824C10.5325 24.6445 10.4948 24.7009 10.4472 24.7485L8.92562 26.2701C8.82931 26.3656 8.69903 26.419 8.56338 26.4186Z" fill="url(#paint2_linear_246_1217)"/>
<path id="Vector_4" d="M22.1509 26.6812C19.4568 26.6812 17.2651 24.4896 17.2651 21.7955C17.2651 19.1014 19.4562 16.91 22.1509 16.91C24.8456 16.91 27.0363 19.1017 27.0363 21.7955C27.0363 24.4892 24.8447 26.6812 22.1509 26.6812ZM22.1509 17.934C21.3871 17.934 20.6404 18.1604 20.0053 18.5847C19.3702 19.009 18.8752 19.6122 18.5828 20.3178C18.2905 21.0235 18.214 21.8 18.363 22.5491C18.512 23.2982 18.8798 23.9864 19.4199 24.5265C19.96 25.0666 20.6481 25.4344 21.3973 25.5834C22.1464 25.7324 22.9229 25.6559 23.6286 25.3635C24.3342 25.0712 24.9373 24.5762 25.3616 23.9411C25.786 23.306 26.0124 22.5593 26.0123 21.7955C26.0112 20.7717 25.6039 19.7902 24.88 19.0663C24.1561 18.3424 23.1747 17.9352 22.1509 17.934Z" fill="url(#paint3_linear_246_1217)"/>
<path id="Vector_5" d="M21.61 23.5248C21.4742 23.5247 21.344 23.4707 21.2481 23.3747L19.8951 22.0217C19.7991 21.9257 19.7451 21.7954 19.7451 21.6596C19.7451 21.5238 19.7991 21.3936 19.8951 21.2976C19.9911 21.2015 20.1214 21.1476 20.2572 21.1476C20.393 21.1476 20.5232 21.2015 20.6193 21.2976L21.6113 22.2896L23.6836 20.2172C23.7796 20.1212 23.9098 20.0673 24.0457 20.0673C24.1815 20.0673 24.3117 20.1212 24.4077 20.2172C24.5038 20.3133 24.5577 20.4435 24.5577 20.5793C24.5577 20.7151 24.5038 20.8454 24.4077 20.9414L21.9735 23.3756C21.9257 23.4232 21.869 23.4609 21.8066 23.4865C21.7442 23.5121 21.6774 23.5251 21.61 23.5248Z" fill="url(#paint4_linear_246_1217)"/>
</g>
<defs>
<linearGradient id="paint0_linear_246_1217" x1="4.9624" y1="10.092" x2="25.7699" y2="17.8595" gradientUnits="userSpaceOnUse">
<stop stop-color="#2F80ED"/>
<stop offset="1" stop-color="#DE19DF"/>
</linearGradient>
<linearGradient id="paint1_linear_246_1217" x1="8.25195" y1="3.73397" x2="16.2725" y2="11.1598" gradientUnits="userSpaceOnUse">
<stop stop-color="#2F80ED"/>
<stop offset="1" stop-color="#DE19DF"/>
</linearGradient>
<linearGradient id="paint2_linear_246_1217" x1="7.26758" y1="8.21346" x2="23.4269" y2="12.9232" gradientUnits="userSpaceOnUse">
<stop stop-color="#2F80ED"/>
<stop offset="1" stop-color="#DE19DF"/>
</linearGradient>
<linearGradient id="paint3_linear_246_1217" x1="17.2651" y1="18.6379" x2="27.7977" y2="23.8241" gradientUnits="userSpaceOnUse">
<stop stop-color="#2F80ED"/>
<stop offset="1" stop-color="#DE19DF"/>
</linearGradient>
<linearGradient id="paint4_linear_246_1217" x1="19.7451" y1="20.6786" x2="24.1305" y2="23.6843" gradientUnits="userSpaceOnUse">
<stop stop-color="#2F80ED"/>
<stop offset="1" stop-color="#DE19DF"/>
</linearGradient>
</defs>
</svg>
