<svg width="32" height="32" viewBox="0 0 32 32" fill="none" xmlns="http://www.w3.org/2000/svg">
<g id="support" clip-path="url(#clip0_111_4099)">
<path id="Vector" d="M30.9662 23.6308L32.1477 23.4338V21.4154L30.9662 21.1692C30.8677 20.7754 30.72 20.4308 30.5231 20.0861L31.2123 19.1015L29.7846 17.6738L28.8 18.3631C28.4554 18.1661 28.0615 18.0185 27.6677 17.92L27.4215 16.7385H25.4031L25.2062 17.92C24.8123 18.0185 24.4677 18.1661 24.1231 18.3631L23.1385 17.6738L21.6615 19.1508L22.3508 20.1354C22.1538 20.48 22.0062 20.8738 21.9077 21.2677L20.7262 21.4646V21.9077C19.3477 21.3661 18.1169 20.1354 17.4277 18.5108C17.7723 18.1169 18.0677 17.7231 18.3631 17.28H21.9077V14.3754C22.1538 14.2769 22.3508 14.1785 22.4985 13.9815C22.8431 13.6369 23.04 13.1938 23.04 12.7015V11.0769C23.04 10.2892 22.4985 9.59999 21.76 9.40307C21.5138 5.16923 18.0185 1.82153 13.7354 1.82153H12.9969C8.71385 1.82153 5.16923 5.21846 4.97231 9.4523C4.28308 9.69846 3.84 10.3385 3.84 11.1261V12.7508C3.84 13.2431 4.03692 13.6861 4.38154 14.0308C4.72615 14.3754 5.16923 14.5723 5.66154 14.5723H6.89231V9.40307H5.80923C6.10462 5.6123 9.25538 2.60923 13.0954 2.60923H13.8338C17.6738 2.60923 20.8738 5.6123 21.12 9.40307H20.1354V14.5723H21.2677V16.5908H18.8554C19.0031 16.2461 19.1508 15.9015 19.2492 15.5077C19.3969 15.0154 19.4954 13.4892 19.7908 9.00922C19.9877 5.75999 19.1015 5.31692 17.4769 4.82461C17.3785 4.77538 17.2308 4.72615 17.0831 4.72615C15.7538 4.28307 14.4246 4.23384 13.5385 4.18461C12.6523 4.18461 11.2738 4.28307 9.99385 4.72615C9.84615 4.77538 9.74769 4.82461 9.6 4.82461C7.97538 5.31692 7.08923 5.75999 7.28615 9.00922C7.58154 13.4892 7.68 14.9661 7.82769 15.5077C8.22154 16.7385 8.81231 17.7723 9.6 18.56C8.51692 21.12 6.25231 22.2523 4.23385 23.2369C3.10154 23.7785 2.16615 24.2708 1.52615 24.9108C0 26.5354 0 28.5538 0 29.8831V30.2769H27.1262V29.8831C27.1262 29.3908 27.1262 28.8 27.0277 28.2092H27.5692L27.7662 27.0277C28.16 26.9292 28.5046 26.7815 28.8492 26.5846L29.8338 27.2738L31.2615 25.8461L30.5723 24.8615C30.72 24.4185 30.8677 24.0246 30.9662 23.6308ZM6.05538 13.7846H5.56308C5.26769 13.7846 5.02154 13.6861 4.82462 13.4892C4.62769 13.2923 4.52923 13.0461 4.52923 12.7508V11.1261C4.52923 10.5354 4.97231 10.0923 5.56308 10.0923H6.05538V13.7846ZM20.7754 10.0923H21.2677C21.8585 10.0923 22.3015 10.5354 22.3015 11.1261V12.7508C22.3015 13.0461 22.2031 13.2923 22.0062 13.4892C21.8092 13.6861 21.5631 13.7846 21.2677 13.7846H20.7754V10.0923ZM19.0031 21.76C18.0677 23.3354 16.9846 24.7138 15.8031 25.8954C15.7046 25.9938 15.6062 26.0923 15.4585 26.1908L15.0154 23.7292L15.6554 22.2523L18.0677 20.8246C18.3138 21.1692 18.6585 21.5138 19.0031 21.76ZM11.6677 21.6615L9.35385 20.2831C9.6 19.9385 9.84615 19.4954 10.0923 19.0523C11.0769 19.84 12.2585 20.3323 13.4892 20.3323C14.7692 20.3323 15.9015 19.8892 16.9354 19.0523C17.1323 19.4954 17.3785 19.8892 17.6246 20.2831L15.2123 21.6615H11.6677ZM12.5046 23.3354L12.1108 22.4H14.7692L14.3754 23.3354H12.5046ZM12.6031 24.0738H14.3262L14.8185 26.8308C14.1785 27.3723 13.6862 27.7169 13.44 27.8646C13.1938 27.7169 12.7015 27.3723 12.1108 26.8308L12.6031 24.0738ZM9.69846 5.46461C9.84615 5.41538 9.94462 5.36615 10.0923 5.36615C11.0769 5.07076 12.2092 4.87384 13.44 4.87384C14.6708 4.87384 15.8031 5.07076 16.7877 5.36615C16.9354 5.41538 17.0338 5.46461 17.1815 5.46461C18.56 5.90769 19.1508 6.05538 19.0031 8.86153V8.95999C18.8554 8.8123 18.7077 8.71384 18.5108 8.61538C18.0677 8.41846 17.5754 8.36923 17.1323 8.51692C15.0646 9.20615 13.1938 8.46769 13.1938 8.46769C12.3077 8.07384 11.4215 7.77846 10.6338 7.63076C9.79692 7.48307 8.96 7.68 8.32 8.22153C8.17231 8.36923 8.02462 8.46769 7.92615 8.61538C7.77846 6.10461 8.36923 5.90769 9.69846 5.46461ZM8.41846 15.2123C8.36923 14.8185 8.17231 12.1108 8.02462 10.2892H8.07385C8.07385 9.69846 8.36923 9.20615 8.81231 8.8123C9.30462 8.41846 9.89538 8.27076 10.5354 8.36923C11.2738 8.51692 12.0615 8.76307 12.8985 9.15692C12.9969 9.20615 15.0154 9.99384 17.3292 9.25538C17.5754 9.15692 17.92 9.20615 18.1662 9.30461C18.4123 9.40307 18.6092 9.64922 18.7077 9.89538C18.7569 10.0431 18.8062 10.1908 18.8062 10.3877H18.8554C18.7077 12.16 18.5108 14.8185 18.4615 15.1631C18.3138 15.6061 18.1169 16.0492 17.92 16.4431H16.0492V15.5569H12.16V18.0677H16.0492V17.1815H17.4769C16.4923 18.6585 15.0154 19.4954 13.44 19.4954C11.2246 19.5938 9.25538 17.8708 8.41846 15.2123ZM15.3108 16.3938V17.4277H12.8985V16.3938H15.3108ZM8.86154 20.8738L11.2738 22.3015L11.9138 23.7785L11.4708 26.24C10.4369 25.2554 9.10769 23.7785 7.87692 21.76C8.22154 21.5138 8.51692 21.1692 8.86154 20.8738ZM26.2892 29.44H0.64C0.64 28.2092 0.738462 26.6338 1.96923 25.3538C2.51077 24.8123 3.39692 24.3692 4.43077 23.8277C5.36615 23.3846 6.35077 22.8923 7.33538 22.2031C10.1415 26.7323 13.1446 28.5046 13.2923 28.6031L13.4892 28.7015L13.6862 28.6031C13.7354 28.5538 14.8677 27.9138 16.3446 26.4369C17.5754 25.2061 18.6585 23.7785 19.6431 22.2031C19.9877 22.4 20.3815 22.5969 20.7754 22.6954V23.4831L21.9569 23.68C22.0554 24.0738 22.2031 24.4185 22.4 24.7631L21.7108 25.7477L23.1385 27.1754L24.1231 26.4861C24.4677 26.6831 24.8615 26.8308 25.2554 26.9292L25.5015 28.1108H26.2892C26.24 28.6031 26.2892 29.0461 26.2892 29.44ZM30.2769 23.2369C30.1785 23.7292 29.9815 24.1723 29.7354 24.5661L29.5877 24.7631L30.1785 25.6492L29.6369 26.24L28.8 25.6L28.5538 25.7477C28.16 25.9938 27.7169 26.1908 27.2246 26.2892L26.9785 26.3385L26.7815 27.3723H25.9938L25.7969 26.3385L25.6 26.2892C25.1569 26.1908 24.7138 25.9938 24.2708 25.7477L24.0738 25.6L23.1877 26.1908L22.6462 25.6985L23.2369 24.8123L23.0892 24.6154C22.8431 24.2215 22.6462 23.7785 22.5477 23.2861L22.4985 23.04L21.4646 22.8431V22.0554L22.4985 21.8585L22.5477 21.6123C22.6462 21.1692 22.8431 20.7261 23.0892 20.2831L23.2369 20.0861L22.5969 19.2L23.1385 18.6092L24.0246 19.2L24.2215 19.0523C24.6154 18.8061 25.0585 18.6092 25.5508 18.5108L25.7969 18.4615L25.9938 17.4277H26.7815L26.9785 18.4615L27.2246 18.5108C27.7169 18.6092 28.16 18.8061 28.5538 19.0523L28.7508 19.2L29.6369 18.6092L30.2277 19.1508L29.6369 20.0369L29.7846 20.2338C30.0308 20.6277 30.2277 21.0708 30.3262 21.5631L30.3754 21.8092L31.4092 22.0061V22.7938L30.3754 22.9908L30.2769 23.2369Z" fill="url(#paint0_linear_111_4099)"/>
<path id="Vector_2" d="M26.3876 19.8401C25.6984 19.8401 25.0584 20.1355 24.5661 20.6278C24.0738 21.1201 23.8276 21.7601 23.8276 22.4493C23.8276 23.877 25.0092 25.0093 26.3876 25.0093C27.8153 25.0093 28.9476 23.8278 28.9476 22.4001C28.9969 21.0216 27.8153 19.8401 26.3876 19.8401ZM26.4369 24.2709C25.403 24.2709 24.6153 23.4339 24.5661 22.4493C24.5661 21.957 24.763 21.5139 25.1076 21.1693C25.4523 20.8247 25.8953 20.6278 26.4369 20.6278C27.4707 20.6278 28.2584 21.4647 28.2584 22.4493C28.2584 23.4339 27.4215 24.2709 26.4369 24.2709Z" fill="url(#paint1_linear_111_4099)"/>
</g>
<defs>
<linearGradient id="paint0_linear_111_4099" x1="4.26746e-08" y1="6.85328" x2="32.8796" y2="25.144" gradientUnits="userSpaceOnUse">
<stop stop-color="#2F80ED"/>
<stop offset="1" stop-color="#DE19DF"/>
</linearGradient>
<linearGradient id="paint1_linear_111_4099" x1="23.8276" y1="20.7542" x2="29.3681" y2="23.4571" gradientUnits="userSpaceOnUse">
<stop stop-color="#2F80ED"/>
<stop offset="1" stop-color="#DE19DF"/>
</linearGradient>
<clipPath id="clip0_111_4099">
<rect width="32" height="32" fill="white"/>
</clipPath>
</defs>
</svg>
