<svg width="32" height="32" viewBox="0 0 32 32" fill="none" xmlns="http://www.w3.org/2000/svg">
<g id="technical" clip-path="url(#clip0_111_4094)">
<path id="Vector" d="M8.78005 25.0476L8.4138 24.6813L7.23255 25.8886C7.17004 25.9526 7.12581 26.0321 7.10449 26.119C7.08317 26.2059 7.08552 26.2969 7.1113 26.3826L7.76055 28.5336L5.3898 30.9563L4.38955 30.7548L6.2908 28.8116C6.33734 28.764 6.37392 28.7077 6.3984 28.6459C6.42289 28.584 6.43478 28.5179 6.43338 28.4514C6.43198 28.3849 6.41733 28.3194 6.39027 28.2586C6.36321 28.1978 6.32429 28.1431 6.2758 28.0976L3.92955 25.8951C3.83415 25.8055 3.70744 25.7569 3.57661 25.7597C3.44579 25.7625 3.32128 25.8165 3.2298 25.9101L1.3063 27.8758L1.0583 26.9053L3.4293 24.4818L5.6663 25.0296C5.75065 25.0504 5.83898 25.0488 5.92252 25.0249C6.00606 25.0011 6.08191 24.9558 6.14255 24.8936L7.3708 23.6386L6.9483 23.2158C6.85346 23.119 6.76892 23.0126 6.69605 22.8983L5.6273 23.9906L3.3903 23.4426C3.30591 23.4218 3.21755 23.4234 3.13398 23.4472C3.0504 23.4711 2.9745 23.5164 2.9138 23.5786L0.14655 26.4071C0.0865482 26.4684 0.0433473 26.5442 0.0211048 26.6271C-0.00113769 26.71 -0.00167304 26.7972 0.0195503 26.8803L0.5578 28.9843C0.579759 29.0703 0.624193 29.1488 0.686541 29.212C0.74889 29.2751 0.826908 29.3205 0.91259 29.3435C0.998272 29.3665 1.08853 29.3663 1.17411 29.3429C1.25968 29.3195 1.33749 29.2737 1.39955 29.2103L3.60205 26.9593L5.21905 28.4771L3.0308 30.7133C2.9679 30.7776 2.92351 30.8577 2.90231 30.9451C2.88111 31.0326 2.88389 31.1241 2.91036 31.2101C2.93682 31.296 2.98599 31.3733 3.05269 31.4336C3.11938 31.494 3.20112 31.5353 3.2893 31.5531L5.4583 31.9903C5.54006 32.0067 5.6246 32.0024 5.70427 31.9778C5.78394 31.9532 5.85622 31.9091 5.91455 31.8496L8.68205 29.0216C8.74465 28.9576 8.78895 28.878 8.81032 28.791C8.83169 28.7041 8.82935 28.613 8.80355 28.5273L8.15405 26.3766L9.16305 25.3453C9.02384 25.262 8.89524 25.1618 8.78005 25.0476ZM1.2868 3.03132C1.2225 2.96834 1.1424 2.9239 1.05494 2.90266C0.96748 2.88142 0.875912 2.88419 0.789894 2.91066C0.703876 2.93713 0.626597 2.98633 0.566211 3.05306C0.505825 3.11979 0.464571 3.20159 0.4468 3.28982L0.00980029 5.45857C-0.00662478 5.54032 -0.00235226 5.62488 0.0222293 5.70457C0.0468109 5.78425 0.0909217 5.85652 0.15055 5.91482L2.9788 8.68232C3.04288 8.74478 3.12249 8.78899 3.20939 8.81035C3.29628 8.83171 3.38732 8.82946 3.47305 8.80382L5.6238 8.15432L6.6563 9.16432C6.73774 9.0262 6.83581 8.89858 6.9483 8.78432L7.31905 8.41382L6.1118 7.23282C6.01842 7.14144 5.89295 7.09028 5.7623 7.09032C5.71337 7.0903 5.6647 7.09737 5.6178 7.11132L3.4668 7.76082L1.0438 5.39007L1.2458 4.38982L3.1888 6.29107C3.28536 6.38411 3.41472 6.43532 3.5488 6.43357C3.61535 6.43218 3.68096 6.41753 3.74179 6.39049C3.80261 6.36345 3.85743 6.32455 3.90305 6.27607L6.10555 3.92982C6.19519 3.8344 6.24383 3.70764 6.24102 3.57675C6.23822 3.44587 6.18419 3.3213 6.09055 3.22982L4.12455 1.30657L5.09505 1.05807L7.5183 3.42957L6.9708 5.66657C6.95013 5.75092 6.9518 5.83921 6.97565 5.92272C6.9995 6.00624 7.0447 6.08209 7.1068 6.14282L8.3618 7.37107L8.7803 6.95232C8.87746 6.85536 8.98427 6.76858 9.09905 6.69332L8.0098 5.62757L8.5573 3.39057C8.57805 3.30619 8.57644 3.21787 8.55263 3.13431C8.52883 3.05075 8.48365 2.97484 8.42155 2.91407L5.59305 0.146566C5.53172 0.0865231 5.45596 0.0432946 5.37307 0.0210497C5.29017 -0.00119528 5.20295 -0.00170616 5.1198 0.0195663L3.0158 0.557816C2.92974 0.579724 2.85108 0.624154 2.78788 0.68654C2.72469 0.748925 2.67925 0.827015 2.65624 0.912781C2.63322 0.998547 2.63347 1.08889 2.65694 1.17454C2.68041 1.26018 2.72627 1.33802 2.7898 1.40007L5.0408 3.60257L3.52305 5.21957L1.2868 3.03132ZM29.0213 23.3181C28.9572 23.2556 28.8776 23.2114 28.7907 23.1901C28.7038 23.1687 28.6128 23.1711 28.5271 23.1968L26.3763 23.8463L25.3388 22.8313C25.2567 22.9713 25.1575 23.1005 25.0436 23.2161L24.677 23.5826L25.8883 24.7676C25.9524 24.8299 26.0319 24.8741 26.1188 24.8954C26.2056 24.9168 26.2966 24.9146 26.3823 24.8891L28.5333 24.2396L30.9558 26.6103L30.754 27.6106L28.8113 25.7096C28.7143 25.6173 28.5852 25.5662 28.4513 25.5671C28.3847 25.5685 28.3191 25.5831 28.2583 25.6101C28.1975 25.6372 28.1427 25.6761 28.097 25.7246L25.8946 28.0708C25.8049 28.1662 25.7563 28.293 25.7591 28.4239C25.7619 28.5548 25.8159 28.6793 25.9095 28.7708L27.8755 30.6941L26.9051 30.9423L24.4816 28.5708L25.0293 26.3338C25.05 26.2495 25.0483 26.1612 25.0244 26.0777C25.0006 25.9941 24.9554 25.9183 24.8933 25.8576L23.6341 24.6251L23.212 25.0473C23.1162 25.1432 23.0109 25.2291 22.8978 25.3038L23.9903 26.3726L23.4423 28.6098C23.4216 28.6942 23.4233 28.7825 23.4472 28.866C23.471 28.9495 23.5162 29.0253 23.5783 29.0861L26.4068 31.8536C26.4681 31.9136 26.5439 31.9568 26.6268 31.9791C26.7097 32.0013 26.7969 32.0018 26.8801 31.9806L28.984 31.4426C29.0701 31.4206 29.1487 31.3762 29.2118 31.3138C29.275 31.2515 29.3204 31.1734 29.3434 31.0877C29.3664 31.002 29.3662 30.9117 29.3428 30.8261C29.3193 30.7404 29.2735 30.6626 29.2101 30.6006L26.959 28.3981L28.4768 26.7811L30.7128 28.9691C30.7771 29.032 30.8572 29.0765 30.9447 29.0977C31.0321 29.119 31.1237 29.1162 31.2097 29.0897C31.2957 29.0633 31.373 29.0141 31.4334 28.9473C31.4938 28.8806 31.535 28.7988 31.5528 28.7106L31.99 26.5416C32.0065 26.4598 32.0022 26.3752 31.9776 26.2956C31.953 26.2159 31.9089 26.1436 31.8493 26.0853L29.0213 23.3181ZM23.2113 6.95257L23.5821 7.32307L24.767 6.11207C24.8296 6.04808 24.8738 5.9685 24.8951 5.88162C24.9164 5.79474 24.9141 5.70373 24.8883 5.61807L24.239 3.46707L26.6098 1.04407L27.6103 1.24582L25.709 3.18907C25.6625 3.23659 25.6259 3.29292 25.6014 3.35477C25.577 3.41661 25.5651 3.48272 25.5665 3.54922C25.5679 3.61572 25.5825 3.68127 25.6096 3.74203C25.6366 3.80279 25.6756 3.85754 25.7241 3.90307L28.0703 6.10557C28.1657 6.19513 28.2924 6.24372 28.4232 6.24092C28.5541 6.23811 28.6786 6.18413 28.7701 6.09057L30.6936 4.12482L30.9415 5.09532L28.5703 7.51857L26.3335 6.97107C26.2492 6.95017 26.1609 6.95173 26.0773 6.97559C25.9937 6.99945 25.9179 7.04478 25.8573 7.10707L24.6248 8.36607L25.0433 8.78432C25.1396 8.88271 25.2252 8.99098 25.2988 9.10732L26.3725 8.01007L28.6093 8.55757C28.6937 8.57839 28.782 8.57682 28.8656 8.55301C28.9492 8.5292 29.0251 8.48398 29.0858 8.42182L31.8533 5.59357C31.9133 5.53219 31.9566 5.45638 31.9788 5.37345C32.0011 5.29052 32.0016 5.20325 31.9803 5.12007L31.442 3.01607C31.4201 2.93013 31.3756 2.85159 31.3132 2.78851C31.2509 2.72542 31.1729 2.68007 31.0872 2.65709C31.0015 2.63411 30.9113 2.63434 30.8257 2.65775C30.7401 2.68116 30.6623 2.72692 30.6003 2.79032L28.3978 5.04132L26.7808 3.52357L28.969 1.28707C29.032 1.22276 29.0763 1.14267 29.0975 1.05525C29.1187 0.967827 29.116 0.876304 29.0895 0.790329C29.063 0.704353 29.0139 0.62711 28.9472 0.566742C28.8805 0.506373 28.7987 0.465115 28.7106 0.447316L26.5413 0.0100663C26.4595 -0.00638182 26.375 -0.00212049 26.2953 0.0224623C26.2156 0.0470452 26.1433 0.0911688 26.0851 0.150816L23.3173 2.97882C23.2547 3.04283 23.2105 3.12245 23.1892 3.20938C23.1678 3.29631 23.1702 3.38737 23.1961 3.47307L23.8456 5.62382L22.8335 6.65782C22.9707 6.74056 23.0974 6.83943 23.2111 6.95232L23.2113 6.95257ZM24.3923 21.1551C24.9359 20.2693 25.3362 19.3032 25.5783 18.2926C25.8284 18.2719 26.0616 18.1579 26.2316 17.9732C26.4015 17.7886 26.4958 17.5468 26.4958 17.2958V14.7046C26.4958 14.4536 26.4014 14.2119 26.2315 14.0273C26.0615 13.8427 25.8284 13.7288 25.5783 13.7081C25.3362 12.6972 24.9359 11.731 24.3923 10.8451C24.5546 10.6536 24.639 10.4081 24.6286 10.1573C24.6183 9.90652 24.514 9.66879 24.3365 9.49132L22.5045 7.65907C22.3271 7.48157 22.0893 7.37731 21.8386 7.36699C21.5878 7.35666 21.3423 7.44102 21.1508 7.60332C20.2649 7.05977 19.2988 6.65959 18.288 6.41757C18.2673 6.16746 18.1534 5.93428 17.9687 5.76432C17.7841 5.59435 17.5423 5.50003 17.2913 5.50007H14.7006C14.4496 5.50003 14.2078 5.59435 14.0231 5.76432C13.8385 5.93428 13.7245 6.16746 13.7038 6.41757C12.6931 6.65969 11.7271 7.05996 10.8413 7.60357C10.6498 7.4412 10.4043 7.35679 10.1534 7.36712C9.90257 7.37745 9.66479 7.48175 9.4873 7.65932L7.6553 9.49157C7.47781 9.66904 7.37355 9.90677 7.36322 10.1576C7.35289 10.4083 7.43725 10.6538 7.59955 10.8453C7.05596 11.7311 6.65569 12.6972 6.41355 13.7078C6.16344 13.7285 5.93026 13.8425 5.7603 14.0272C5.59033 14.2118 5.49601 14.4536 5.49605 14.7046V17.2956C5.49607 17.5465 5.59043 17.7882 5.76038 17.9728C5.93034 18.1574 6.16349 18.2714 6.41355 18.2921C6.65571 19.3029 7.05607 20.2692 7.5998 21.1551C7.4375 21.3465 7.35314 21.592 7.36347 21.8428C7.3738 22.0936 7.47806 22.3313 7.65555 22.5088L9.48755 24.3411C9.66503 24.5186 9.90276 24.6228 10.1535 24.6331C10.4043 24.6435 10.6498 24.5591 10.8413 24.3968C11.7272 24.9403 12.6933 25.3405 13.7041 25.5826C13.7248 25.8326 13.8387 26.0658 14.0233 26.2357C14.2079 26.4057 14.4496 26.5 14.7006 26.5001H17.2913C17.5423 26.5001 17.7841 26.4058 17.9687 26.2358C18.1534 26.0659 18.2673 25.8327 18.288 25.5826C19.2987 25.3404 20.2648 24.9402 21.1505 24.3966C21.342 24.5589 21.5876 24.6433 21.8384 24.633C22.0893 24.6227 22.3271 24.5184 22.5045 24.3408L24.3365 22.5086C24.514 22.3311 24.6183 22.0934 24.6286 21.8426C24.639 21.5918 24.5546 21.3465 24.3923 21.1551ZM21.7973 23.6338L21.272 23.1086C20.1021 23.9793 18.7343 24.5459 17.2913 24.7573V25.5001H14.7006V24.7571C13.2576 24.5456 11.8897 23.9791 10.7198 23.1083L10.1946 23.6336L8.3623 21.8016L8.8878 21.2761C8.01709 20.1062 7.45055 18.7385 7.23905 17.2956H6.49605V14.7046H7.23905C7.45055 13.2617 8.01709 11.8939 8.8878 10.7241L8.3623 10.1986L10.1946 8.36657L10.7198 8.89182C11.8897 8.02106 13.2576 7.45452 14.7006 7.24307V6.50007H17.2913V7.24307C18.7343 7.45452 20.1021 8.02106 21.272 8.89182L21.7973 8.36657L23.6293 10.1986L23.104 10.7241C23.9748 11.8939 24.5413 13.2617 24.7528 14.7046H25.4958V17.2956H24.7528C24.5413 18.7385 23.9748 20.1062 23.104 21.2761L23.6293 21.8016L21.7973 23.6338Z" fill="url(#paint0_linear_111_4094)"/>
<path id="Vector_2" d="M15.9961 8.25C14.4633 8.25 12.9649 8.70453 11.6904 9.55611C10.4159 10.4077 9.42261 11.6181 8.83603 13.0342C8.24945 14.4503 8.09598 16.0086 8.39501 17.5119C8.69405 19.0153 9.43216 20.3962 10.516 21.4801C11.5999 22.5639 12.9808 23.3021 14.4841 23.6011C15.9875 23.9001 17.5458 23.7466 18.9619 23.1601C20.378 22.5735 21.5884 21.5802 22.44 20.3057C23.2916 19.0312 23.7461 17.5328 23.7461 16C23.7438 13.9453 22.9265 11.9754 21.4736 10.5225C20.0207 9.06957 18.0508 8.25232 15.9961 8.25ZM15.9961 22.75C14.6611 22.75 13.356 22.3541 12.246 21.6124C11.136 20.8707 10.2708 19.8165 9.75991 18.5831C9.24902 17.3497 9.11535 15.9925 9.3758 14.6831C9.63625 13.3738 10.2791 12.171 11.2231 11.227C12.1671 10.283 13.3699 9.64015 14.6792 9.3797C15.9886 9.11925 17.3458 9.25292 18.5792 9.76381C19.8126 10.2747 20.8668 11.1399 21.6085 12.2499C22.3502 13.3599 22.7461 14.665 22.7461 16C22.7461 17.7902 22.0349 19.5071 20.7691 20.773C19.5032 22.0388 17.7863 22.75 15.9961 22.75Z" fill="url(#paint1_linear_111_4094)"/>
<path id="Vector_3" d="M19.9921 13.1318L16.4921 11.1318C16.341 11.0454 16.1699 11 15.9958 11C15.8218 11 15.6507 11.0454 15.4996 11.1318L11.9996 13.1318C11.8466 13.2193 11.7194 13.3457 11.631 13.4982C11.5426 13.6507 11.4961 13.8238 11.4961 14.0001V18.0001C11.4961 18.1764 11.5427 18.3495 11.6311 18.502C11.7196 18.6545 11.8468 18.7808 11.9998 18.8683L15.4998 20.8683C15.6509 20.9547 15.8219 21.0001 15.996 21.0001C16.17 21.0001 16.341 20.9547 16.4921 20.8683L19.9921 18.8683C20.1451 18.7808 20.2723 18.6545 20.3608 18.502C20.4493 18.3495 20.4959 18.1764 20.4958 18.0001V14.0001C20.4959 13.8238 20.4493 13.6506 20.3608 13.4982C20.2723 13.3457 20.1451 13.2193 19.9921 13.1318ZM19.4958 18.0001L15.9958 20.0001L12.4958 18.0001V14.0001L15.9958 12.0001L19.4958 14.0001V18.0001Z" fill="url(#paint2_linear_111_4094)"/>
<path id="Vector_4" d="M13.9961 16C13.9961 16.3956 14.1134 16.7822 14.3332 17.1111C14.5529 17.44 14.8653 17.6964 15.2307 17.8478C15.5962 17.9991 15.9983 18.0387 16.3863 17.9616C16.7742 17.8844 17.1306 17.6939 17.4103 17.4142C17.69 17.1345 17.8805 16.7781 17.9577 16.3902C18.0348 16.0022 17.9952 15.6001 17.8439 15.2346C17.6925 14.8692 17.4361 14.5568 17.1072 14.3371C16.7783 14.1173 16.3917 14 15.9961 14C15.4658 14.0006 14.9575 14.2115 14.5825 14.5864C14.2076 14.9614 13.9967 15.4697 13.9961 16ZM16.9961 16C16.9961 16.1978 16.9374 16.3911 16.8276 16.5556C16.7177 16.72 16.5615 16.8482 16.3788 16.9239C16.1961 16.9996 15.995 17.0194 15.801 16.9808C15.607 16.9422 15.4288 16.847 15.289 16.7071C15.1491 16.5673 15.0539 16.3891 15.0153 16.1951C14.9767 16.0011 14.9965 15.8 15.0722 15.6173C15.1479 15.4346 15.2761 15.2784 15.4405 15.1685C15.605 15.0586 15.7983 15 15.9961 15C16.2613 15 16.5157 15.1054 16.7032 15.2929C16.8907 15.4804 16.9961 15.7348 16.9961 16Z" fill="url(#paint3_linear_111_4094)"/>
</g>
<defs>
<linearGradient id="paint0_linear_111_4094" x1="4.24783e-08" y1="5.65875" x2="34.4934" y2="22.6434" gradientUnits="userSpaceOnUse">
<stop stop-color="#2F80ED"/>
<stop offset="1" stop-color="#DE19DF"/>
</linearGradient>
<linearGradient id="paint1_linear_111_4094" x1="8.24609" y1="10.9909" x2="24.9539" y2="19.2178" gradientUnits="userSpaceOnUse">
<stop stop-color="#2F80ED"/>
<stop offset="1" stop-color="#DE19DF"/>
</linearGradient>
<linearGradient id="paint2_linear_111_4094" x1="11.4961" y1="12.7683" x2="21.5708" y2="17.2329" gradientUnits="userSpaceOnUse">
<stop stop-color="#2F80ED"/>
<stop offset="1" stop-color="#DE19DF"/>
</linearGradient>
<linearGradient id="paint3_linear_111_4094" x1="13.9961" y1="14.7073" x2="18.3078" y2="16.8304" gradientUnits="userSpaceOnUse">
<stop stop-color="#2F80ED"/>
<stop offset="1" stop-color="#DE19DF"/>
</linearGradient>
<clipPath id="clip0_111_4094">
<rect width="32" height="32" fill="white"/>
</clipPath>
</defs>
</svg>
