<svg width="52" height="52" viewBox="0 0 52 52" fill="none" xmlns="http://www.w3.org/2000/svg">
<g id="trading">
<path id="Vector" d="M44.6875 34.9375V21.125H43.0625V34.9375H32.1636L30.5386 36.5625H21.4386L19.643 34.9375H8.9375V10.5625H43.0625V15.1336H44.6875V8.9375H7.3125V34.9375H4.0625V39C4.0625 41.2437 5.88135 43.0625 8.125 43.0625H13.195V41.4375H8.125C6.77881 41.4375 5.6875 40.3462 5.6875 39V36.5625H19.0125L20.8097 38.1875H31.2097L32.8347 36.5625H46.3125V39C46.3125 40.3462 45.2212 41.4375 43.875 41.4375H17.7125V43.0625H43.875C46.1187 43.0625 47.9375 41.2437 47.9375 39V34.9375H44.6875Z" fill="url(#paint0_linear_215_144)"/>
<path id="Vector_2" d="M32.1361 21.6596L29.3557 27.2204L24.4807 14.2204L20.714 21.7571L15.6342 20.0639L13.8289 29.0908L15.4214 29.4093L16.866 22.1861L21.5362 23.7429L24.2695 18.2796L29.1445 31.2796L32.8641 23.8404L36.2246 25.5206L38.147 19.7568L36.6032 19.2433L35.2756 23.2294L32.1361 21.6596Z" fill="url(#paint1_linear_215_144)"/>
</g>
<defs>
<linearGradient id="paint0_linear_215_144" x1="4.0625" y1="14.9718" x2="46.0105" y2="41.5285" gradientUnits="userSpaceOnUse">
<stop stop-color="#2F80ED"/>
<stop offset="1" stop-color="#DE19DF"/>
</linearGradient>
<linearGradient id="paint1_linear_215_144" x1="13.8289" y1="17.237" x2="35.6476" y2="32.552" gradientUnits="userSpaceOnUse">
<stop stop-color="#2F80ED"/>
<stop offset="1" stop-color="#DE19DF"/>
</linearGradient>
</defs>
</svg>
