<svg width="28" height="28" viewBox="0 0 28 28" fill="none" xmlns="http://www.w3.org/2000/svg">
<g id="twitter 1">
<path id="Vector" d="M25.6666 6.76691C24.7896 7.14736 23.8623 7.39885 22.9133 7.51358C23.9145 6.91545 24.6647 5.97449 25.0249 4.86524C24.0841 5.42532 23.0541 5.81992 21.9799 6.03191C21.2619 5.25325 20.3057 4.73492 19.2614 4.55824C18.217 4.38155 17.1436 4.5565 16.2093 5.05563C15.2751 5.55477 14.533 6.34986 14.0994 7.31622C13.6657 8.28258 13.5651 9.36553 13.8133 10.3952C11.9109 10.299 10.0501 9.80369 8.35168 8.94142C6.65326 8.07914 5.15524 6.86922 3.95492 5.39024C3.53391 6.12544 3.31269 6.95804 3.31325 7.80524C3.31176 8.59202 3.50484 9.36696 3.8753 10.0611C4.24576 10.7552 4.78211 11.3469 5.43659 11.7836C4.67589 11.7629 3.93145 11.5588 3.26659 11.1886V11.2469C3.27229 12.3493 3.65858 13.4159 4.36012 14.2662C5.06166 15.1166 6.03538 15.6985 7.11659 15.9136C6.70038 16.0402 6.26827 16.107 5.83325 16.1119C5.53212 16.1084 5.23174 16.0811 4.93492 16.0302C5.24281 16.9785 5.83865 17.8072 6.63951 18.4011C7.44037 18.9949 8.40642 19.3244 9.40325 19.3436C7.71999 20.6681 5.64178 21.3909 3.49992 21.3969C3.10994 21.3982 2.72028 21.3748 2.33325 21.3269C4.52009 22.7389 7.06853 23.4884 9.67159 23.4852C11.4679 23.5039 13.2499 23.1644 14.9136 22.4867C16.5772 21.8089 18.0891 20.8064 19.361 19.5378C20.6329 18.2692 21.6392 16.7599 22.3212 15.098C23.0033 13.4361 23.3473 11.6549 23.3333 9.85858C23.3333 9.66024 23.3333 9.45024 23.3333 9.24024C24.2487 8.55752 25.0383 7.72057 25.6666 6.76691Z" fill="white"/>
</g>
</svg>
