<svg width="32" height="32" viewBox="0 0 32 32" fill="none" xmlns="http://www.w3.org/2000/svg">
<g id="wallet" clip-path="url(#clip0_246_1902)">
<path id="Vector" d="M16.5 15.0001H15.5C15.2348 15.0001 14.9804 14.8947 14.7929 14.7072C14.6054 14.5197 14.5 14.2653 14.5 14.0001C14.5 13.8675 14.4473 13.7403 14.3536 13.6465C14.2598 13.5528 14.1326 13.5001 14 13.5001C13.8674 13.5001 13.7402 13.5528 13.6464 13.6465C13.5527 13.7403 13.5 13.8675 13.5 14.0001C13.5 14.5305 13.7107 15.0392 14.0858 15.4143C14.4609 15.7894 14.9696 16.0001 15.5 16.0001V16.5001C15.5 16.6327 15.5527 16.7599 15.6464 16.8537C15.7402 16.9474 15.8674 17.0001 16 17.0001C16.1326 17.0001 16.2598 16.9474 16.3536 16.8537C16.4473 16.7599 16.5 16.6327 16.5 16.5001V16.0001C17.0304 16.0001 17.5391 15.7894 17.9142 15.4143C18.2893 15.0392 18.5 14.5305 18.5 14.0001C18.5 13.4697 18.2893 12.961 17.9142 12.5859C17.5391 12.2108 17.0304 12.0001 16.5 12.0001H15.5C15.2348 12.0001 14.9804 11.8947 14.7929 11.7072C14.6054 11.5197 14.5 11.2653 14.5 11.0001C14.5 10.7349 14.6054 10.4805 14.7929 10.293C14.9804 10.1055 15.2348 10.0001 15.5 10.0001H16.5C16.7652 10.0001 17.0196 10.1055 17.2071 10.293C17.3946 10.4805 17.5 10.7349 17.5 11.0001C17.5 11.1327 17.5527 11.2599 17.6464 11.3537C17.7402 11.4474 17.8674 11.5001 18 11.5001C18.1326 11.5001 18.2598 11.4474 18.3536 11.3537C18.4473 11.2599 18.5 11.1327 18.5 11.0001C18.4984 10.4702 18.2872 9.96237 17.9125 9.58764C17.5377 9.21291 17.0299 9.00168 16.5 9.0001V8.5001C16.5 8.36749 16.4473 8.24032 16.3536 8.14655C16.2598 8.05278 16.1326 8.0001 16 8.0001C15.8674 8.0001 15.7402 8.05278 15.6464 8.14655C15.5527 8.24032 15.5 8.36749 15.5 8.5001V9.0001C14.9696 9.0001 14.4609 9.21082 14.0858 9.58589C13.7107 9.96096 13.5 10.4697 13.5 11.0001C13.5 11.5305 13.7107 12.0392 14.0858 12.4143C14.4609 12.7894 14.9696 13.0001 15.5 13.0001H16.5C16.7652 13.0001 17.0196 13.1055 17.2071 13.293C17.3946 13.4805 17.5 13.7349 17.5 14.0001C17.5 14.2653 17.3946 14.5197 17.2071 14.7072C17.0196 14.8947 16.7652 15.0001 16.5 15.0001ZM30 12.0511V10.5001C30 9.83706 29.7366 9.20118 29.2678 8.73233C28.7989 8.26349 28.163 8.0001 27.5 8.0001H20.67C20.0675 7.36804 19.3429 6.86486 18.5401 6.52107C17.7374 6.17727 16.8733 6 16 6C15.1267 6 14.2626 6.17727 13.4599 6.52107C12.6571 6.86486 11.9325 7.36804 11.33 8.0001H2.5C1.83696 8.0001 1.20107 8.26349 0.732233 8.73233C0.263392 9.20118 0 9.83706 0 10.5001L0 29.5001C0 30.1631 0.263392 30.799 0.732233 31.2679C1.20107 31.7367 1.83696 32.0001 2.5 32.0001H29.5C30.163 32.0001 30.7989 31.7367 31.2678 31.2679C31.7366 30.799 32 30.1631 32 29.5001V14.5001C31.9999 13.9239 31.8008 13.3655 31.4363 12.9193C31.0719 12.473 30.5645 12.1663 30 12.0511ZM27.5 9.0001C27.8978 9.0001 28.2794 9.15814 28.5607 9.43944C28.842 9.72075 29 10.1023 29 10.5001V12.0001H22.48C22.4037 10.9305 22.0561 9.89804 21.47 9.0001H27.5ZM11.76 9.0001C12.4525 8.15893 13.3796 7.54275 14.4233 7.22996C15.467 6.91716 16.5801 6.92188 17.6212 7.24351C18.6622 7.56514 19.584 8.18915 20.2694 9.03615C20.9547 9.88316 21.3727 10.9149 21.47 12.0001C21.51 12.3322 21.51 12.668 21.47 13.0001C21.4133 13.699 21.216 14.3793 20.89 15.0001C20.4334 15.9053 19.7345 16.6659 18.8711 17.1974C18.0077 17.7288 17.0138 18.0102 16 18.0102C14.9862 18.0102 13.9923 17.7288 13.1289 17.1974C12.2655 16.6659 11.5666 15.9053 11.11 15.0001C10.784 14.3793 10.5867 13.699 10.53 13.0001C10.49 12.668 10.49 12.3322 10.53 12.0001C10.623 10.8977 11.0524 9.8505 11.76 9.0001ZM2.5 9.0001H10.53C9.9439 9.89804 9.5963 10.9305 9.52 12.0001H2.5C2.10218 12.0001 1.72064 11.8421 1.43934 11.5608C1.15804 11.2795 1 10.8979 1 10.5001C1 10.1023 1.15804 9.72075 1.43934 9.43944C1.72064 9.15814 2.10218 9.0001 2.5 9.0001ZM31 25.0001H26C25.2044 25.0001 24.4413 24.684 23.8787 24.1214C23.3161 23.5588 23 22.7957 23 22.0001C23 21.2045 23.3161 20.4414 23.8787 19.8788C24.4413 19.3162 25.2044 19.0001 26 19.0001H31V25.0001ZM31 18.0001H26C24.9391 18.0001 23.9217 18.4215 23.1716 19.1717C22.4214 19.9218 22 20.9392 22 22.0001C22 23.061 22.4214 24.0784 23.1716 24.8285C23.9217 25.5787 24.9391 26.0001 26 26.0001H31V29.5001C31 29.8979 30.842 30.2795 30.5607 30.5608C30.2794 30.8421 29.8978 31.0001 29.5 31.0001H2.5C2.10218 31.0001 1.72064 30.8421 1.43934 30.5608C1.15804 30.2795 1 29.8979 1 29.5001V12.5001C1.43274 12.8247 1.95907 13.0001 2.5 13.0001H9.52C9.56936 13.6886 9.73152 14.3642 10 15.0001H5.5C5.36739 15.0001 5.24021 15.0528 5.14645 15.1465C5.05268 15.2403 5 15.3675 5 15.5001C5 15.6327 5.05268 15.7599 5.14645 15.8537C5.24021 15.9474 5.36739 16.0001 5.5 16.0001H10.53C11.1162 16.9196 11.9246 17.6764 12.8807 18.2008C13.8368 18.7251 14.9096 18.9999 16 18.9999C17.0904 18.9999 18.1632 18.7251 19.1193 18.2008C20.0754 17.6764 20.8838 16.9196 21.47 16.0001H26.5C26.6326 16.0001 26.7598 15.9474 26.8536 15.8537C26.9473 15.7599 27 15.6327 27 15.5001C27 15.3675 26.9473 15.2403 26.8536 15.1465C26.7598 15.0528 26.6326 15.0001 26.5 15.0001H22C22.2685 14.3642 22.4306 13.6886 22.48 13.0001H29.5C29.8978 13.0001 30.2794 13.1581 30.5607 13.4394C30.842 13.7207 31 14.1023 31 14.5001V18.0001ZM5 28.5001C5 28.6327 5.05268 28.7599 5.14645 28.8537C5.24021 28.9474 5.36739 29.0001 5.5 29.0001H26.5C26.6326 29.0001 26.7598 28.9474 26.8536 28.8537C26.9473 28.7599 27 28.6327 27 28.5001C27 28.3675 26.9473 28.2403 26.8536 28.1465C26.7598 28.0528 26.6326 28.0001 26.5 28.0001H5.5C5.36739 28.0001 5.24021 28.0528 5.14645 28.1465C5.05268 28.2403 5 28.3675 5 28.5001ZM25.03 22.0001C25.03 22.2968 25.118 22.5868 25.2828 22.8335C25.4476 23.0801 25.6819 23.2724 25.956 23.3859C26.2301 23.4995 26.5317 23.5292 26.8226 23.4713C27.1136 23.4134 27.3809 23.2705 27.5907 23.0608C27.8004 22.851 27.9433 22.5837 28.0012 22.2927C28.0591 22.0018 28.0294 21.7002 27.9158 21.4261C27.8023 21.152 27.61 20.9177 27.3634 20.7529C27.1167 20.5881 26.8267 20.5001 26.53 20.5001C26.1322 20.5001 25.7506 20.6581 25.4693 20.9394C25.188 21.2207 25.03 21.6023 25.03 22.0001ZM26.53 21.5001C26.6289 21.5001 26.7256 21.5294 26.8078 21.5844C26.89 21.6393 26.9541 21.7174 26.9919 21.8088C27.0298 21.9001 27.0397 22.0007 27.0204 22.0976C27.0011 22.1946 26.9535 22.2837 26.8836 22.3537C26.8136 22.4236 26.7245 22.4712 26.6275 22.4905C26.5306 22.5098 26.43 22.4999 26.3387 22.462C26.2473 22.4242 26.1692 22.3601 26.1143 22.2779C26.0593 22.1957 26.03 22.099 26.03 22.0001C26.03 21.8675 26.0827 21.7403 26.1764 21.6465C26.2702 21.5528 26.3974 21.5001 26.53 21.5001Z" fill="url(#paint0_linear_246_1902)"/>
</g>
<defs>
<linearGradient id="paint0_linear_246_1902" x1="4.24785e-08" y1="10.5976" x2="31.3448" y2="29.5934" gradientUnits="userSpaceOnUse">
<stop stop-color="#2F80ED"/>
<stop offset="1" stop-color="#DE19DF"/>
</linearGradient>
<clipPath id="clip0_246_1902">
<rect width="32" height="32" fill="white"/>
</clipPath>
</defs>
</svg>
