<svg width="28" height="28" viewBox="0 0 28 28" fill="none" xmlns="http://www.w3.org/2000/svg">
<g id="youtube 1">
<path id="Vector" d="M26.8334 11.3281C26.8911 9.65817 26.5259 8.00076 25.7718 6.50974C25.2601 5.89794 24.55 5.48507 23.7651 5.34307C20.5189 5.04852 17.2592 4.92779 14.0001 4.9814C10.7529 4.92536 7.50494 5.04219 4.27011 5.3314C3.63057 5.44774 3.03872 5.74772 2.56678 6.19474C1.51678 7.16307 1.40011 8.81974 1.28345 10.2197C1.11418 12.7369 1.11418 15.2626 1.28345 17.7797C1.3172 18.5677 1.43452 19.3499 1.63345 20.1131C1.77412 20.7023 2.05872 21.2475 2.46178 21.6997C2.93693 22.1704 3.54256 22.4875 4.20011 22.6097C6.71535 22.9202 9.2497 23.0489 11.7834 22.9947C15.8668 23.0531 19.4484 22.9947 23.6834 22.6681C24.3571 22.5533 24.9798 22.2359 25.4684 21.7581C25.7951 21.4313 26.039 21.0314 26.1801 20.5914C26.5973 19.3111 26.8023 17.9712 26.7868 16.6247C26.8334 15.9714 26.8334 12.0281 26.8334 11.3281ZM11.3634 17.3247V10.1031L18.2701 13.7314C16.3334 14.8047 13.7784 16.0181 11.3634 17.3247Z" fill="white"/>
</g>
</svg>
